<svg width="183" height="201" viewBox="0 0 183 201" fill="none" xmlns="http://www.w3.org/2000/svg">
<g clip-path="url(#clip0_318_2113)">
<path opacity="0.1" d="M5.72966 171.81C4.10542 160.35 7.25471 147.911 16.3583 137.669C41.2705 109.641 40.2096 115.269 44.5883 81.5375C48.967 47.806 85.8203 34.6481 113.117 48.7082C146.163 65.7288 129.015 72.1262 168.42 100.546C202.482 125.113 170.916 171.432 114.706 190.858C69.2764 206.559 10.434 205 5.72966 171.81Z" fill="#007AFF"/>
<path d="M33.9871 73.2126H139.314C141.707 73.2128 144.002 74.1605 145.694 75.8474C147.387 77.5344 148.337 79.8223 148.337 82.2078V161.926C148.337 164.312 147.386 166.6 145.694 168.287C144.002 169.973 141.706 170.921 139.313 170.921H29.9662C27.5729 170.921 25.2776 169.973 23.5852 168.287C21.8929 166.6 20.9421 164.312 20.9421 161.926V86.2157C20.9421 82.7671 22.3165 79.4598 24.7629 77.0212C27.2093 74.5827 30.5273 73.2127 33.9871 73.2126Z" fill="#262626"/>
<path d="M147.187 80.8433H29.9662C24.9824 80.8433 20.9421 84.8704 20.9421 89.8382V169.556C20.9421 174.524 24.9824 178.551 29.9662 178.551H147.187C152.171 178.551 156.211 174.524 156.211 169.556V89.8382C156.211 84.8704 152.171 80.8433 147.187 80.8433Z" fill="#007AFF"/>
<path opacity="0.55" d="M147.187 80.8433H29.9662C24.9824 80.8433 20.9421 84.8704 20.9421 89.8382V169.556C20.9421 174.524 24.9824 178.551 29.9662 178.551H147.187C152.171 178.551 156.211 174.524 156.211 169.556V89.8382C156.211 84.8704 152.171 80.8433 147.187 80.8433Z" fill="white"/>
<path d="M147.187 178.874H29.9663C27.4878 178.872 25.1117 177.889 23.3591 176.142C21.6066 174.395 20.6208 172.027 20.618 169.556V89.8383C20.6208 87.3678 21.6066 84.9994 23.3592 83.2524C25.1117 81.5055 27.4878 80.5229 29.9663 80.52H147.187C149.665 80.5229 152.041 81.5056 153.794 83.2525C155.546 84.9994 156.532 87.3679 156.535 89.8383V169.556C156.532 172.027 155.546 174.395 153.794 176.142C152.041 177.889 149.665 178.872 147.187 178.874ZM29.9663 81.1656C27.6596 81.168 25.4481 82.0824 23.8171 83.7082C22.186 85.3341 21.2687 87.5385 21.2664 89.8377V169.556C21.2688 171.855 22.1861 174.059 23.8172 175.685C25.4482 177.311 27.6597 178.225 29.9663 178.227H147.187C149.494 178.225 151.705 177.311 153.336 175.685C154.967 174.059 155.884 171.855 155.887 169.556V89.8383C155.884 87.5391 154.967 85.3348 153.336 83.709C151.705 82.0832 149.494 81.1687 147.187 81.1662L29.9663 81.1656Z" fill="#262626"/>
<path d="M145.914 171.693H143.288V171.047H145.895L145.914 171.693ZM140.68 171.693H138.072V171.047H140.68L140.68 171.693ZM135.465 171.693H132.858V171.047H135.465V171.693ZM130.25 171.693H127.642V171.047H130.249L130.25 171.693ZM125.035 171.693H122.426V171.047H125.034L125.035 171.693ZM119.82 171.693H117.212V171.047H119.82V171.693ZM114.604 171.693H111.997V171.047H114.604V171.693ZM109.389 171.693H106.782V171.047H109.389V171.693ZM104.174 171.693H101.566V171.047H104.174V171.693ZM98.9588 171.693H96.3511V171.047H98.9588V171.693ZM93.7435 171.693H91.136V171.047H93.7435V171.693ZM88.5283 171.693H85.9208V171.047H88.5283V171.693ZM83.313 171.693H80.7055V171.047H83.313V171.693ZM78.0978 171.693H75.4903V171.047H78.0978V171.693ZM72.8827 171.693H70.275V171.047H72.8827V171.693ZM67.6675 171.693H65.0597V171.047H67.6675V171.693ZM62.4522 171.693H59.8447V171.047H62.4522V171.693ZM57.237 171.693H54.6294V171.047H57.237V171.693ZM52.0217 171.693H49.4142V171.047H52.0217V171.693ZM46.8067 171.693H44.1989V171.047H46.8067V171.693ZM41.5914 171.693H38.9837V171.047H41.5914V171.693ZM36.3762 171.693H33.7686V171.047H36.3762V171.693ZM31.1494 171.69C30.2127 171.657 29.3054 171.356 28.5363 170.822L28.9067 170.291C29.5734 170.755 30.3602 171.017 31.1726 171.045L31.1494 171.69ZM148.555 170.91L148.202 170.368C148.884 169.927 149.426 169.301 149.761 168.563L150.352 168.83C149.965 169.68 149.341 170.402 148.555 170.91ZM26.8077 168.684C26.5614 168.093 26.4352 167.459 26.4364 166.818V166.008H27.0847V166.818C27.0836 167.374 27.1931 167.924 27.4067 168.437L26.8077 168.684ZM150.787 166.155H150.139V163.556H150.787V166.155ZM27.0847 163.408H26.4364V160.809H27.0847V163.408ZM150.786 160.957H150.138V158.358H150.786V160.957ZM27.0847 158.21H26.4364V155.611H27.0847V158.21ZM150.786 155.758H150.138V153.159H150.786V155.758ZM27.0847 153.012H26.4364V150.412H27.0847V153.012ZM150.786 150.56H150.138V147.961H150.786V150.56ZM27.0847 147.813H26.4364V145.214H27.0847V147.813ZM150.786 145.361H150.138V142.763H150.786V145.361ZM27.0847 142.615H26.4364V140.016H27.0847V142.615ZM150.786 140.163H150.138V137.564H150.786V140.163ZM27.0847 137.417H26.4364V134.817H27.0847V137.417ZM150.786 134.965H150.138V132.366H150.786V134.965ZM27.0847 132.218H26.4364V129.619H27.0847V132.218ZM150.786 129.766H150.138V127.167H150.786V129.766ZM27.0847 127.02H26.4364V124.421H27.0847V127.02ZM150.786 124.568H150.138V121.968H150.786V124.568ZM27.0847 121.821H26.4364V119.222H27.0847V121.821ZM150.786 119.37H150.138V116.771H150.786V119.37ZM27.0847 116.623H26.4364V114.024H27.0847V116.623ZM150.786 114.17H150.138V111.572H150.786V114.17ZM27.0847 111.425H26.4364V108.826H27.0847V111.425ZM150.786 108.973H150.138V106.374H150.786V108.973ZM27.0847 106.226H26.4364V103.627H27.0847V106.226ZM150.786 103.775H150.138V101.175H150.786V103.775ZM27.0847 101.028H26.4364V98.4287H27.0847V101.028ZM150.786 98.5762H150.138V95.9769H150.786V98.5762ZM27.0847 95.8296H26.4364V93.2303H27.0847V95.8296ZM150.786 93.3778H150.138V92.5761C150.14 92.0179 150.029 91.4651 149.814 90.95L150.412 90.7012C150.661 91.2949 150.788 91.9319 150.787 92.5752L150.786 93.3778ZM27.4649 90.8237L26.8749 90.5558C27.2634 89.7059 27.8886 88.9851 28.6761 88.479L29.0279 89.0216C28.3447 89.4609 27.8022 90.0864 27.4649 90.8237ZM148.309 89.0983C147.641 88.6367 146.854 88.3769 146.042 88.3502L146.063 87.704C147 87.7346 147.908 88.0343 148.678 88.5669L148.309 89.0983ZM143.445 88.3476H140.838V87.7014H143.446L143.445 88.3476ZM138.23 88.3476H135.622V87.7014H138.23V88.3476ZM133.015 88.3476H130.407V87.7014H133.015L133.015 88.3476ZM127.8 88.3476H125.192V87.7014H127.8L127.8 88.3476ZM122.584 88.3476H119.977V87.7014H122.584V88.3476ZM117.369 88.3476H114.762V87.7014H117.369L117.369 88.3476ZM112.154 88.3476H109.546V87.7014H112.154V88.3476ZM106.939 88.3476H104.331V87.7014H106.939V88.3476ZM101.724 88.3476H99.1159V87.7014H101.723L101.724 88.3476ZM96.5084 88.3476H93.9004V87.7014H96.5082L96.5084 88.3476ZM91.2931 88.3476H88.6856V87.7014H91.2931V88.3476ZM86.0779 88.3476H83.4704V87.7014H86.0774L86.0779 88.3476ZM80.8626 88.3476H78.2544V87.7014H80.862L80.8626 88.3476ZM75.6476 88.3476H73.0398V87.7014H75.6476V88.3476ZM70.4323 88.3476H67.8246V87.7014H70.4315L70.4323 88.3476ZM65.2171 88.3476H62.6085V87.7014H65.216L65.2171 88.3476ZM60.0018 88.3476H57.3943V87.7014H60.0018V88.3476ZM54.7866 88.3476H52.179V87.7014H54.7866V88.3476ZM49.5715 88.3476H46.9638V87.7014H49.5715V88.3476ZM44.3563 88.3476H41.7485V87.7014H44.3563V88.3476ZM39.141 88.3476H36.5335V87.7014H39.141V88.3476ZM33.9257 88.3476H31.3271L31.3182 87.7014H33.9257V88.3476Z" fill="white"/>
<path d="M115.464 114.523H156.728C158.023 114.523 159.266 115.036 160.182 115.95C161.099 116.863 161.613 118.102 161.613 119.393V140.001C161.613 141.293 161.099 142.531 160.182 143.445C159.266 144.358 158.023 144.871 156.728 144.871H115.464C114.013 144.871 112.623 144.297 111.597 143.275C110.572 142.253 109.996 140.867 109.996 139.421V119.973C109.996 119.258 110.137 118.549 110.412 117.888C110.687 117.226 111.09 116.626 111.597 116.12C112.105 115.613 112.708 115.212 113.371 114.938C114.035 114.664 114.746 114.523 115.464 114.523Z" fill="white"/>
<path d="M156.728 145.194H115.464C113.928 145.192 112.456 144.584 111.37 143.501C110.285 142.419 109.674 140.952 109.672 139.421V119.974C109.674 118.443 110.285 116.976 111.37 115.894C112.456 114.811 113.928 114.203 115.464 114.201H156.728C158.109 114.202 159.433 114.75 160.41 115.723C161.387 116.697 161.936 118.017 161.938 119.394V140.002C161.936 141.378 161.386 142.698 160.41 143.672C159.433 144.645 158.109 145.193 156.728 145.194ZM115.464 114.846C114.1 114.848 112.793 115.389 111.829 116.35C110.864 117.311 110.322 118.614 110.32 119.973V139.42C110.322 140.779 110.864 142.082 111.829 143.043C112.793 144.004 114.1 144.545 115.464 144.547H156.728C157.937 144.546 159.097 144.066 159.952 143.214C160.807 142.361 161.288 141.205 161.289 140V119.392C161.288 118.186 160.807 117.031 159.952 116.178C159.097 115.326 157.937 114.846 156.728 114.845L115.464 114.846Z" fill="#262626"/>
<path d="M124.858 137.117C128.969 137.117 132.302 133.795 132.302 129.697C132.302 125.599 128.969 122.277 124.858 122.277C120.747 122.277 117.414 125.599 117.414 129.697C117.414 133.795 120.747 137.117 124.858 137.117Z" fill="white"/>
<path d="M124.858 137.44C123.321 137.44 121.819 136.986 120.542 136.135C119.264 135.284 118.269 134.075 117.681 132.66C117.093 131.245 116.939 129.688 117.239 128.186C117.539 126.684 118.279 125.304 119.365 124.222C120.452 123.139 121.836 122.401 123.343 122.103C124.85 121.804 126.412 121.957 127.831 122.543C129.251 123.129 130.464 124.122 131.317 125.395C132.171 126.669 132.626 128.166 132.626 129.697C132.624 131.75 131.805 133.719 130.348 135.17C128.892 136.622 126.917 137.438 124.858 137.44ZM124.858 122.6C123.449 122.6 122.073 123.017 120.902 123.797C119.731 124.577 118.819 125.685 118.28 126.982C117.741 128.279 117.6 129.706 117.875 131.082C118.15 132.459 118.828 133.724 119.824 134.716C120.82 135.708 122.088 136.384 123.469 136.658C124.851 136.932 126.282 136.791 127.583 136.254C128.884 135.717 129.996 134.807 130.778 133.64C131.561 132.473 131.978 131.101 131.978 129.697C131.976 127.815 131.225 126.011 129.89 124.681C128.555 123.35 126.745 122.602 124.858 122.6Z" fill="#262626"/>
<path d="M5.32128 114.677C5.25924 114.677 5.19782 114.664 5.1405 114.641C5.08319 114.617 5.03111 114.582 4.98724 114.539C4.94337 114.495 4.90858 114.443 4.88484 114.386C4.8611 114.329 4.84888 114.268 4.84888 114.206V100.92C4.84888 100.795 4.89865 100.675 4.98724 100.587C5.07583 100.499 5.19599 100.449 5.32128 100.449C5.44657 100.449 5.56673 100.499 5.65532 100.587C5.74392 100.675 5.79369 100.795 5.79369 100.92V114.206C5.79369 114.331 5.74392 114.45 5.65532 114.539C5.56673 114.627 5.44657 114.677 5.32128 114.677Z" fill="#262626"/>
<path d="M9.67016 108.034H0.972377C0.909504 108.035 0.846995 108.024 0.788516 108.001C0.730037 107.978 0.676765 107.943 0.631824 107.899C0.586883 107.856 0.551177 107.803 0.526801 107.745C0.502424 107.688 0.489868 107.626 0.489868 107.563C0.489868 107.5 0.502424 107.438 0.526801 107.38C0.551177 107.323 0.586883 107.27 0.631824 107.226C0.676765 107.183 0.730037 107.148 0.788516 107.125C0.846995 107.102 0.909504 107.091 0.972377 107.092H9.67016C9.79367 107.095 9.91124 107.146 9.99765 107.234C10.0841 107.322 10.1325 107.44 10.1325 107.563C10.1325 107.686 10.0841 107.804 9.99765 107.892C9.91124 107.98 9.79367 108.031 9.67016 108.034Z" fill="#262626"/>
<path d="M172.62 133.592C172.531 133.592 172.447 133.557 172.384 133.495C172.322 133.433 172.287 133.348 172.287 133.26V126.135C172.286 126.09 172.293 126.046 172.31 126.005C172.326 125.964 172.35 125.926 172.381 125.894C172.412 125.863 172.449 125.837 172.49 125.82C172.531 125.803 172.575 125.794 172.62 125.794C172.664 125.794 172.708 125.803 172.749 125.82C172.79 125.837 172.827 125.863 172.858 125.894C172.89 125.926 172.914 125.964 172.93 126.005C172.946 126.046 172.954 126.09 172.953 126.135V133.26C172.953 133.304 172.944 133.347 172.928 133.388C172.911 133.428 172.886 133.464 172.855 133.495C172.824 133.526 172.788 133.551 172.747 133.567C172.707 133.584 172.664 133.592 172.62 133.592Z" fill="#262626"/>
<path d="M174.953 130.029H170.287C170.243 130.031 170.199 130.023 170.157 130.007C170.116 129.99 170.078 129.966 170.046 129.935C170.014 129.904 169.989 129.867 169.972 129.826C169.954 129.786 169.946 129.742 169.946 129.697C169.946 129.653 169.954 129.609 169.972 129.568C169.989 129.527 170.014 129.491 170.046 129.46C170.078 129.429 170.116 129.404 170.157 129.388C170.199 129.372 170.243 129.364 170.287 129.365H174.953C175.039 129.368 175.122 129.404 175.183 129.466C175.243 129.528 175.277 129.611 175.277 129.697C175.277 129.784 175.243 129.867 175.183 129.929C175.122 129.991 175.039 130.027 174.953 130.029Z" fill="#262626"/>
<path d="M167.288 73.2127C167.244 73.2128 167.201 73.2042 167.161 73.1875C167.12 73.1709 167.084 73.1464 167.053 73.1156C167.022 73.0848 166.997 73.0482 166.98 73.0079C166.964 72.9676 166.955 72.9244 166.955 72.8808V65.7549C166.954 65.7106 166.962 65.6665 166.978 65.6252C166.994 65.584 167.018 65.5463 167.049 65.5146C167.081 65.4829 167.118 65.4576 167.159 65.4404C167.2 65.4232 167.244 65.4143 167.288 65.4143C167.333 65.4143 167.377 65.4232 167.418 65.4404C167.459 65.4576 167.496 65.4829 167.527 65.5146C167.558 65.5463 167.582 65.584 167.598 65.6252C167.615 65.6665 167.622 65.7106 167.621 65.7549V72.8808C167.621 72.9688 167.586 73.0533 167.524 73.1155C167.461 73.1778 167.377 73.2127 167.288 73.2127Z" fill="#262626"/>
<path d="M169.621 69.6498H164.956C164.911 69.6509 164.867 69.6432 164.826 69.627C164.784 69.6108 164.746 69.5865 164.715 69.5556C164.683 69.5247 164.657 69.4877 164.64 69.4468C164.623 69.406 164.614 69.3621 164.614 69.3178C164.614 69.2734 164.623 69.2295 164.64 69.1887C164.657 69.1478 164.683 69.1109 164.715 69.0799C164.746 69.049 164.784 69.0247 164.826 69.0085C164.867 68.9923 164.911 68.9846 164.956 68.9857H169.621C169.708 68.9879 169.79 69.0239 169.851 69.0859C169.912 69.1479 169.946 69.2311 169.946 69.3178C169.946 69.4044 169.912 69.4876 169.851 69.5496C169.79 69.6116 169.708 69.6476 169.621 69.6498H169.621Z" fill="#262626"/>
<path d="M39.7757 27.7871C39.1548 27.8009 38.553 27.5726 38.0985 27.1508C37.6439 26.7289 37.3726 26.1469 37.3421 25.5286C37.3117 24.9103 37.5246 24.3046 37.9355 23.8404C38.3464 23.3762 38.9229 23.0903 39.5421 23.0434C40.1614 22.9966 40.7746 23.1926 41.251 23.5896C41.7275 23.9867 42.0297 24.5535 42.0932 25.1693C42.1567 25.7851 41.9765 26.4013 41.591 26.8866C41.2055 27.372 40.6451 27.6882 40.0292 27.7679C39.9451 27.7786 39.8605 27.785 39.7757 27.7871ZM39.6882 23.7404C39.629 23.7417 39.5698 23.7461 39.511 23.7538C39.0768 23.8096 38.6816 24.0323 38.4097 24.3743C38.1377 24.7163 38.0105 25.1506 38.055 25.5847C38.0996 26.0188 38.3124 26.4185 38.6482 26.6985C38.984 26.9786 39.4162 27.1168 39.8527 27.0839C40.2893 27.051 40.6957 26.8495 40.9854 26.5224C41.2752 26.1952 41.4253 25.7682 41.4039 25.3323C41.3824 24.8965 41.1911 24.4862 40.8706 24.1888C40.5502 23.8915 40.1259 23.7306 39.6882 23.7404Z" fill="#292A2E"/>
<path d="M41.2307 22.5131C40.6435 22.5255 40.0724 22.3209 39.6273 21.9389C39.1822 21.5569 38.8946 21.0244 38.8196 20.4437C38.7596 19.9783 38.8393 19.5056 39.0488 19.0854C39.2583 18.6652 39.588 18.3163 39.9964 18.0829C40.4048 17.8495 40.8735 17.742 41.3431 17.7741C41.8128 17.8062 42.2623 17.9764 42.6349 18.2631C43.0076 18.5499 43.2865 18.9404 43.4365 19.3851C43.5865 19.8299 43.6008 20.3091 43.4776 20.7619C43.3544 21.2148 43.0992 21.6211 42.7444 21.9295C42.3895 22.2378 41.9509 22.4343 41.484 22.4942C41.3999 22.5049 41.3154 22.5112 41.2307 22.5131ZM41.1443 18.4663C40.9085 18.4712 40.6765 18.5255 40.4632 18.6257C40.25 18.726 40.0603 18.8698 39.9064 19.0479C39.7526 19.226 39.6381 19.4344 39.5704 19.6595C39.5027 19.8846 39.4834 20.1214 39.5135 20.3545C39.5551 20.6753 39.6891 20.9772 39.8992 21.2237C40.1092 21.4702 40.3864 21.6508 40.6973 21.7436C41.0081 21.8364 41.3393 21.8375 41.6507 21.7467C41.9621 21.6559 42.2405 21.4771 42.4522 21.232C42.6639 20.9868 42.7998 20.6858 42.8435 20.3653C42.8872 20.0449 42.8368 19.7186 42.6985 19.426C42.5601 19.1335 42.3397 18.8871 42.0639 18.7168C41.7881 18.5464 41.4687 18.4595 41.1443 18.4663Z" fill="#292A2E"/>
<path d="M43.4722 23.5368C43.7766 22.4331 42.6796 21.1701 41.0218 20.7158C39.3641 20.2614 37.7734 20.7879 37.469 21.8916C37.1645 22.9954 38.2616 24.2584 39.9193 24.7127C41.5771 25.167 43.1677 24.6406 43.4722 23.5368Z" fill="white"/>
<path d="M41.2044 25.2242C40.739 25.2327 40.2748 25.1738 39.8265 25.0493C37.9537 24.5359 36.7699 23.1082 37.1312 21.7992C37.4925 20.4902 39.2421 19.8666 41.1142 20.3792C41.9347 20.5882 42.6761 21.0314 43.2474 21.6544C43.7892 22.2791 43.9889 22.9794 43.8093 23.6293C43.6297 24.2792 43.0989 24.7802 42.3134 25.0402C41.9549 25.156 41.5811 25.218 41.2044 25.2242ZM39.7629 20.9053C38.7864 20.9268 37.9866 21.3313 37.8065 21.984C37.5578 22.8851 38.5679 23.9804 40.0108 24.3761C40.6896 24.5782 41.4128 24.5788 42.0919 24.3778C42.6482 24.1937 43.0181 23.8622 43.1333 23.4443C43.2485 23.0264 43.1007 22.5531 42.7169 22.1113C42.2364 21.5926 41.6147 21.2246 40.9277 21.0524C40.5487 20.9473 40.1563 20.8978 39.7629 20.9053Z" fill="#292A2E"/>
<path d="M40.6704 24.8536L41.6746 20.9487L40.7164 20.6431L39.5497 24.5945L40.6704 24.8536Z" fill="#292A2E"/>
<path d="M36.3405 22.4763C36.518 22.4763 36.6619 22.3329 36.6619 22.156C36.6619 21.9791 36.518 21.8357 36.3405 21.8357C36.163 21.8357 36.0192 21.9791 36.0192 22.156C36.0192 22.3329 36.163 22.4763 36.3405 22.4763Z" fill="#292A2E"/>
<path d="M37.0399 20.8904C37.2173 20.8904 37.3612 20.747 37.3612 20.5701C37.3612 20.3932 37.2173 20.2498 37.0399 20.2498C36.8624 20.2498 36.7185 20.3932 36.7185 20.5701C36.7185 20.747 36.8624 20.8904 37.0399 20.8904Z" fill="#292A2E"/>
<path d="M75.6197 65.1749C75.5738 65.1749 75.5291 65.1604 75.4921 65.1334C75.455 65.1065 75.4275 65.0685 75.4136 65.0249C75.3997 64.9813 75.4 64.9345 75.4146 64.8911C75.4291 64.8477 75.4571 64.8101 75.4946 64.7837C75.6375 64.6776 75.7749 64.5643 75.9063 64.4442C75.9274 64.4253 75.952 64.4107 75.9788 64.4013C76.0055 64.3919 76.0339 64.3878 76.0623 64.3893C76.0906 64.3908 76.1184 64.3979 76.144 64.4101C76.1696 64.4223 76.1925 64.4394 76.2115 64.4605C76.2305 64.4815 76.2451 64.5061 76.2545 64.5328C76.264 64.5594 76.2681 64.5877 76.2666 64.616C76.265 64.6442 76.258 64.6719 76.2457 64.6974C76.2335 64.7229 76.2163 64.7458 76.1952 64.7647C76.0513 64.8961 75.9007 65.0199 75.744 65.1357C75.7076 65.1612 75.6642 65.1749 75.6197 65.1749ZM77.7648 62.8653C77.7251 62.8652 77.6863 62.8543 77.6525 62.8338C77.6187 62.8132 77.5912 62.7838 77.573 62.7487C77.5548 62.7136 77.5466 62.6742 77.5494 62.6348C77.5522 62.5955 77.5657 62.5576 77.5886 62.5254C78.0821 61.8265 78.5142 61.0866 78.8803 60.3138C78.8919 60.2873 78.9087 60.2635 78.9297 60.2436C78.9507 60.2238 78.9755 60.2083 79.0026 60.1982C79.0297 60.1881 79.0586 60.1835 79.0875 60.1848C79.1164 60.186 79.1448 60.193 79.171 60.2054C79.1971 60.2178 79.2205 60.2352 79.2398 60.2568C79.259 60.2783 79.2737 60.3035 79.283 60.3309C79.2923 60.3582 79.296 60.3871 79.2938 60.4159C79.2917 60.4447 79.2838 60.4727 79.2706 60.4984C78.894 61.2937 78.4492 62.0551 77.9413 62.7742C77.9214 62.8023 77.8949 62.8253 77.8642 62.8412C77.8334 62.857 77.7994 62.8653 77.7648 62.8653ZM80.0062 58.197C79.9851 58.1969 79.9642 58.1939 79.944 58.1879C79.8891 58.1715 79.843 58.134 79.8159 58.0837C79.7887 58.0334 79.7827 57.9744 79.7992 57.9197C80.0442 57.0985 80.2343 56.262 80.3682 55.4156C80.3723 55.3874 80.382 55.3602 80.3967 55.3358C80.4114 55.3113 80.4309 55.2899 80.4539 55.273C80.477 55.2561 80.5032 55.2439 80.531 55.2372C80.5588 55.2304 80.5877 55.2293 80.616 55.2337C80.6443 55.2382 80.6714 55.2483 80.6957 55.2633C80.7201 55.2783 80.7412 55.298 80.7578 55.3212C80.7745 55.3444 80.7864 55.3707 80.7927 55.3985C80.7991 55.4263 80.7999 55.4551 80.795 55.4833C80.6582 56.3485 80.4638 57.2038 80.2132 58.0434C80.1999 58.0878 80.1725 58.1267 80.1352 58.1544C80.0979 58.182 80.0527 58.197 80.0062 58.197ZM80.8367 53.081H80.8276C80.7704 53.0787 80.7164 53.0538 80.6776 53.0118C80.6387 52.9698 80.6182 52.9141 80.6206 52.857C80.6344 52.5234 80.6422 52.1806 80.6422 51.8386C80.6426 51.3246 80.6095 50.8111 80.543 50.3014C80.5389 50.2732 80.5405 50.2445 80.5477 50.2169C80.5549 50.1892 80.5675 50.1633 80.5848 50.1406C80.6021 50.1179 80.6237 50.0988 80.6485 50.0845C80.6732 50.0702 80.7006 50.061 80.7289 50.0573C80.7573 50.0536 80.7861 50.0555 80.8137 50.063C80.8413 50.0705 80.8672 50.0834 80.8897 50.1009C80.9123 50.1185 80.9311 50.1403 80.9452 50.1651C80.9592 50.1899 80.9682 50.2173 80.9715 50.2456C81.0404 50.7738 81.0748 51.3059 81.0744 51.8386C81.0744 52.1867 81.0673 52.5352 81.0528 52.8747C81.0504 52.9302 81.0266 52.9826 80.9863 53.021C80.946 53.0595 80.8924 53.0811 80.8367 53.081ZM80.1235 47.9759C80.0797 47.9759 80.0369 47.9627 80.0008 47.9379C79.9648 47.9131 79.9371 47.878 79.9215 47.8372C79.6172 47.0431 79.2215 46.287 78.7422 45.584C78.7263 45.5606 78.7151 45.5343 78.7094 45.5066C78.7037 45.4788 78.7035 45.4503 78.7088 45.4225C78.7141 45.3947 78.7249 45.3682 78.7405 45.3446C78.7562 45.3209 78.7763 45.3006 78.7998 45.2847C78.8233 45.2688 78.8497 45.2577 78.8775 45.252C78.9053 45.2463 78.934 45.2461 78.9619 45.2514C78.9897 45.2568 79.0163 45.2675 79.04 45.2831C79.0637 45.2986 79.0841 45.3187 79.1001 45.3421C79.598 46.0729 80.0093 46.8588 80.3256 47.684C80.3357 47.7105 80.3404 47.7386 80.3396 47.7669C80.3387 47.7952 80.3323 47.823 80.3207 47.8488C80.309 47.8746 80.2924 47.8979 80.2717 47.9173C80.2511 47.9367 80.2268 47.9519 80.2003 47.9619C80.1758 47.9712 80.1499 47.9758 80.1238 47.9757L80.1235 47.9759ZM64.1534 46.9463C63.8035 46.9638 63.4538 46.9098 63.1256 46.7875C62.7975 46.6653 62.4979 46.4774 62.2454 46.2354C62.2057 46.1942 62.184 46.139 62.1851 46.0819C62.1863 46.0247 62.2101 45.9704 62.2515 45.9308C62.2928 45.8912 62.3482 45.8696 62.4055 45.8708C62.4628 45.8719 62.5173 45.8957 62.557 45.9369C63.0199 46.4166 63.7517 46.6022 64.6921 46.4788L64.8056 46.4631C64.8623 46.455 64.92 46.4697 64.9658 46.504C65.0117 46.5383 65.042 46.5893 65.0501 46.6459C65.0582 46.7024 65.0435 46.7599 65.0091 46.8056C64.9747 46.8513 64.9235 46.8815 64.8668 46.8896L64.7494 46.906C64.5522 46.9323 64.3535 46.9459 64.1545 46.9465L64.1534 46.9463ZM67.3267 46.1641C67.2776 46.1646 67.2298 46.1484 67.1911 46.1182C67.1525 46.088 67.1253 46.0456 67.1141 45.9979C67.1029 45.9503 67.1083 45.9002 67.1294 45.8561C67.1505 45.8119 67.1861 45.7762 67.2303 45.7548C67.9843 45.3961 68.6286 44.8431 69.0964 44.1531C69.1288 44.1075 69.1777 44.0762 69.2328 44.0658C69.2879 44.0555 69.3448 44.0669 69.3917 44.0977C69.4385 44.1284 69.4715 44.1761 69.4837 44.2307C69.4959 44.2852 69.4863 44.3424 69.457 44.39C68.9473 45.1434 68.245 45.7475 67.4226 46.1398C67.3933 46.1551 67.3609 46.1635 67.3278 46.1643L67.3267 46.1641ZM61.9113 43.8564C61.8948 43.8566 61.8783 43.8548 61.8622 43.8511C61.8346 43.8447 61.8085 43.8329 61.7854 43.8165C61.7623 43.8001 61.7426 43.7792 61.7276 43.7552C61.7126 43.7312 61.7024 43.7045 61.6978 43.6766C61.6931 43.6487 61.694 43.6201 61.7004 43.5926C61.9205 42.711 62.3633 41.9003 62.9866 41.2375C63.026 41.1974 63.0794 41.1742 63.1356 41.1728C63.1919 41.1713 63.2464 41.1918 63.2877 41.2298C63.3291 41.2679 63.3539 41.3204 63.3569 41.3764C63.36 41.4324 63.341 41.4874 63.3041 41.5296C62.7315 42.1372 62.3245 42.8806 62.1216 43.6893C62.1107 43.7366 62.0842 43.7789 62.0462 43.8092C62.0082 43.8396 61.9611 43.8563 61.9124 43.8567L61.9113 43.8564ZM77.2364 43.7009C77.1807 43.701 77.1272 43.6795 77.0871 43.641C76.4669 43.0524 75.7932 42.5225 75.0747 42.058C75.0501 42.043 75.0287 42.0232 75.0119 41.9998C74.9951 41.9764 74.9831 41.9499 74.9768 41.9218C74.9704 41.8937 74.9698 41.8647 74.9748 41.8364C74.9799 41.808 74.9907 41.781 75.0064 41.7569C75.0221 41.7328 75.0426 41.712 75.0665 41.6959C75.0904 41.6798 75.1173 41.6686 75.1456 41.663C75.174 41.6574 75.2031 41.6576 75.2314 41.6634C75.2597 41.6692 75.2865 41.6807 75.3102 41.697C76.0511 42.1759 76.7456 42.7225 77.3848 43.3298C77.416 43.3595 77.4376 43.3979 77.4468 43.4399C77.4559 43.482 77.4522 43.5258 77.4361 43.5657C77.4201 43.6056 77.3924 43.6399 77.3566 43.664C77.3209 43.6881 77.2787 43.7009 77.2355 43.7009H77.2364ZM70.1021 42.052C70.0948 42.052 70.0876 42.052 70.0805 42.052C70.0522 42.0491 70.0247 42.0407 69.9997 42.0273C69.9746 42.0138 69.9525 41.9955 69.9345 41.9735C69.9166 41.9515 69.9031 41.9262 69.895 41.899C69.8869 41.8718 69.8843 41.8433 69.8873 41.815C69.9119 41.5688 69.924 41.3215 69.9236 41.074C69.9196 40.4751 69.8612 39.8778 69.749 39.2894C69.7386 39.2332 69.751 39.1752 69.7835 39.1281C69.816 39.0811 69.8659 39.0488 69.9223 39.0384C69.9787 39.0281 70.0369 39.0404 70.0841 39.0728C70.1313 39.1052 70.1637 39.155 70.1741 39.2112C70.2046 39.3771 70.2314 39.5409 70.2545 39.7028C70.28 39.6717 70.3138 39.6483 70.352 39.6354C70.3902 39.6224 70.4313 39.6204 70.4706 39.6295C71.3297 39.8321 72.1695 40.109 72.9804 40.4571C73.0331 40.4796 73.0746 40.5221 73.0959 40.5752C73.1171 40.6282 73.1164 40.6875 73.0938 40.74C73.0711 40.7925 73.0285 40.8339 72.9753 40.8551C72.9221 40.8763 72.8626 40.8756 72.8099 40.853C72.0222 40.5148 71.2064 40.2459 70.3718 40.0491C70.3435 40.0424 70.3169 40.0302 70.2934 40.0132C70.3339 40.3654 70.3546 40.7195 70.3554 41.074C70.3557 41.3359 70.3429 41.5976 70.3169 41.8581C70.3116 41.9112 70.2866 41.9604 70.2469 41.9963C70.2073 42.0321 70.1556 42.0519 70.1021 42.052ZM65.283 40.1482C65.2327 40.1482 65.1839 40.1308 65.1452 40.0988C65.1064 40.0668 65.08 40.0224 65.0706 39.9732C65.0612 39.9239 65.0693 39.8729 65.0935 39.829C65.1178 39.785 65.1567 39.7509 65.2034 39.7325C65.337 39.6799 65.4727 39.6317 65.6069 39.5892C66.3007 39.3825 67.0223 39.2831 67.7463 39.2943H67.8404C67.8977 39.2943 67.9526 39.317 67.9932 39.3574C68.0337 39.3978 68.0565 39.4526 68.0565 39.5097C68.0565 39.5669 68.0337 39.6217 67.9932 39.6621C67.9526 39.7025 67.8977 39.7252 67.8404 39.7252H67.8388H67.7472C67.0679 39.7139 66.3908 39.8065 65.7396 39.9998C65.611 40.0406 65.4857 40.085 65.3638 40.1329C65.3379 40.143 65.3103 40.148 65.2825 40.1476L65.283 40.1482ZM69.2578 36.9654C69.2136 36.9653 69.1704 36.9518 69.1342 36.9266C69.0979 36.9013 69.0703 36.8656 69.0551 36.8243C68.7552 36.0196 68.408 35.2332 68.0154 34.4692C68.0025 34.444 67.9946 34.4165 67.9924 34.3883C67.9901 34.36 67.9934 34.3316 68.0022 34.3047C68.011 34.2778 68.025 34.2528 68.0434 34.2313C68.0618 34.2097 68.0844 34.192 68.1097 34.1792C68.135 34.1663 68.1626 34.1586 68.1909 34.1563C68.2192 34.1541 68.2477 34.1575 68.2747 34.1663C68.3018 34.1751 68.3268 34.1891 68.3483 34.2075C68.3699 34.2259 68.3876 34.2484 68.4005 34.2736C68.801 35.0529 69.155 35.855 69.4607 36.6758C69.4727 36.7084 69.4766 36.7434 69.4721 36.7777C69.4676 36.8121 69.4549 36.8449 69.4349 36.8733C69.415 36.9017 69.3885 36.9249 69.3577 36.941C69.3268 36.957 69.2926 36.9654 69.2578 36.9654ZM66.9133 32.3309C66.8768 32.3309 66.8409 32.3218 66.809 32.3043C66.777 32.2869 66.75 32.2616 66.7304 32.2309C66.2725 31.5117 65.7737 30.7993 65.2484 30.1139C65.2136 30.0685 65.1983 30.0112 65.2059 29.9546C65.2134 29.8979 65.2433 29.8466 65.2888 29.8119C65.3343 29.7772 65.3918 29.7619 65.4487 29.7695C65.5055 29.777 65.557 29.8068 65.5918 29.8522C66.1247 30.5477 66.6306 31.2704 67.0954 31.9998C67.1262 32.048 67.1364 32.1064 67.1239 32.1622C67.1114 32.2179 67.0773 32.2664 67.0289 32.2971C66.9942 32.319 66.9539 32.3305 66.9128 32.3302L66.9133 32.3309ZM63.7484 28.2035C63.7184 28.2035 63.6887 28.1973 63.6612 28.1852C63.6337 28.1732 63.609 28.1555 63.5887 28.1334C63.3246 27.8459 63.0549 27.565 62.7874 27.2981C62.4538 26.9656 62.1024 26.6513 61.7347 26.3566C61.7118 26.3391 61.6926 26.3173 61.6783 26.2923C61.6639 26.2674 61.6548 26.2398 61.6513 26.2113C61.6478 26.1827 61.6501 26.1538 61.658 26.1261C61.6659 26.0985 61.6793 26.0727 61.6974 26.0503C61.7155 26.0279 61.7379 26.0093 61.7633 25.9957C61.7887 25.982 61.8166 25.9736 61.8453 25.9709C61.874 25.9681 61.903 25.9711 61.9305 25.9797C61.958 25.9884 61.9835 26.0024 62.0055 26.0209C62.3854 26.3253 62.7484 26.65 63.093 26.9935C63.365 27.2647 63.6391 27.5503 63.9077 27.8429C63.9359 27.8737 63.9545 27.912 63.9613 27.9532C63.9681 27.9944 63.9627 28.0366 63.9458 28.0748C63.929 28.113 63.9013 28.1455 63.8663 28.1684C63.8312 28.1912 63.7903 28.2034 63.7484 28.2035ZM59.6882 24.9896C59.6537 24.9895 59.6197 24.9812 59.589 24.9655C58.828 24.5748 58.0322 24.2556 57.2119 24.0118C57.1576 23.9949 57.1122 23.9574 57.0856 23.9074C57.0589 23.8573 57.053 23.7988 57.0693 23.7445C57.0856 23.6902 57.1227 23.6445 57.1726 23.6173C57.2224 23.5901 57.2811 23.5836 57.3357 23.5991C58.1822 23.8504 59.0035 24.1796 59.7887 24.5827C59.8318 24.6048 59.8662 24.6408 59.8864 24.6847C59.9065 24.7287 59.9112 24.7782 59.8997 24.8251C59.8883 24.8721 59.8613 24.9139 59.8231 24.9437C59.7849 24.9735 59.7378 24.9897 59.6893 24.9896H59.6882ZM46.969 24.0655C46.9173 24.0655 46.8674 24.0471 46.8282 24.0136C46.789 23.98 46.7631 23.9336 46.7553 23.8828C46.7475 23.8319 46.7582 23.7799 46.7855 23.7362C46.8128 23.6925 46.8549 23.66 46.9041 23.6446C47.752 23.4006 48.6175 23.2218 49.4928 23.1099C49.5214 23.105 49.5507 23.1058 49.579 23.1124C49.6073 23.1189 49.6339 23.1311 49.6574 23.1482C49.6808 23.1652 49.7006 23.1868 49.7155 23.2116C49.7304 23.2365 49.7401 23.2641 49.744 23.2927C49.748 23.3214 49.7461 23.3505 49.7386 23.3785C49.731 23.4064 49.7178 23.4325 49.6999 23.4553C49.6819 23.478 49.6596 23.4969 49.6341 23.5109C49.6087 23.5248 49.5807 23.5335 49.5518 23.5364C48.7007 23.6463 47.859 23.8199 47.034 24.0558C47.0129 24.0623 46.991 24.0655 46.969 24.0655ZM54.7239 23.4875C54.7146 23.4875 54.7052 23.4869 54.696 23.4858C53.8432 23.3779 52.9839 23.3301 52.1244 23.3428H52.1215C52.0642 23.3432 52.0091 23.3208 51.9683 23.2807C51.9275 23.2406 51.9044 23.1859 51.904 23.1288C51.9037 23.0717 51.9261 23.0167 51.9663 22.9761C52.0066 22.9354 52.0614 22.9123 52.1187 22.912C52.9984 22.9007 53.8779 22.9497 54.7509 23.0585C54.8054 23.0654 54.8552 23.0927 54.8902 23.1349C54.9252 23.1771 54.9427 23.231 54.9393 23.2856C54.9359 23.3403 54.9117 23.3916 54.8717 23.4291C54.8316 23.4666 54.7788 23.4875 54.7239 23.4875Z" fill="#1E1E1E"/>
<path d="M145.192 5.44557C144.728 5.5286 144.25 5.47913 143.812 5.30285C143.375 5.12657 142.997 4.83068 142.722 4.44933C142.446 4.06798 142.284 3.61671 142.255 3.14761C142.225 2.6785 142.33 2.21069 142.556 1.79816C142.782 1.38563 143.12 1.04521 143.532 0.81617C143.944 0.587135 144.412 0.478828 144.883 0.503751C145.354 0.528674 145.808 0.68581 146.193 0.957023C146.578 1.22824 146.878 1.60247 147.059 2.03653C147.202 2.38075 147.266 2.75242 147.245 3.12431C147.225 3.49619 147.122 3.85887 146.943 4.18575C146.764 4.51263 146.513 4.79543 146.211 5.01342C145.908 5.23141 145.56 5.37907 145.192 5.44557ZM144.429 1.2266C144.062 1.29293 143.725 1.47091 143.465 1.73603C143.204 2.00114 143.032 2.34032 142.973 2.70682C142.914 3.07332 142.97 3.44909 143.134 3.78233C143.299 4.11557 143.562 4.38988 143.889 4.56744C144.216 4.745 144.591 4.81706 144.96 4.77371C145.33 4.73035 145.678 4.5737 145.954 4.32535C146.231 4.07701 146.424 3.74919 146.506 3.3871C146.588 3.025 146.555 2.64646 146.412 2.30364C146.255 1.92532 145.972 1.61216 145.611 1.41622C145.25 1.22029 144.833 1.15337 144.429 1.2266Z" fill="#292A2E"/>
<path d="M145.176 11.2376C144.544 11.352 143.893 11.2206 143.355 10.8706C142.818 10.5206 142.436 9.9786 142.287 9.35618C142.139 8.73375 142.235 8.07827 142.557 7.52468C142.879 6.97108 143.401 6.5615 144.017 6.38025C144.632 6.19901 145.294 6.25989 145.866 6.55036C146.438 6.84084 146.876 7.3388 147.091 7.94174C147.306 8.54468 147.28 9.2067 147.02 9.79153C146.76 10.3764 146.285 10.8395 145.692 11.0856C145.526 11.1546 145.353 11.2056 145.176 11.2376ZM144.416 7.0178C144.288 7.04089 144.163 7.07757 144.044 7.12723C143.62 7.30318 143.281 7.63409 143.095 8.05188C142.909 8.46967 142.891 8.94256 143.045 9.37325C143.198 9.80395 143.511 10.1597 143.919 10.3673C144.328 10.5749 144.801 10.6186 145.24 10.4893C145.68 10.3601 146.054 10.0678 146.284 9.6725C146.514 9.27723 146.583 8.80908 146.478 8.36437C146.372 7.91966 146.099 7.5322 145.716 7.28173C145.332 7.03125 144.867 6.9368 144.416 7.0178Z" fill="#292A2E"/>
<path d="M148.038 5.96699C148.041 4.75485 146.568 3.76803 144.748 3.76287C142.927 3.7577 141.448 4.73616 141.445 5.9483C141.441 7.16044 142.914 8.14725 144.735 8.15241C146.556 8.15758 148.034 7.17914 148.038 5.96699Z" fill="white"/>
<path d="M145.68 8.41929C145.368 8.47527 145.052 8.50281 144.734 8.50157C143.842 8.51518 142.965 8.2688 142.211 7.79267C141.489 7.30951 141.093 6.65424 141.095 5.94749C141.097 5.24074 141.497 4.58806 142.222 4.10856C142.985 3.65169 143.859 3.41154 144.749 3.41408C145.639 3.41663 146.512 3.66177 147.272 4.12299C147.994 4.60615 148.39 5.26163 148.388 5.96817C148.386 6.67471 147.986 7.32804 147.262 7.8071C146.781 8.11545 146.243 8.3237 145.68 8.41929ZM143.926 4.18352C143.457 4.26217 143.008 4.43457 142.608 4.69037C142.085 5.03675 141.796 5.48393 141.794 5.94986C141.793 6.41579 142.079 6.86491 142.6 7.21387C143.246 7.59806 143.983 7.80194 144.735 7.8041C145.487 7.80626 146.226 7.60663 146.874 7.22615C147.397 6.87977 147.686 6.43259 147.687 5.96666C147.688 5.50074 147.402 5.05183 146.881 4.70265C146.242 4.30349 145.5 4.09854 144.746 4.11287C144.471 4.11158 144.196 4.13523 143.926 4.18352Z" fill="#292A2E"/>
<path d="M143.941 3.82719L144.003 8.09548L145.068 8.14244L145.158 3.78174L143.941 3.82719Z" fill="#292A2E"/>
<path d="M148.845 7.53815C149.033 7.53815 149.185 7.38626 149.185 7.19889C149.185 7.01151 149.033 6.85962 148.845 6.85962C148.657 6.85962 148.505 7.01151 148.505 7.19889C148.505 7.38626 148.657 7.53815 148.845 7.53815Z" fill="#292A2E"/>
<path d="M149.117 5.72394C149.305 5.72394 149.458 5.57205 149.458 5.38468C149.458 5.19731 149.305 5.04541 149.117 5.04541C148.929 5.04541 148.777 5.19731 148.777 5.38468C148.777 5.57205 148.929 5.72394 149.117 5.72394Z" fill="#292A2E"/>
<path d="M98.1074 55.2854C98.0688 55.2855 98.0308 55.2752 97.9975 55.2556C97.9643 55.2361 97.9368 55.208 97.9181 55.1743C97.5113 54.3939 97.1619 53.5852 96.8726 52.7544C96.8531 52.7007 96.8558 52.6414 96.8802 52.5897C96.9045 52.538 96.9485 52.498 97.0024 52.4786C97.0563 52.4591 97.1157 52.4619 97.1676 52.4861C97.2195 52.5104 97.2596 52.5542 97.2791 52.6079C97.5619 53.4168 97.9018 54.2047 98.2963 54.9658C98.3145 54.9985 98.3238 55.0355 98.3233 55.0729C98.3228 55.1104 98.3125 55.1471 98.2934 55.1793C98.2743 55.2116 98.2471 55.2384 98.2145 55.257C98.1819 55.2756 98.145 55.2854 98.1074 55.2854ZM96.3081 50.4121C96.2602 50.412 96.2137 50.3962 96.1758 50.3669C96.138 50.3377 96.1109 50.2967 96.0989 50.2505C95.8828 49.4128 95.6985 48.5512 95.5544 47.6891C95.545 47.6327 95.5584 47.575 95.5917 47.5285C95.6251 47.482 95.6756 47.4506 95.7321 47.4413C95.7887 47.4319 95.8466 47.4453 95.8932 47.4785C95.9399 47.5118 95.9713 47.5621 95.9807 47.6184C96.1229 48.468 96.3034 49.3171 96.5175 50.1428C96.5319 50.1981 96.5236 50.2568 96.4945 50.306C96.4654 50.3552 96.4179 50.3909 96.3624 50.4052C96.3447 50.4098 96.3264 50.4121 96.3081 50.4121ZM95.4498 45.2901C95.3953 45.2903 95.3428 45.2699 95.3027 45.2331C95.2626 45.1964 95.238 45.1458 95.2337 45.0917C95.1708 44.2973 95.1388 43.4908 95.1388 42.6947V42.4762C95.1392 42.4191 95.1623 42.3645 95.2032 42.3244C95.244 42.2843 95.2991 42.2619 95.3564 42.2623C95.4137 42.2627 95.4685 42.2858 95.5088 42.3265C95.549 42.3672 95.5714 42.4221 95.571 42.4793V42.6947C95.571 43.4796 95.6026 44.2747 95.6646 45.0577C95.6691 45.1146 95.6508 45.171 95.6136 45.2145C95.5765 45.2579 95.5235 45.2849 95.4664 45.2895C95.4612 45.2899 95.4557 45.2901 95.4498 45.2901ZM95.4878 40.0988C95.4809 40.0988 95.4742 40.0988 95.4662 40.0988C95.4092 40.0933 95.3567 40.0656 95.3203 40.0216C95.2838 39.9776 95.2663 39.921 95.2717 39.8642C95.3527 39.0004 95.4727 38.128 95.6281 37.2716C95.6323 37.243 95.6422 37.2156 95.6573 37.1909C95.6724 37.1663 95.6923 37.1449 95.7158 37.1281C95.7394 37.1112 95.7661 37.0993 95.7943 37.0929C95.8226 37.0866 95.8518 37.086 95.8803 37.0911C95.9088 37.0962 95.936 37.107 95.9602 37.1229C95.9845 37.1387 96.0053 37.1592 96.0214 37.1832C96.0375 37.2072 96.0486 37.2341 96.0541 37.2625C96.0595 37.2909 96.0592 37.32 96.0531 37.3483C95.9001 38.1927 95.7819 39.0526 95.702 39.9043C95.6966 39.9572 95.6717 40.0063 95.6322 40.0421C95.5926 40.0778 95.5412 40.0977 95.4878 40.0979V40.0988ZM96.4121 34.9893C96.3931 34.9894 96.3742 34.987 96.3559 34.982C96.3285 34.9747 96.3028 34.9621 96.2803 34.9448C96.2577 34.9276 96.2389 34.9061 96.2247 34.8816C96.2105 34.8571 96.2013 34.8301 96.1976 34.802C96.1939 34.774 96.1958 34.7455 96.2031 34.7181C96.4276 33.8854 96.6913 33.0455 96.9871 32.2216C96.9966 32.1949 97.0113 32.1703 97.0304 32.1492C97.0494 32.1282 97.0725 32.1111 97.0982 32.099C97.1238 32.0868 97.1517 32.0798 97.1801 32.0784C97.2085 32.077 97.2369 32.0812 97.2636 32.0908C97.2904 32.1003 97.315 32.115 97.3361 32.1341C97.3571 32.1531 97.3742 32.1761 97.3863 32.2018C97.3984 32.2274 97.4054 32.2552 97.4067 32.2835C97.408 32.3118 97.4037 32.3401 97.3941 32.3667C97.1021 33.1797 96.8419 34.0086 96.6206 34.8299C96.6081 34.8755 96.5809 34.9157 96.5432 34.9443C96.5056 34.973 96.4595 34.9885 96.4121 34.9885V34.9893ZM98.164 30.0996C98.1336 30.0996 98.1036 30.0931 98.0759 30.0806C98.0237 30.0571 97.9831 30.014 97.9628 29.9606C97.9426 29.9073 97.9444 29.8481 97.9678 29.7961C98.1444 29.4032 98.3322 29.0053 98.526 28.6144C98.7199 28.2234 98.9265 27.8318 99.1398 27.4537C99.1679 27.4039 99.2147 27.3673 99.2699 27.3519C99.3251 27.3365 99.3842 27.3435 99.4342 27.3716C99.4842 27.3996 99.5209 27.4463 99.5364 27.5013C99.5519 27.5563 99.5448 27.6152 99.5166 27.6651C99.307 28.0362 99.1043 28.419 98.9135 28.805C98.7227 29.191 98.5368 29.5841 98.362 29.9723C98.3447 30.0101 98.3169 30.0422 98.2817 30.0646C98.2466 30.087 98.2057 30.0988 98.164 30.0985V30.0996ZM121.088 28.6262C121.033 28.6261 120.98 28.6052 120.94 28.5678C120.901 28.5305 120.876 28.4794 120.873 28.4249C120.869 28.3705 120.886 28.3167 120.921 28.2744C120.956 28.2322 121.005 28.2046 121.059 28.1973C121.872 28.0896 122.451 27.6039 122.78 26.7524C122.79 26.7254 122.805 26.7006 122.825 26.6796C122.844 26.6585 122.868 26.6415 122.894 26.6296C122.92 26.6177 122.948 26.6111 122.977 26.6103C123.006 26.6095 123.034 26.6144 123.061 26.6247C123.088 26.635 123.113 26.6506 123.133 26.6705C123.154 26.6904 123.171 26.7143 123.182 26.7406C123.193 26.767 123.199 26.7954 123.199 26.824C123.2 26.8527 123.194 26.8812 123.183 26.9077C122.798 27.9031 122.083 28.4967 121.117 28.6245C121.107 28.6253 121.097 28.6255 121.088 28.6251V28.6262ZM118.575 28.0825C118.543 28.0827 118.51 28.0753 118.481 28.061C117.686 27.6624 116.946 27.1628 116.28 26.5747C116.259 26.5561 116.241 26.5335 116.229 26.5082C116.216 26.4828 116.208 26.4553 116.207 26.427C116.205 26.3988 116.208 26.3705 116.217 26.3436C116.226 26.3168 116.24 26.292 116.259 26.2706C116.278 26.2493 116.3 26.2318 116.326 26.2191C116.351 26.2065 116.379 26.199 116.407 26.197C116.435 26.1951 116.464 26.1987 116.491 26.2077C116.518 26.2166 116.543 26.2308 116.564 26.2494C117.201 26.8133 117.91 27.2923 118.671 27.6743C118.715 27.6956 118.75 27.7312 118.771 27.7753C118.793 27.8194 118.798 27.8693 118.787 27.9169C118.776 27.9645 118.749 28.0069 118.71 28.0372C118.672 28.0675 118.624 28.0838 118.575 28.0836V28.0825ZM100.731 25.587C100.691 25.587 100.652 25.576 100.618 25.5553C100.584 25.5345 100.557 25.5048 100.539 25.4694C100.521 25.4341 100.513 25.3944 100.516 25.3548C100.519 25.3153 100.533 25.2773 100.556 25.2452C101.071 24.5363 101.63 23.8597 102.228 23.2191C102.268 23.1787 102.321 23.1553 102.378 23.1539C102.434 23.1525 102.489 23.1733 102.53 23.2116C102.572 23.25 102.596 23.303 102.599 23.3593C102.601 23.4156 102.582 23.4706 102.544 23.5127C101.958 24.1404 101.411 24.8035 100.906 25.4981C100.886 25.5254 100.86 25.5476 100.829 25.5629C100.799 25.5782 100.765 25.5861 100.731 25.5859V25.587ZM114.635 24.7379C114.602 24.7379 114.569 24.7304 114.54 24.716C114.51 24.7016 114.484 24.6807 114.464 24.6547C113.92 23.9601 113.444 23.2148 113.043 22.4294C113.029 22.404 113.021 22.3762 113.018 22.3475C113.015 22.3188 113.018 22.2898 113.027 22.2622C113.036 22.2347 113.05 22.2092 113.068 22.1872C113.087 22.1652 113.11 22.1472 113.136 22.1342C113.162 22.1212 113.19 22.1135 113.219 22.1116C113.248 22.1097 113.277 22.1136 113.304 22.123C113.331 22.1325 113.356 22.1473 113.378 22.1666C113.399 22.1859 113.417 22.2094 113.429 22.2355C113.817 22.9963 114.278 23.718 114.805 24.3909C114.83 24.4227 114.845 24.4608 114.85 24.5009C114.854 24.5411 114.847 24.5815 114.829 24.6178C114.811 24.6541 114.783 24.6846 114.749 24.706C114.715 24.7274 114.675 24.7387 114.635 24.7388V24.7379ZM123.295 24.485C123.239 24.4851 123.186 24.4642 123.146 24.4265C123.106 24.3888 123.082 24.3372 123.079 24.2823C123.035 23.4425 122.828 22.6192 122.47 21.8581C122.455 21.8324 122.446 21.804 122.443 21.7746C122.44 21.7453 122.443 21.7156 122.452 21.6874C122.46 21.6592 122.475 21.6332 122.494 21.6109C122.514 21.5886 122.538 21.5705 122.564 21.5578C122.591 21.545 122.62 21.5379 122.65 21.5368C122.679 21.5358 122.709 21.5408 122.737 21.5515C122.764 21.5623 122.789 21.5786 122.81 21.5995C122.831 21.6203 122.848 21.6452 122.859 21.6726C123.242 22.4834 123.463 23.3607 123.51 24.2556C123.514 24.3126 123.494 24.3686 123.456 24.4114C123.418 24.4541 123.365 24.4801 123.307 24.4835L123.295 24.485ZM104.284 21.8019C104.239 21.802 104.196 21.7883 104.159 21.7627C104.123 21.7372 104.095 21.701 104.08 21.6592C104.065 21.6174 104.063 21.5719 104.075 21.5291C104.087 21.4863 104.112 21.4482 104.146 21.42C104.825 20.8628 105.542 20.3531 106.292 19.8945C106.316 19.8774 106.343 19.8654 106.372 19.8593C106.401 19.8531 106.431 19.853 106.46 19.8589C106.489 19.8648 106.516 19.8765 106.541 19.8935C106.565 19.9104 106.585 19.9321 106.601 19.9572C106.616 19.9823 106.627 20.0104 106.631 20.0396C106.635 20.0688 106.633 20.0985 106.625 20.127C106.617 20.1554 106.604 20.182 106.585 20.205C106.567 20.228 106.544 20.2469 106.517 20.2607C105.785 20.7088 105.084 21.207 104.421 21.7517C104.383 21.7836 104.334 21.8009 104.284 21.8008V21.8019ZM112.32 20.1189C112.272 20.1189 112.225 20.1027 112.187 20.0731C112.149 20.0434 112.122 20.0019 112.111 19.9552C111.923 19.2089 111.827 18.4426 111.824 17.6732C111.824 17.5554 111.826 17.4375 111.831 17.3195C111.832 17.2911 111.838 17.2632 111.85 17.2373C111.862 17.2115 111.879 17.1882 111.9 17.169C111.921 17.1497 111.945 17.1348 111.972 17.1252C111.999 17.1156 112.027 17.1114 112.056 17.1129C112.113 17.1152 112.167 17.1401 112.206 17.182C112.245 17.224 112.265 17.2796 112.263 17.3367C112.259 17.449 112.256 17.5612 112.256 17.6732C112.259 18.4078 112.351 19.1394 112.53 19.852C112.544 19.9075 112.535 19.9661 112.506 20.015C112.476 20.0639 112.428 20.099 112.372 20.1127C112.355 20.1166 112.338 20.1183 112.32 20.1178V20.1189ZM121.094 19.9306C121.042 19.9306 120.991 19.9117 120.952 19.8772C120.311 19.3255 119.582 18.8842 118.796 18.5714C118.769 18.5607 118.745 18.545 118.725 18.5251C118.705 18.5052 118.689 18.4815 118.678 18.4554C118.667 18.4293 118.661 18.4014 118.661 18.3731C118.661 18.3448 118.666 18.3167 118.677 18.2905C118.688 18.2643 118.704 18.2405 118.724 18.2204C118.744 18.2003 118.767 18.1843 118.794 18.1733C118.82 18.1624 118.848 18.1567 118.876 18.1565C118.905 18.1564 118.933 18.1618 118.959 18.1725C119.79 18.5032 120.56 18.9699 121.237 19.5533C121.27 19.5821 121.293 19.6204 121.304 19.6629C121.315 19.7054 121.312 19.7502 121.297 19.7912C121.281 19.8322 121.254 19.8675 121.217 19.8924C121.181 19.9174 121.138 19.9307 121.094 19.9306ZM108.719 19.102C108.669 19.102 108.621 19.0848 108.582 19.0534C108.543 19.022 108.517 18.9783 108.507 18.9297C108.497 18.881 108.504 18.8304 108.527 18.7865C108.55 18.7425 108.588 18.7079 108.634 18.6884C109.444 18.3433 110.28 18.0624 111.135 17.8483C111.19 17.8355 111.248 17.8449 111.296 17.8744C111.345 17.9039 111.379 17.9511 111.393 18.0059C111.407 18.0607 111.398 18.1187 111.37 18.1674C111.341 18.2161 111.294 18.2516 111.239 18.2662C110.407 18.4749 109.592 18.7486 108.803 19.0847C108.776 19.0957 108.748 19.1012 108.719 19.1009L108.719 19.102ZM116.361 17.9343C116.351 17.9342 116.341 17.9336 116.332 17.9323C115.796 17.8616 115.256 17.8265 114.715 17.8272C114.402 17.8272 114.091 17.838 113.774 17.8604C113.745 17.8633 113.716 17.8605 113.688 17.852C113.66 17.8436 113.635 17.8296 113.612 17.811C113.59 17.7924 113.572 17.7696 113.559 17.7439C113.546 17.7181 113.538 17.69 113.536 17.6612C113.534 17.6324 113.538 17.6034 113.547 17.5761C113.557 17.5488 113.571 17.5237 113.591 17.5022C113.61 17.4807 113.634 17.4633 113.66 17.451C113.686 17.4388 113.715 17.4319 113.743 17.4308C114.071 17.4074 114.392 17.3932 114.716 17.3964C115.276 17.3957 115.835 17.4321 116.39 17.5054C116.444 17.5127 116.493 17.5403 116.528 17.5825C116.563 17.6248 116.58 17.6786 116.576 17.7331C116.573 17.7876 116.549 17.8386 116.509 17.876C116.469 17.9133 116.416 17.9342 116.361 17.9343H116.361ZM112.568 15.0077C112.533 15.0077 112.498 14.9992 112.467 14.9829C112.436 14.9666 112.41 14.9431 112.39 14.9142C112.37 14.8854 112.358 14.8522 112.354 14.8175C112.349 14.7828 112.354 14.7476 112.366 14.715C112.463 14.4627 112.575 14.2103 112.699 13.9647C112.973 13.4215 113.275 12.8931 113.605 12.3817C113.636 12.334 113.685 12.3006 113.74 12.2887C113.796 12.2768 113.854 12.2874 113.902 12.3182C113.95 12.349 113.984 12.3974 113.997 12.453C114.009 12.5086 113.999 12.5667 113.968 12.6148C113.647 13.1132 113.352 13.6283 113.085 14.1577C112.968 14.3908 112.862 14.6303 112.77 14.8686C112.754 14.9094 112.727 14.9446 112.691 14.9695C112.655 14.9943 112.612 15.0077 112.568 15.0077ZM115.352 10.6382C115.31 10.6382 115.27 10.6263 115.235 10.6039C115.2 10.5815 115.172 10.5496 115.155 10.512C115.138 10.4744 115.132 10.4326 115.138 10.3917C115.144 10.3508 115.162 10.3124 115.189 10.2813C115.768 9.62151 116.39 9.00125 117.052 8.42467C117.096 8.38705 117.152 8.36812 117.21 8.37204C117.267 8.37595 117.32 8.4024 117.358 8.44556C117.396 8.48873 117.415 8.54506 117.411 8.60218C117.407 8.65931 117.38 8.71253 117.337 8.75015C116.689 9.31367 116.081 9.92021 115.515 10.5656C115.494 10.5886 115.469 10.6069 115.441 10.6194C115.413 10.632 115.383 10.6384 115.352 10.6382ZM119.261 7.21861C119.215 7.21862 119.17 7.20384 119.133 7.17644C119.096 7.14904 119.068 7.11047 119.055 7.0664C119.041 7.02232 119.042 6.97507 119.057 6.93159C119.073 6.88811 119.102 6.85069 119.14 6.82484C119.868 6.33537 120.623 5.88781 121.402 5.48436C121.427 5.47041 121.455 5.46164 121.484 5.45856C121.513 5.45549 121.542 5.45817 121.569 5.46645C121.597 5.47473 121.623 5.48843 121.645 5.50677C121.667 5.5251 121.685 5.54768 121.699 5.57318C121.712 5.59869 121.72 5.62659 121.722 5.65526C121.725 5.68392 121.721 5.71276 121.712 5.74008C121.703 5.76739 121.689 5.79263 121.67 5.81431C121.651 5.83598 121.628 5.85365 121.602 5.86628C120.837 6.26236 120.096 6.70157 119.382 7.18177C119.346 7.20577 119.304 7.21859 119.261 7.21861ZM123.877 4.81746C123.827 4.81749 123.778 4.79995 123.739 4.76787C123.7 4.7358 123.674 4.69121 123.665 4.64183C123.655 4.59245 123.664 4.54137 123.688 4.49745C123.713 4.45352 123.752 4.41951 123.799 4.40129C124.616 4.08367 125.449 3.80872 126.295 3.57758C126.35 3.56252 126.409 3.56999 126.459 3.59832C126.509 3.62666 126.545 3.67356 126.56 3.72869C126.575 3.78382 126.568 3.84267 126.539 3.89229C126.511 3.94192 126.464 3.97826 126.409 3.99331C125.577 4.22025 124.758 4.49045 123.955 4.80281C123.93 4.8125 123.904 4.81747 123.877 4.81746ZM136.536 3.64285C136.517 3.64284 136.499 3.6406 136.481 3.63617C135.693 3.4367 134.889 3.30126 134.079 3.2312C134.05 3.22866 134.023 3.22059 133.998 3.20745C133.973 3.19432 133.95 3.17638 133.932 3.15465C133.914 3.13293 133.9 3.10785 133.892 3.08085C133.883 3.05384 133.88 3.02544 133.883 2.99727C133.885 2.9691 133.894 2.9417 133.907 2.91664C133.92 2.89159 133.938 2.86936 133.96 2.85124C133.982 2.83312 134.007 2.81945 134.034 2.81102C134.061 2.80259 134.089 2.79957 134.118 2.80211C134.951 2.87444 135.778 3.01376 136.589 3.21871C136.64 3.23168 136.685 3.26281 136.715 3.30622C136.744 3.34964 136.757 3.40236 136.75 3.45446C136.744 3.50657 136.718 3.55447 136.679 3.58917C136.639 3.62386 136.588 3.64295 136.536 3.64285ZM128.9 3.44898C128.845 3.44929 128.792 3.42904 128.752 3.39229C128.712 3.35555 128.687 3.30503 128.683 3.25086C128.679 3.19668 128.695 3.14286 128.729 3.10019C128.762 3.05751 128.811 3.02914 128.865 3.02075C129.732 2.8802 130.606 2.78957 131.483 2.74934C131.511 2.7478 131.54 2.75192 131.567 2.76147C131.593 2.77101 131.618 2.78578 131.639 2.80491C131.66 2.82404 131.677 2.84715 131.689 2.87289C131.701 2.89864 131.707 2.92649 131.708 2.95483C131.71 2.98309 131.705 3.01133 131.696 3.03792C131.686 3.06452 131.671 3.08896 131.652 3.10984C131.633 3.13072 131.61 3.14764 131.584 3.15963C131.558 3.17162 131.531 3.17845 131.502 3.17972C130.642 3.21916 129.784 3.30813 128.934 3.44618C128.923 3.44769 128.911 3.44826 128.9 3.4479V3.44898Z" fill="#1E1E1E"/>
</g>
<defs>
<clipPath id="clip0_318_2113">
<rect width="182" height="200" fill="white" transform="translate(0.5 0.5)"/>
</clipPath>
</defs>
</svg>
