<svg width="189" height="173" viewBox="0 0 189 173" fill="none" xmlns="http://www.w3.org/2000/svg">
<path d="M117.193 79.3376C107.925 79.3376 98.5144 78.963 89.7005 76.5167C81.0525 74.1256 73.1122 69.4865 66.0346 64.1202C61.3899 60.6272 57.1875 57.8393 51.1605 58.258C45.2742 58.5832 39.6487 60.7852 35.1141 64.5389C27.4504 71.2165 28.6115 83.5689 31.6638 92.252C36.2753 105.332 50.2647 114.422 62.1751 120.34C75.9212 127.183 91.0165 131.127 106.167 133.441C119.438 135.458 136.479 136.912 147.98 128.284C158.553 120.351 161.45 102.224 158.862 89.9931C158.231 86.3785 156.296 83.1183 153.421 80.8252C146.001 75.4148 134.931 79.0291 126.593 79.2054C123.496 79.3376 120.356 79.3376 117.193 79.3376Z" fill="#E6F2FF"/>
<path d="M94.5332 154.885C116.954 154.885 135.13 153.755 135.13 152.361C135.13 150.968 116.954 149.838 94.5332 149.838C72.1121 149.838 53.9362 150.968 53.9362 152.361C53.9362 153.755 72.1121 154.885 94.5332 154.885Z" fill="#E6F2FF"/>
<path d="M69.6619 42.148C69.2732 40.1054 69.7141 37.9926 70.8877 36.2736C72.0613 34.5546 73.8717 33.3701 75.9212 32.9801H76.1092C78.1592 32.5928 80.2796 33.0321 82.0048 34.2015C83.73 35.3709 84.9188 37.1748 85.3101 39.217L69.6619 42.148Z" fill="#6BB2FF"/>
<path d="M51.6969 45.5482L103.27 35.7826C105.777 35.3079 108.37 35.8449 110.48 37.2755C112.589 38.7061 114.042 40.9131 114.518 43.4109L44.052 56.754C43.576 54.2581 44.1137 51.6759 45.5472 49.5748C46.9806 47.4736 49.1925 46.0254 51.6969 45.5482Z" fill="white" stroke="#2B91FF" stroke-linecap="round" stroke-linejoin="round"/>
<path d="M40.1791 57.4759L118.376 42.6772" stroke="#2B91FF" stroke-linecap="round" stroke-linejoin="round"/>
<path d="M146.764 118.742L108.5 145.122C107.473 145.821 106.218 146.107 104.988 145.923C103.757 145.74 102.642 145.099 101.865 144.13L59.2334 90.6104L112.924 53.5972L148.191 112.153C148.835 113.227 149.047 114.505 148.782 115.728C148.517 116.951 147.796 118.029 146.764 118.742Z" fill="white" stroke="#2B91FF" stroke-linecap="round" stroke-linejoin="round"/>
<path d="M53.0405 94.8853L119.117 49.3213" stroke="#2B91FF" stroke-linecap="round" stroke-linejoin="round"/>
<path d="M83.4564 80.2263L83.4474 80.2327C82.581 80.8563 82.3859 82.0617 83.0117 82.925L117.434 130.411C118.06 131.275 119.269 131.469 120.136 130.845L120.145 130.839C121.011 130.215 121.206 129.01 120.581 128.147L86.1584 80.6604C85.5326 79.7971 84.3228 79.6027 83.4564 80.2263Z" fill="#6BB2FF"/>
<path d="M129.561 124.473L129.57 124.467C130.457 123.882 130.7 122.69 130.112 121.806L97.7784 73.1868C97.1905 72.3029 95.9948 72.0611 95.1077 72.6469L95.0985 72.6529C94.2114 73.2387 93.9688 74.4301 94.5566 75.3141L126.89 123.933C127.478 124.817 128.674 125.059 129.561 124.473Z" fill="#6BB2FF"/>
<path d="M105.287 65.2215L105.277 65.2273C104.369 65.7883 104.089 66.977 104.652 67.8822L135.622 117.672C136.185 118.577 137.378 118.857 138.287 118.295L138.296 118.29C139.204 117.729 139.485 116.54 138.921 115.635L107.951 65.8447C107.388 64.9395 106.195 64.6604 105.287 65.2215Z" fill="#6BB2FF"/>
<path d="M110.949 137.12L110.957 137.113C111.805 136.464 111.963 135.253 111.311 134.409L75.466 87.98C74.8143 87.1358 73.5993 86.9779 72.7521 87.6273L72.7433 87.634C71.8962 88.2834 71.7377 89.4941 72.3894 90.3382L108.235 136.767C108.886 137.611 110.101 137.769 110.949 137.12Z" fill="#6BB2FF"/>
<path d="M125.719 54.9854C126.318 54.9854 126.803 54.502 126.803 53.9056C126.803 53.3092 126.318 52.8257 125.719 52.8257C125.121 52.8257 124.635 53.3092 124.635 53.9056C124.635 54.502 125.121 54.9854 125.719 54.9854Z" fill="#96C8FF"/>
<path d="M40.9421 48.9356C41.5407 48.9356 42.0259 48.4521 42.0259 47.8558C42.0259 47.2594 41.5407 46.7759 40.9421 46.7759C40.3436 46.7759 39.8584 47.2594 39.8584 47.8558C39.8584 48.4521 40.3436 48.9356 40.9421 48.9356Z" fill="#96C8FF"/>
<path d="M127.71 140.615C128.308 140.615 128.793 140.131 128.793 139.535C128.793 138.939 128.308 138.455 127.71 138.455C127.111 138.455 126.626 138.939 126.626 139.535C126.626 140.131 127.111 140.615 127.71 140.615Z" fill="#96C8FF"/>
<path d="M81.8266 58.3682V63.1064" stroke="#2B91FF" stroke-linecap="round" stroke-linejoin="round"/>
<path d="M79.4489 60.7373H84.2153" stroke="#2B91FF" stroke-linecap="round" stroke-linejoin="round"/>
<path d="M65.8466 123.866V128.604" stroke="#2B91FF" stroke-linecap="round" stroke-linejoin="round"/>
<path d="M63.4579 126.235H68.2242" stroke="#2B91FF" stroke-linecap="round" stroke-linejoin="round"/>
<path d="M132.741 67.9106V72.6599" stroke="#2B91FF" stroke-linecap="round" stroke-linejoin="round"/>
<path d="M130.364 70.291H135.119" stroke="#2B91FF" stroke-linecap="round" stroke-linejoin="round"/>
</svg>
