<svg width="284" height="243" viewBox="0 0 284 243" fill="none" xmlns="http://www.w3.org/2000/svg">
<g clip-path="url(#clip0_267_1847)">
<path opacity="0.1" d="M282.698 167.541C274.941 128.284 229.497 96.9107 220.633 55.9999C204.524 3.95289 151.426 -4.27585 116.921 18.3281C62.2495 54.1445 120.573 63.0321 13.3793 147.771C-13.0893 168.696 -4.65522 261.058 78.6133 239.861C123.425 228.454 137.047 226.853 157.204 224.975C208.009 220.241 295.719 233.439 282.698 167.54V167.541Z" fill="#367CFF"/>
<path d="M222.005 177.38L143.48 219.004L65.0747 177.38V114.526H222.005V177.38Z" fill="white"/>
<path d="M143.481 219.642C143.378 219.642 143.276 219.618 143.183 219.568L64.7776 177.944C64.5695 177.834 64.4387 177.616 64.4387 177.38V114.527C64.4387 114.174 64.7237 113.888 65.0748 113.888H222.005C222.356 113.888 222.641 114.174 222.641 114.527V177.38C222.641 177.617 222.511 177.835 222.302 177.945L143.778 219.568C143.685 219.618 143.583 219.642 143.481 219.642ZM65.7109 176.996L143.481 218.282L221.369 176.995V115.165H65.7109V176.996Z" fill="#262626"/>
<path d="M222.005 101.038L143.481 59.415L178.767 42.3452L257.291 83.969L222.005 101.038Z" fill="white"/>
<path d="M222.005 101.677C221.903 101.677 221.801 101.652 221.708 101.603L143.183 59.9795C142.971 59.8666 142.841 59.644 142.845 59.4029C142.849 59.1623 142.988 58.9448 143.204 58.8396L178.49 41.7697C178.672 41.6814 178.885 41.685 179.064 41.7805L257.588 83.4037C257.8 83.5166 257.931 83.7393 257.927 83.9803C257.922 84.2209 257.783 84.4384 257.567 84.5436L222.281 101.613C222.194 101.656 222.1 101.677 222.005 101.677ZM144.892 59.4412L222.018 100.323L255.88 83.943L178.753 43.0608L144.892 59.4412Z" fill="#262626"/>
<path d="M65.0749 101.039L143.599 59.4153L108.313 42.3455L29.7891 83.9692L65.0749 101.039Z" fill="white"/>
<path d="M65.0748 101.677C64.9802 101.677 64.8861 101.656 64.7985 101.614L29.5127 84.5437C29.2964 84.439 29.1575 84.2209 29.1529 83.9804C29.1489 83.7393 29.2796 83.5166 29.4918 83.4038L108.016 41.7805C108.195 41.685 108.407 41.6819 108.59 41.7698L143.876 58.8396C144.092 58.9443 144.231 59.1624 144.235 59.4029C144.239 59.644 144.109 59.8667 143.896 59.9795L65.372 101.603C65.2789 101.652 65.1771 101.677 65.0748 101.677ZM31.2001 83.9426L65.0616 100.323L142.188 59.4407L108.327 43.0604L31.2001 83.9431V83.9426Z" fill="#262626"/>
<path d="M65.0748 101.038L143.599 142.662L103.225 164.838L24.7002 123.215L65.0748 101.038Z" fill="white"/>
<path d="M103.225 165.477C103.122 165.477 103.021 165.452 102.927 165.403L24.4031 123.78C24.196 123.67 24.0657 123.455 24.0642 123.219C24.0627 122.984 24.1894 122.767 24.395 122.655L64.7696 100.478C64.9573 100.375 65.1828 100.373 65.3721 100.473L143.896 142.097C144.104 142.206 144.234 142.421 144.235 142.657C144.237 142.892 144.11 143.109 143.905 143.221L103.53 165.398C103.435 165.451 103.329 165.477 103.225 165.477ZM26.0437 123.205L103.22 164.114L142.256 142.672L65.0805 101.763L26.0437 123.205Z" fill="#262626"/>
<path d="M222.005 101.038L143.481 142.662L183.855 164.838L262.38 123.215L222.005 101.038Z" fill="white"/>
<path d="M183.855 165.477C183.75 165.477 183.645 165.451 183.55 165.399L143.175 143.222C142.97 143.109 142.843 142.892 142.844 142.657C142.846 142.422 142.976 142.207 143.183 142.097L221.708 100.474C221.897 100.374 222.123 100.375 222.31 100.478L262.685 122.655C262.89 122.768 263.017 122.985 263.016 123.22C263.014 123.455 262.884 123.67 262.677 123.78L184.152 165.403C184.059 165.453 183.957 165.477 183.855 165.477V165.477ZM144.824 142.672L183.86 164.114L261.036 123.205L221.999 101.763L144.824 142.672Z" fill="#262626"/>
<path d="M143.599 59.415L65.075 101.038L143.481 142.662L222.005 101.038L143.599 59.415Z" fill="#007AFF"/>
<path d="M144.117 142.662H142.844V219.004H144.117V142.662Z" fill="#262626"/>
<path d="M99.4832 97.2597C99.3819 97.2597 99.2792 97.229 99.1896 97.1652C98.9606 97.0023 98.9062 96.6836 99.069 96.4532C99.1631 96.3194 108.36 82.9753 98.093 70.8104C93.8805 65.8192 88.1816 63.907 83.2868 63.907C83.2415 63.907 83.1957 63.907 83.1509 63.907C84.1259 67.3064 83.9519 70.3288 82.5713 72.6475C81.2665 74.8395 78.9379 76.1276 76.6271 75.9263C74.5901 75.7496 72.9805 74.4927 72.2106 72.4779C71.0814 69.5219 72.2635 66.6547 75.3717 64.8085C77.0363 63.8197 79.2728 63.1517 81.778 62.9596C81.1403 61.2028 80.1933 59.3443 78.9461 57.4331C75.2389 51.7509 68.4826 47.8173 60.4083 46.6411C53.5665 45.6442 47.0091 46.8183 43.701 49.6303C43.4852 49.8132 43.1641 49.7851 42.984 49.5706C42.8023 49.3556 42.8288 49.0328 43.043 48.8505C46.5639 45.8576 53.4372 44.5931 60.5544 45.6304C68.9172 46.8484 75.9305 50.9465 79.7974 56.8734C81.1546 58.9536 82.1703 60.9837 82.8344 62.9076C88.0992 62.784 94.3187 64.7589 98.8685 70.1496C109.653 82.9278 99.9972 96.9042 99.8979 97.0436C99.7987 97.1836 99.642 97.2586 99.4827 97.2586L99.4832 97.2597ZM82.1067 63.9453C79.6717 64.1011 77.4963 64.7349 75.8908 65.6889C73.206 67.2839 72.2116 69.6256 73.1617 72.1138C73.7866 73.7491 75.0817 74.7685 76.7157 74.9105C78.6296 75.0765 80.5913 73.9836 81.6981 72.125C82.9662 69.9953 83.0827 67.1644 82.1067 63.9453Z" fill="#292A2E"/>
<path d="M34.9173 57.8667C34.1622 58.0944 33.3582 58.0572 32.6177 57.7533C31.7628 57.4019 31.0947 56.738 30.7375 55.8825C30.3797 55.0271 30.3756 54.0832 30.7252 53.2247C31.0753 52.3667 31.7369 51.6961 32.5892 51.3371C34.3454 50.5986 36.3804 51.43 37.1177 53.1956C37.8556 54.9617 37.0246 57.0005 35.2654 57.741C35.1509 57.789 35.0349 57.8309 34.9173 57.8667ZM33.2253 52.1915C33.1434 52.216 33.0625 52.2452 32.9821 52.2794C32.3806 52.5327 31.9135 53.0056 31.6667 53.6113C31.4199 54.2176 31.4229 54.8835 31.6748 55.4872C31.9272 56.0909 32.3989 56.5597 33.0025 56.8074C33.606 57.0551 34.269 57.0526 34.871 56.7987C36.1127 56.2763 36.6994 54.8371 36.1788 53.5904C35.6913 52.4249 34.4049 51.8351 33.2248 52.191L33.2253 52.1915Z" fill="#292A2E"/>
<path d="M34.9112 49.8617C34.1555 50.09 33.3515 50.0522 32.6111 49.7483C31.7557 49.3975 31.0875 48.733 30.7308 47.8776C30.3731 47.0221 30.3685 46.0788 30.7186 45.2203C31.0682 44.3618 31.7302 43.6912 32.5831 43.3322C33.434 42.9752 34.3759 42.9695 35.2308 43.3204C36.0862 43.6713 36.7544 44.3357 37.1111 45.1912C37.4688 46.0461 37.4734 46.9899 37.1233 47.8485C36.7737 48.707 36.1116 49.3776 35.2588 49.7366C35.1443 49.7846 35.0283 49.8265 34.9112 49.8617ZM33.2212 44.1856C33.1383 44.2106 33.0569 44.2397 32.976 44.2739C32.3745 44.5272 31.9073 45.0002 31.66 45.6059C31.4137 46.2116 31.4163 46.8781 31.6687 47.4818C31.9211 48.0854 32.3923 48.5548 32.9963 48.802C33.5998 49.0497 34.2599 49.0476 34.8654 48.7938C35.4669 48.5405 35.934 48.0676 36.1814 47.4618C36.4277 46.8561 36.4251 46.1896 36.1727 45.586C35.9203 44.9823 35.4491 44.5129 34.8451 44.2657C34.3224 44.0512 33.7551 44.0247 33.2218 44.1856H33.2212Z" fill="#292A2E"/>
<path d="M33.9233 53.4736C36.4224 53.4736 38.4483 52.1156 38.4483 50.4404C38.4483 48.7652 36.4224 47.4072 33.9233 47.4072C31.4243 47.4072 29.3984 48.7652 29.3984 50.4404C29.3984 52.1156 31.4243 53.4736 33.9233 53.4736Z" fill="white"/>
<path d="M35.9253 53.6968C35.303 53.8847 34.6251 53.9838 33.927 53.9843C31.1042 53.9869 28.8917 52.4317 28.8901 50.4445C28.8886 48.4568 31.0981 46.8991 33.9204 46.896C35.2287 46.895 36.4657 47.2397 37.4036 47.8674C38.4046 48.5369 38.9562 49.4491 38.9572 50.4353C38.9582 51.4215 38.4081 52.3347 37.4082 53.0063C36.9716 53.2994 36.4693 53.5318 35.9253 53.6957V53.6968ZM32.2309 48.1626C30.8712 48.5732 29.9074 49.4532 29.9079 50.4435C29.9089 51.8107 31.7485 52.9644 33.9254 52.9629C35.0353 52.9618 36.0714 52.6758 36.8418 52.158C37.5496 51.6825 37.9394 51.0711 37.9389 50.4373C37.9384 49.8035 37.5476 49.1927 36.8387 48.7183C36.0663 48.2014 35.0302 47.9174 33.9214 47.9185C33.3214 47.9185 32.7474 48.0063 32.2309 48.1626Z" fill="#292A2E"/>
<path d="M35.0334 53.3812L34.9266 47.4823L33.4651 47.4231L33.3628 53.4501L35.0334 53.3812Z" fill="#292A2E"/>
<path d="M27.9203 51.7238C28.1783 51.7238 28.3874 51.5139 28.3874 51.255C28.3874 50.996 28.1783 50.7861 27.9203 50.7861C27.6623 50.7861 27.4531 50.996 27.4531 51.255C27.4531 51.5139 27.6623 51.7238 27.9203 51.7238Z" fill="#292A2E"/>
<path d="M28.285 49.215C28.543 49.215 28.7522 49.0051 28.7522 48.7462C28.7522 48.4873 28.543 48.2773 28.285 48.2773C28.027 48.2773 27.8179 48.4873 27.8179 48.7462C27.8179 49.0051 28.027 49.215 28.285 49.215Z" fill="#292A2E"/>
<path d="M179.442 67.8064C179.223 67.8064 179.022 67.6654 178.955 67.4453C178.927 67.3544 176.21 58.2707 177.629 48.0272C178.945 38.5288 184.165 26.0605 201.561 20.6009C204.392 19.7128 206.88 19.1638 209.066 18.8742C209.886 13.7358 213.005 8.16182 219.978 4.31609C236.548 -4.82173 247.741 3.37687 247.852 3.46063C248.076 3.63019 248.121 3.9499 247.952 4.17513C247.784 4.40087 247.465 4.44581 247.24 4.27728C247.134 4.1976 236.438 -3.59651 220.468 5.21138C213.951 8.80533 210.968 13.9636 210.12 18.7521C217.793 17.9937 221.469 20.5626 223.117 22.5034C225.214 24.9717 225.677 28.367 224.295 31.154C223.125 33.5166 220.87 34.8409 218.273 34.6825C213.988 34.4302 210.441 30.8123 209.239 25.465C208.865 23.7996 208.731 21.9176 208.927 19.9472C206.742 20.246 204.377 20.7884 201.865 21.5764C188.306 25.8317 180.491 34.7786 178.637 48.1681C177.249 58.1905 179.901 67.0582 179.928 67.1465C180.011 67.4162 179.859 67.7022 179.591 67.7844C179.541 67.7997 179.491 67.8064 179.442 67.8064ZM209.965 19.8216C209.744 21.7582 209.866 23.6096 210.232 25.2398C211.332 30.1315 214.511 33.4374 218.332 33.6626C220.507 33.7872 222.4 32.6831 223.385 30.6984C224.583 28.2786 224.175 25.322 222.342 23.1653C219.963 20.365 215.621 19.2337 209.965 19.8216Z" fill="#292A2E"/>
<path d="M259.706 8.62307C259.017 8.62307 258.341 8.42543 257.748 8.04238C256.932 7.51532 256.368 6.70123 256.162 5.74925C255.737 3.7845 256.984 1.83815 258.942 1.41118C260.901 0.984222 262.839 2.236 263.265 4.20074C263.689 6.166 262.443 8.11184 260.484 8.53881C260.226 8.5955 259.964 8.62307 259.706 8.62307ZM259.714 2.34887C259.53 2.34887 259.344 2.36879 259.158 2.40913C257.748 2.71659 256.851 4.11749 257.157 5.53219C257.305 6.21758 257.711 6.80389 258.298 7.18335C258.886 7.56282 259.586 7.6905 260.268 7.54086C261.678 7.2334 262.576 5.8325 262.27 4.4178C262.004 3.19002 260.917 2.34887 259.714 2.34887Z" fill="#292A2E"/>
<path d="M258.174 16.9586C257.485 16.9586 256.808 16.761 256.215 16.3779C255.399 15.8509 254.836 15.0368 254.63 14.0848C254.424 13.1328 254.599 12.1573 255.125 11.3381C255.65 10.5189 256.461 9.95408 257.41 9.74723C258.357 9.53988 259.33 9.71659 260.146 10.2437C260.963 10.7707 261.526 11.5848 261.732 12.5368C261.937 13.4888 261.762 14.4643 261.236 15.2834C260.712 16.1026 259.9 16.6675 258.952 16.8743C258.693 16.931 258.432 16.9586 258.174 16.9586ZM258.186 10.6844C258 10.6844 257.812 10.7043 257.625 10.7452C256.942 10.8943 256.358 11.3008 255.98 11.8907C255.603 12.4806 255.476 13.1829 255.625 13.8682C255.773 14.5536 256.178 15.1399 256.766 15.5194C257.354 15.8994 258.053 16.026 258.736 15.8769C259.419 15.7278 260.002 15.3212 260.381 14.7314C260.758 14.1415 260.885 13.4392 260.736 12.7538C260.588 12.0685 260.183 11.4822 259.595 11.1027C259.168 10.8269 258.682 10.6849 258.186 10.6849L258.186 10.6844Z" fill="#292A2E"/>
<path d="M263.639 10.115C263.96 8.37057 262.11 6.5657 259.508 6.08375C256.905 5.6018 254.536 6.62528 254.215 8.36972C253.894 10.1142 255.744 11.919 258.346 12.401C260.948 12.8829 263.318 11.8595 263.639 10.115Z" fill="white"/>
<path d="M259.63 13.0315C259.179 13.0315 258.718 12.9892 258.256 12.9039C256.899 12.6526 255.683 12.0566 254.831 11.2256C253.925 10.3416 253.529 9.29459 253.716 8.27775C253.903 7.2609 254.646 6.42485 255.806 5.92333C256.897 5.45193 258.244 5.3314 259.602 5.58216C260.958 5.83344 262.174 6.42945 263.026 7.26039C263.932 8.14445 264.329 9.19143 264.141 10.2083C263.954 11.2251 263.212 12.0612 262.051 12.5627C261.332 12.8732 260.501 13.0315 259.63 13.0315ZM258.224 6.4749C257.492 6.4749 256.801 6.60565 256.208 6.86152C255.37 7.22362 254.841 7.79256 254.717 8.46314C254.594 9.13372 254.886 9.85486 255.54 10.4933C256.25 11.1848 257.279 11.6848 258.44 11.8993C259.6 12.1133 260.74 12.0162 261.648 11.6245C262.486 11.2624 263.016 10.6935 263.14 10.0229C263.263 9.35231 262.971 8.63117 262.316 7.99226C261.607 7.30074 260.578 6.80125 259.417 6.58624C259.014 6.51168 258.613 6.47439 258.224 6.47439V6.4749Z" fill="#292A2E"/>
<path d="M258.339 5.96631L257.316 12.1287L258.825 12.4739L260.092 6.21809L258.339 5.96631Z" fill="#292A2E"/>
<path d="M264.474 12.5959C264.747 12.5959 264.968 12.3736 264.968 12.0994C264.968 11.8253 264.747 11.603 264.474 11.603C264.2 11.603 263.979 11.8253 263.979 12.0994C263.979 12.3736 264.2 12.5959 264.474 12.5959Z" fill="#292A2E"/>
<path d="M265.336 10.0546C265.609 10.0546 265.83 9.83235 265.83 9.55819C265.83 9.28402 265.609 9.06177 265.336 9.06177C265.063 9.06177 264.841 9.28402 264.841 9.55819C264.841 9.83235 265.063 10.0546 265.336 10.0546Z" fill="#292A2E"/>
</g>
<defs>
<clipPath id="clip0_267_1847">
<rect width="284" height="243" fill="white"/>
</clipPath>
</defs>
</svg>
