<svg width="208" height="43" viewBox="0 0 208 43" fill="none" xmlns="http://www.w3.org/2000/svg">
<path d="M105.356 0.508867C87.1698 1.42628 70.3866 4.93401 65.6917 8.92744C62.4538 11.6257 64.3965 12.0035 70.9263 9.89881C83.3923 6.01332 110.645 3.04523 135.685 2.9373C144.319 2.9373 151.334 2.82937 151.28 2.72144C150.417 1.91196 122.085 -0.246646 115.34 0.02318C114.314 0.02318 109.835 0.239041 105.356 0.508867Z" fill="#007AFF"/>
<path d="M113.181 10.0068C100.229 10.4925 78.9669 12.867 67.3104 15.0795C54.3048 17.562 36.1185 22.7966 24.6779 27.2757C17.1228 30.2438 4.27905 36.7196 2.3363 38.5005C0.771308 39.9575 0.555448 41.5225 1.74268 42.5478C2.44423 43.0875 3.30767 42.9256 6.76145 41.5765C9.02798 40.6591 11.6723 39.7417 12.5357 39.5258C13.4531 39.3099 18.4179 37.5291 23.5986 35.5324C34.2297 31.431 50.0415 26.1424 58.9458 23.714C91.163 14.8637 126.564 12.2194 156.029 16.4287C167.686 18.0476 185.548 22.0411 201.09 26.4122C204.166 27.2757 206.81 27.8693 206.972 27.7614C207.944 26.736 192.132 21.1776 177.939 17.508C161.156 13.1908 148.528 11.1401 132.608 10.1687C124.082 9.68303 122.301 9.62906 113.181 10.0068Z" fill="#007AFF"/>
<path d="M99.2041 21.5553C78.8053 23.0124 59.5397 27.8693 44.5374 35.2625C38.979 37.9608 36.1728 40.2813 36.7124 41.6844C37.2521 43.0335 39.7885 42.7097 45.5627 40.713C48.4769 39.6876 54.0353 37.6909 57.8668 36.3418C74.9738 30.2437 93.5918 26.8979 116.581 25.8186C129.317 25.225 143.779 25.7107 164.124 27.4375C171.248 28.0312 177.13 28.4089 177.238 28.301C177.67 27.9232 168.873 25.8186 162.289 24.7932C142.268 21.6093 116.581 20.3141 99.2041 21.5553Z" fill="#007AFF"/>
</svg>
