<svg width="163" height="150" viewBox="0 0 163 150" fill="none" xmlns="http://www.w3.org/2000/svg">
<path d="M108.98 19.908C109.57 19.908 110.048 19.4298 110.048 18.84C110.048 18.2501 109.57 17.772 108.98 17.772C108.39 17.772 107.912 18.2501 107.912 18.84C107.912 19.4298 108.39 19.908 108.98 19.908Z" fill="#96C8FF"/>
<path d="M116.42 93.7678C117.01 93.7678 117.488 93.2897 117.488 92.6998C117.488 92.11 117.01 91.6318 116.42 91.6318C115.83 91.6318 115.352 92.11 115.352 92.6998C115.352 93.2897 115.83 93.7678 116.42 93.7678Z" fill="#96C8FF"/>
<path d="M102.26 57.1798C93.116 57.1798 83.828 56.8078 75.14 54.3958C66.452 51.9838 58.82 47.4358 51.788 42.1198C47.216 38.6518 43.04 35.9038 37.124 36.3238C31.3217 36.6326 25.7725 38.7992 21.296 42.5038C13.7 49.1158 14.9 61.3438 17.9 69.9357C22.436 82.8957 36.248 91.8837 47.984 97.7517C61.544 104.52 76.436 108.456 91.376 110.724C104.576 112.716 121.292 114.156 132.632 105.6C143.06 97.7518 145.916 79.8117 143.36 67.7037C142.741 64.1252 140.838 60.8952 138.008 58.6197C130.688 53.2677 119.768 56.8437 111.536 57.0237C108.5 57.0957 105.38 57.1678 102.26 57.1798Z" fill="#E6F2FF"/>
<path d="M138.524 39.8882V44.5922" stroke="#007AFF" stroke-linecap="round" stroke-linejoin="round"/>
<path d="M136.184 42.2402H140.876" stroke="#007AFF" stroke-linecap="round" stroke-linejoin="round"/>
<path d="M79.916 131.94C102.032 131.94 119.96 130.823 119.96 129.444C119.96 128.066 102.032 126.948 79.916 126.948C57.8003 126.948 39.872 128.066 39.872 129.444C39.872 130.823 57.8003 131.94 79.916 131.94Z" fill="#E6F2FF"/>
<path d="M124.326 41.09L41.4187 33.749C39.0157 33.5363 36.8952 35.3118 36.6825 37.7147L31.5207 96.0107C31.3079 98.4137 33.0835 100.534 35.4864 100.747L118.394 108.088C120.797 108.301 122.918 106.525 123.13 104.122L128.292 45.8262C128.505 43.4232 126.729 41.3028 124.326 41.09Z" fill="white" stroke="#007AFF" stroke-linecap="round" stroke-linejoin="round"/>
<path d="M104.291 62.4043L57.4108 58.2533C56.3149 58.1563 55.3479 58.966 55.2508 60.0619L54.9619 63.3251C54.8648 64.421 55.6746 65.388 56.7704 65.485L103.651 69.636C104.747 69.7331 105.714 68.9233 105.811 67.8275L106.1 64.5642C106.197 63.4684 105.387 62.5014 104.291 62.4043Z" fill="white" stroke="#007AFF" stroke-linecap="round" stroke-linejoin="round"/>
<path d="M103.041 76.4956L56.16 72.3446C55.0642 72.2476 54.0971 73.0573 54.0001 74.1532L53.7111 77.4164C53.6141 78.5123 54.4238 79.4793 55.5197 79.5763L102.4 83.7273C103.496 83.8244 104.463 83.0147 104.56 81.9188L104.849 78.6556C104.946 77.5597 104.136 76.5927 103.041 76.4956Z" fill="white" stroke="#007AFF" stroke-linecap="round" stroke-linejoin="round"/>
<path d="M86.3013 89.4657L70.3676 88.0548C69.5292 87.9806 68.7894 88.6001 68.7152 89.4385L68.3437 93.6341C68.2694 94.4725 68.8889 95.2123 69.7273 95.2865L85.661 96.6974C86.4994 96.7716 87.2392 96.1521 87.3134 95.3137L87.6849 91.1181C87.7592 90.2797 87.1397 89.5399 86.3013 89.4657Z" fill="#96C8FF"/>
<path d="M93.812 37.0441C93.812 39.7925 92.997 42.4792 91.4701 44.7643C89.9432 47.0495 87.7729 48.8306 85.2338 49.8824C82.6946 50.9341 79.9006 51.2093 77.205 50.6731C74.5095 50.1369 72.0334 48.8135 70.0901 46.8701C68.1467 44.9267 66.8232 42.4507 66.287 39.7551C65.7508 37.0596 66.026 34.2655 67.0778 31.7264C68.1295 29.1872 69.9106 27.0169 72.1958 25.49C74.481 23.9631 77.1676 23.1481 79.916 23.1481C81.7435 23.1386 83.5548 23.4915 85.245 24.1865C86.9353 24.8814 88.471 25.9046 89.7632 27.1969C91.0555 28.4892 92.0787 30.0248 92.7737 31.7151C93.4686 33.4053 93.8216 35.2166 93.812 37.0441Z" fill="white" stroke="#007AFF" stroke-linecap="round" stroke-linejoin="round"/>
<path d="M79.916 34.1278C82.4344 34.1278 84.476 32.0862 84.476 29.5678C84.476 27.0494 82.4344 25.0078 79.916 25.0078C77.3976 25.0078 75.356 27.0494 75.356 29.5678C75.356 32.0862 77.3976 34.1278 79.916 34.1278Z" fill="#96C8FF"/>
<path d="M68 64.9078C69.1399 64.9078 70.064 63.9837 70.064 62.8438C70.064 61.7039 69.1399 60.7798 68 60.7798C66.8601 60.7798 65.936 61.7039 65.936 62.8438C65.936 63.9837 66.8601 64.9078 68 64.9078Z" fill="#96C8FF"/>
<path d="M76.352 65.6397C77.4919 65.6397 78.416 64.7156 78.416 63.5757C78.416 62.4358 77.4919 61.5117 76.352 61.5117C75.2121 61.5117 74.288 62.4358 74.288 63.5757C74.288 64.7156 75.2121 65.6397 76.352 65.6397Z" fill="#96C8FF"/>
<path d="M84.704 66.3839C85.8439 66.3839 86.768 65.4598 86.768 64.3199C86.768 63.1799 85.8439 62.2559 84.704 62.2559C83.5641 62.2559 82.64 63.1799 82.64 64.3199C82.64 65.4598 83.5641 66.3839 84.704 66.3839Z" fill="#96C8FF"/>
<path d="M93.056 67.1163C94.1959 67.1163 95.12 66.1922 95.12 65.0523C95.12 63.9124 94.1959 62.9883 93.056 62.9883C91.9161 62.9883 90.992 63.9124 90.992 65.0523C90.992 66.1922 91.9161 67.1163 93.056 67.1163Z" fill="#96C8FF"/>
<path d="M90.5 46.0799C89.1977 47.6005 87.5817 48.8211 85.763 49.658C83.9443 50.495 81.966 50.9283 79.964 50.9283C77.962 50.9283 75.9837 50.495 74.165 49.658C72.3463 48.8211 70.7303 47.6005 69.428 46.0799C69.6084 43.4085 70.7969 40.9053 72.7529 39.0769C74.709 37.2485 77.2865 36.2314 79.964 36.2314C82.6415 36.2314 85.2191 37.2485 87.1751 39.0769C89.1311 40.9053 90.3196 43.4085 90.5 46.0799Z" fill="#96C8FF"/>
</svg>
