<svg width="153" height="152" viewBox="0 0 153 152" fill="none" xmlns="http://www.w3.org/2000/svg">
<path d="M60.7376 121.326C60.4488 121.524 60.0384 121.463 59.6584 121.296C59.3544 121.159 59.0656 120.962 58.792 120.764C56.4056 119.077 53.9128 117.572 51.4352 116.052C49.5656 114.897 47.7112 113.726 45.7808 112.662C45.2032 112.343 44.5952 112.07 44.0936 111.644C43.1816 110.869 43.1208 109.774 43.1208 108.665C43.1208 107.16 43.136 105.64 43.136 104.12C43.1512 101.08 43.1512 98.04 43.1512 95C43.1512 91.96 43.1512 88.92 43.1664 85.88C43.1816 82.84 43.1968 79.8 43.2272 76.76C43.2424 75.392 43.364 74.0088 43.3488 72.6408C43.3336 71.288 43.1208 69.7832 41.7528 69.16C41.1448 68.8864 40.476 68.8104 39.8224 68.7496C36.8736 68.5216 33.9248 68.7648 30.976 68.7648C28.6656 68.78 26.1576 68.856 23.9536 68.096C20.3056 66.8344 18.1624 63.4448 18.1776 59.6448C18.208 54.0664 21.6584 50.7984 27.5864 50.8592C35.9008 50.9504 44.2152 50.844 52.5144 51.3912C57.1808 51.6952 60.8744 55.1912 60.9352 59.9336C61.0568 68.704 61.0416 77.4896 61.0568 86.26C61.0568 92.2488 61.1328 98.2376 61.148 104.226C61.1632 109.562 61.1176 114.897 61.0872 120.232C61.0872 120.475 61.0872 120.718 60.996 120.946C60.9504 121.129 60.844 121.25 60.7376 121.326Z" fill="white"/>
<path d="M92.1104 121.098C92.3992 121.296 92.8096 121.235 93.1896 121.068C93.4936 120.931 93.7824 120.734 94.056 120.536C96.4424 118.849 98.9352 117.344 101.413 115.824C103.282 114.669 105.137 113.498 107.067 112.434C107.645 112.115 108.253 111.842 108.754 111.416C109.666 110.641 109.727 109.546 109.727 108.437C109.727 106.932 109.712 105.412 109.712 103.892C109.697 100.852 109.697 97.812 109.697 94.772C109.697 91.732 109.697 88.692 109.682 85.652C109.666 82.612 109.651 79.572 109.621 76.532C109.606 75.164 109.484 73.7808 109.499 72.4128C109.514 71.06 109.727 69.5552 111.095 68.932C111.703 68.6584 112.372 68.5824 113.026 68.5216C115.974 68.2936 118.923 68.5368 121.872 68.5368C124.182 68.552 126.69 68.628 128.894 67.868C132.542 66.6064 134.686 63.2168 134.67 59.4168C134.64 53.8384 131.19 50.5704 125.262 50.6312C116.947 50.7224 108.633 50.616 100.334 51.1632C95.6672 51.4672 91.9736 54.9632 91.9128 59.7056C91.7912 68.476 91.8064 77.2616 91.7912 86.032C91.7912 92.0208 91.7152 98.0096 91.7 103.998C91.6848 109.334 91.7304 114.669 91.7608 120.004C91.7608 120.247 91.7608 120.49 91.852 120.718C91.9128 120.901 92.004 121.022 92.1104 121.098Z" fill="white"/>
<path d="M67.5319 93.2976C67.5319 82.2168 67.5167 71.136 67.5319 60.0704C67.5471 54.3704 71.1039 50.4792 76.2719 50.4184C81.5463 50.3576 85.3615 54.4008 85.3615 60.1312C85.3767 82.4752 85.3767 104.804 85.3615 127.148C85.3615 131.389 82.5951 135.219 78.9471 136.192C74.6911 137.317 70.7391 135.675 68.4895 131.906C67.5775 130.386 67.5319 128.759 67.5319 127.087C67.5319 115.824 67.5319 104.561 67.5319 93.2976Z" fill="white"/>
<path d="M76.6673 15.4736C83.7049 15.5192 89.2529 21.128 89.2529 28.1808C89.2529 35.0968 83.4921 40.7512 76.4849 40.736C69.4321 40.7056 63.7473 35.0816 63.7625 28.1352C63.7777 20.976 69.4473 15.428 76.6673 15.4736Z" fill="white"/>
</svg>
