<svg width="71" height="73" viewBox="0 0 71 73" fill="none" xmlns="http://www.w3.org/2000/svg">
<g clip-path="url(#clip0_29_923)">
<path d="M26.0005 63.9699C25.8264 64.0896 25.5791 64.0528 25.3501 63.9515C25.1669 63.8686 24.9928 63.7488 24.8279 63.6291C23.3898 62.6065 21.8874 61.6946 20.3943 60.7734C19.2675 60.0733 18.15 59.3639 16.9866 58.7191C16.6385 58.5257 16.2721 58.3598 15.9698 58.1019C15.4201 57.6321 15.3835 56.9688 15.3835 56.2964C15.3835 55.3844 15.3926 54.4632 15.3926 53.542C15.4018 51.6996 15.4018 49.8573 15.4018 48.0149C15.4018 46.1725 15.4018 44.3301 15.411 42.4877C15.4201 40.6454 15.4293 38.803 15.4476 36.9606C15.4568 36.1315 15.5301 35.2932 15.5209 34.4642C15.5117 33.6443 15.3835 32.7323 14.559 32.3546C14.1926 32.1888 13.7896 32.1428 13.3957 32.1059C11.6185 31.9677 9.84139 32.1151 8.06425 32.1151C6.67186 32.1243 5.16038 32.1704 3.83211 31.7098C1.63359 30.9452 0.341962 28.891 0.351123 26.588C0.369444 23.2072 2.44887 21.2267 6.02147 21.2635C11.0323 21.3188 16.043 21.2543 21.0447 21.5859C23.8569 21.7702 26.0829 23.8889 26.1196 26.763C26.1929 32.0783 26.1837 37.4028 26.1929 42.718C26.1929 46.3475 26.2387 49.977 26.2478 53.6065C26.257 56.8399 26.2295 60.0733 26.2112 63.3066C26.2112 63.454 26.2112 63.6014 26.1562 63.7396C26.1287 63.8501 26.0646 63.9238 26.0005 63.9699Z" fill="#007AFF"/>
<path d="M44.9078 63.8317C45.0819 63.9515 45.3292 63.9146 45.5582 63.8133C45.7414 63.7304 45.9155 63.6106 46.0804 63.4909C47.5186 62.4684 49.0209 61.5564 50.5141 60.6352C51.6408 59.9351 52.7584 59.2258 53.9218 58.5809C54.2699 58.3875 54.6363 58.2217 54.9386 57.9637C55.4882 57.4939 55.5249 56.8307 55.5249 56.1582C55.5249 55.2462 55.5157 54.325 55.5157 53.4039C55.5065 51.5615 55.5065 49.7191 55.5065 47.8767C55.5065 46.0343 55.5065 44.1919 55.4974 42.3496C55.4882 40.5072 55.479 38.6648 55.4607 36.8224C55.4516 35.9934 55.3783 35.1551 55.3874 34.326C55.3966 33.5061 55.5249 32.5942 56.3493 32.2165C56.7157 32.0507 57.1188 32.0046 57.5127 31.9677C59.2898 31.8296 61.0669 31.977 62.8441 31.977C64.2365 31.9862 65.748 32.0322 67.0762 31.5716C69.2747 30.807 70.5664 28.7528 70.5572 26.4498C70.5389 23.069 68.4595 21.0885 64.8869 21.1253C59.8761 21.1806 54.8653 21.1161 49.8637 21.4478C47.0514 21.632 44.8254 23.7507 44.7888 26.6248C44.7155 31.9401 44.7246 37.2646 44.7155 42.5799C44.7155 46.2094 44.6697 49.8388 44.6605 53.4683C44.6514 56.7017 44.6788 59.9351 44.6972 63.1685C44.6972 63.3159 44.6972 63.4632 44.7521 63.6014C44.7888 63.712 44.8437 63.7857 44.9078 63.8317Z" fill="#007AFF"/>
<path d="M30.0951 46.9831C30.0951 40.2677 30.086 33.5522 30.0951 26.8459C30.1043 23.3915 32.2479 21.0332 35.3624 20.9964C38.5411 20.9595 40.8404 23.4099 40.8404 26.8828C40.8496 40.4243 40.8496 53.9566 40.8404 67.4981C40.8404 70.0682 39.1732 72.3896 36.9747 72.9791C34.4097 73.6608 32.028 72.6659 30.6722 70.3814C30.1226 69.4602 30.0951 68.4745 30.0951 67.4612C30.0951 60.6352 30.0951 53.8092 30.0951 46.9831Z" fill="#007AFF"/>
<path d="M35.6008 -0.181807C39.8421 -0.154171 43.1856 3.24502 43.1856 7.51934C43.1856 11.7108 39.7138 15.1376 35.4908 15.1284C31.2404 15.11 27.8143 11.7015 27.8235 7.49171C27.8327 3.1529 31.2495 -0.209443 35.6008 -0.181807Z" fill="#007AFF"/>
</g>
<defs>
<clipPath id="clip0_29_923">
<rect width="70" height="73" fill="white" transform="translate(0.5)"/>
</clipPath>
</defs>
</svg>
