<svg width="228" height="202" viewBox="0 0 228 202" fill="none" xmlns="http://www.w3.org/2000/svg">
<path d="M113.999 201.158C169.414 201.158 214.336 156.128 214.336 100.579C214.336 45.0308 169.414 0 113.999 0C58.5848 0 13.6625 45.0308 13.6625 100.579C13.6625 156.128 58.5848 201.158 113.999 201.158Z" fill="white"/>
<path opacity="0.1" d="M113.999 201.158C169.414 201.158 214.336 156.128 214.336 100.579C214.336 45.0308 169.414 0 113.999 0C58.5848 0 13.6625 45.0308 13.6625 100.579C13.6625 156.128 58.5848 201.158 113.999 201.158Z" fill="#007AFF"/>
<path d="M48.79 134.741L0.805679 134.595L1.00311 69.252L34.1832 69.3527L48.9425 84.2378L48.79 134.741Z" fill="white"/>
<path opacity="0.3" d="M34.1832 69.3525L34.1383 84.1926L48.9425 84.2376L34.1832 69.3525Z" fill="#007AFF"/>
<path d="M49.2444 84.2191C49.2426 84.1923 49.2374 84.1659 49.2289 84.1404C49.2255 84.1306 49.223 84.1211 49.2188 84.1113C49.2045 84.078 49.1843 84.0476 49.1592 84.0215L34.3998 69.1365C34.3738 69.1109 34.3435 69.0901 34.3103 69.0752C34.301 69.0712 34.2915 69.0678 34.2818 69.0648C34.2562 69.0558 34.2295 69.0505 34.2024 69.0489C34.196 69.0489 34.1902 69.0449 34.1837 69.0449L1.004 68.9453C0.922944 68.9453 0.845208 68.9776 0.787893 69.035C0.730578 69.0925 0.698379 69.1704 0.698379 69.2517L0.500031 134.594C0.500031 134.675 0.53223 134.753 0.589545 134.811C0.64686 134.868 0.724596 134.9 0.805652 134.9L48.7881 135.047C48.8692 135.047 48.9469 135.015 49.0043 134.957C49.0616 134.9 49.0938 134.822 49.0938 134.741L49.2466 84.2375C49.2481 84.2317 49.2447 84.2259 49.2444 84.2191ZM34.4851 70.0932L41.3004 76.964L48.2056 83.9281L34.4447 83.8861L34.4851 70.0932ZM1.11127 134.29L1.30687 69.559L33.8754 69.6579L33.8317 84.1916C33.8317 84.2728 33.8639 84.3507 33.9212 84.4082C33.9785 84.4657 34.0562 84.4979 34.1373 84.4979L48.6359 84.542L48.4853 134.433L1.11127 134.29Z" fill="#1D2024"/>
<path d="M146.613 132.126L81.1781 131.928L81.4474 42.8213L126.694 42.9588L146.821 63.257L146.613 132.126Z" fill="white"/>
<path opacity="0.3" d="M126.694 42.959L126.633 63.1958L146.821 63.2571L126.694 42.959Z" fill="#007AFF"/>
<path d="M147.123 63.2385C147.121 63.2118 147.116 63.1854 147.107 63.1601C147.104 63.15 147.101 63.1405 147.097 63.1294C147.083 63.0962 147.063 63.0658 147.038 63.0397L126.911 42.7415C126.885 42.7159 126.854 42.6952 126.821 42.6803C126.812 42.676 126.803 42.6735 126.793 42.6702C126.767 42.6613 126.74 42.6558 126.713 42.6539C126.707 42.6539 126.701 42.6502 126.695 42.6502L81.4484 42.5127C81.3673 42.5127 81.2896 42.545 81.2323 42.6024C81.1749 42.6599 81.1427 42.7378 81.1427 42.8191L80.8735 131.925C80.8735 132.007 80.9057 132.085 80.963 132.142C81.0203 132.199 81.0981 132.232 81.1791 132.232L146.613 132.431C146.694 132.431 146.771 132.398 146.829 132.341C146.886 132.283 146.918 132.205 146.918 132.124L147.126 63.2547C147.126 63.2511 147.123 63.2452 147.123 63.2385ZM126.997 43.6992L146.083 62.9484L126.939 62.8902L126.997 43.6992ZM81.4847 131.622L81.7522 43.1285L126.387 43.2642L126.326 63.1947C126.326 63.2759 126.358 63.3539 126.416 63.4113C126.473 63.4688 126.551 63.501 126.632 63.501L146.514 63.5623L146.308 131.819L81.4847 131.622Z" fill="#1D2024"/>
<path d="M227.041 134.741L179.056 134.595L179.254 69.252L212.434 69.3527L227.193 84.2378L227.041 134.741Z" fill="white"/>
<path opacity="0.3" d="M212.434 69.3525L212.389 84.1926L227.193 84.2376L212.434 69.3525Z" fill="#007AFF"/>
<path d="M227.495 84.2194C227.494 84.1926 227.488 84.1661 227.48 84.1407C227.476 84.1309 227.474 84.1214 227.469 84.1116C227.455 84.0783 227.435 84.0479 227.41 84.0218L212.65 69.1367C212.625 69.1111 212.594 69.0904 212.561 69.0755C212.552 69.0712 212.542 69.0684 212.532 69.065C212.507 69.0561 212.48 69.0507 212.453 69.0491C212.447 69.0491 212.441 69.0451 212.435 69.0451L179.255 68.9443C179.174 68.9443 179.096 68.9766 179.039 69.0341C178.981 69.0915 178.949 69.1694 178.949 69.2507L178.752 134.594C178.752 134.675 178.784 134.753 178.841 134.811C178.898 134.868 178.976 134.9 179.057 134.9L227.042 135.046C227.123 135.046 227.2 135.014 227.258 134.956C227.315 134.899 227.347 134.821 227.347 134.74L227.5 84.2366C227.499 84.232 227.495 84.2261 227.495 84.2194ZM212.737 70.0935L219.55 76.9642L226.456 83.9284L212.695 83.8864L212.737 70.0935ZM179.363 134.29L179.559 69.5592L212.128 69.6582L212.084 84.1918C212.084 84.2731 212.116 84.351 212.173 84.4085C212.23 84.4659 212.308 84.4982 212.389 84.4982L226.888 84.5423L226.737 134.433L179.363 134.29Z" fill="#1D2024"/>
<path d="M97.6557 94.7479C100.186 94.7479 102.236 92.6921 102.236 90.1562C102.236 87.6202 100.186 85.5645 97.6557 85.5645C95.1259 85.5645 93.0751 87.6202 93.0751 90.1562C93.0751 92.6921 95.1259 94.7479 97.6557 94.7479Z" fill="#2F3135"/>
<path d="M129.065 94.7479C131.595 94.7479 133.646 92.6921 133.646 90.1562C133.646 87.6202 131.595 85.5645 129.065 85.5645C126.535 85.5645 124.484 87.6202 124.484 90.1562C124.484 92.6921 126.535 94.7479 129.065 94.7479Z" fill="#2F3135"/>
<path d="M119.502 102.855H107.219C107.138 102.855 107.061 102.823 107.003 102.765C106.946 102.708 106.914 102.63 106.914 102.549C106.914 102.467 106.946 102.389 107.003 102.332C107.061 102.274 107.138 102.242 107.219 102.242H119.502C119.583 102.242 119.66 102.274 119.718 102.332C119.775 102.389 119.807 102.467 119.807 102.549C119.807 102.63 119.775 102.708 119.718 102.765C119.66 102.823 119.583 102.855 119.502 102.855Z" fill="#1D2024"/>
<path d="M92.9304 103.291C95.1872 103.291 97.0166 102.326 97.0166 101.135C97.0166 99.9447 95.1872 98.9795 92.9304 98.9795C90.6737 98.9795 88.8443 99.9447 88.8443 101.135C88.8443 102.326 90.6737 103.291 92.9304 103.291Z" fill="white"/>
<path d="M133.79 103.291C136.047 103.291 137.876 102.326 137.876 101.135C137.876 99.9447 136.047 98.9795 133.79 98.9795C131.533 98.9795 129.704 99.9447 129.704 101.135C129.704 102.326 131.533 103.291 133.79 103.291Z" fill="white"/>
<g opacity="0.4">
<path d="M92.9304 103.291C95.1872 103.291 97.0166 102.326 97.0166 101.135C97.0166 99.9447 95.1872 98.9795 92.9304 98.9795C90.6737 98.9795 88.8443 99.9447 88.8443 101.135C88.8443 102.326 90.6737 103.291 92.9304 103.291Z" fill="#007AFF"/>
<path d="M133.79 103.291C136.047 103.291 137.876 102.326 137.876 101.135C137.876 99.9447 136.047 98.9795 133.79 98.9795C131.533 98.9795 129.704 99.9447 129.704 101.135C129.704 102.326 131.533 103.291 133.79 103.291Z" fill="#007AFF"/>
</g>
<path d="M146.919 63.9868C139.119 55.0103 128.082 49.5071 116.235 48.6876C104.388 47.8682 92.701 51.7996 83.7454 59.6172C68.7834 72.6794 64.1856 94.396 72.5667 112.433C74.2495 116.048 76.4073 119.42 78.9826 122.461L79.5327 123.114L38.5208 166.743C37.7708 167.552 37.3706 168.626 37.4074 169.731C37.4442 170.835 37.915 171.88 38.7172 172.637C39.5193 173.395 40.5878 173.804 41.6895 173.775C42.7913 173.746 43.8369 173.281 44.5984 172.483L85.6002 128.86L86.2851 129.375C95.1332 136.027 106.125 139.162 117.141 138.175C128.158 137.188 138.42 132.148 145.951 124.027C153.481 115.907 157.747 105.279 157.926 94.1935C158.105 83.1076 154.185 72.3476 146.92 63.9868H146.919ZM149.49 95.9792C148.855 105.197 144.758 113.83 138.025 120.14C131.292 126.45 122.423 129.967 113.206 129.982C112.355 129.982 111.501 129.951 110.644 129.89C104.661 129.483 98.8709 127.602 93.7868 124.414C88.7026 121.226 84.4817 116.83 81.4983 111.616C78.515 106.401 76.8615 100.529 76.6844 94.5206C76.5073 88.5119 77.8121 82.5523 80.483 77.1702C83.154 71.7881 87.1086 67.1499 91.9962 63.6669C96.8837 60.1838 102.553 57.9636 108.502 57.2031C114.45 56.4426 120.494 57.1653 126.098 59.3071C131.701 61.4489 136.69 64.9436 140.623 69.4813C143.774 73.0919 146.18 77.2927 147.702 81.8408C149.224 86.3889 149.832 91.1943 149.49 95.9792Z" fill="#007AFF"/>
</svg>
