<svg width="228" height="202" viewBox="0 0 228 202" fill="none" xmlns="http://www.w3.org/2000/svg">
<path d="M113.999 201.658C169.414 201.658 214.336 156.628 214.336 101.079C214.336 45.5308 169.414 0.5 113.999 0.5C58.5847 0.5 13.6624 45.5308 13.6624 101.079C13.6624 156.628 58.5847 201.658 113.999 201.658Z" fill="white"/>
<path opacity="0.1" d="M113.999 201.658C169.414 201.658 214.336 156.628 214.336 101.079C214.336 45.5308 169.414 0.5 113.999 0.5C58.5847 0.5 13.6624 45.5308 13.6624 101.079C13.6624 156.628 58.5847 201.658 113.999 201.658Z" fill="#007AFF"/>
<path d="M48.79 135.241L0.805664 135.095L1.0031 69.752L34.1831 69.8527L48.9425 84.7378L48.79 135.241Z" fill="white"/>
<path opacity="0.3" d="M34.1831 69.8528L34.1382 84.6928L48.9425 84.7378L34.1831 69.8528Z" fill="#007AFF"/>
<path d="M49.2444 84.7194C49.2426 84.6926 49.2373 84.6661 49.2288 84.6407C49.2255 84.6308 49.223 84.6214 49.2187 84.6115C49.2045 84.5783 49.1843 84.5478 49.1591 84.5218L34.3998 69.6367C34.3738 69.6111 34.3435 69.5904 34.3102 69.5755C34.301 69.5715 34.2915 69.568 34.2818 69.565C34.2562 69.5561 34.2295 69.5507 34.2024 69.5491C34.1959 69.5491 34.1901 69.5451 34.1837 69.5451L1.00397 69.4456C0.922913 69.4456 0.845177 69.4778 0.787862 69.5353C0.730547 69.5927 0.698348 69.6707 0.698348 69.7519L0.5 135.094C0.5 135.176 0.532199 135.253 0.589514 135.311C0.646829 135.368 0.724565 135.401 0.805621 135.401L48.7881 135.547C48.8692 135.547 48.9469 135.515 49.0042 135.458C49.0615 135.4 49.0937 135.322 49.0937 135.241L49.2465 84.7378C49.2481 84.732 49.2447 84.7261 49.2444 84.7194ZM34.4851 70.5935L41.3004 77.4642L48.2056 84.4283L34.4447 84.3864L34.4851 70.5935ZM1.11124 134.79L1.30684 70.0592L33.8753 70.1581L33.8316 84.6918C33.8316 84.7731 33.8638 84.851 33.9212 84.9084C33.9785 84.9659 34.0562 84.9982 34.1373 84.9982L48.6359 85.0423L48.4852 134.933L1.11124 134.79Z" fill="#1D2024"/>
<path d="M146.613 132.626L81.1782 132.427L81.4475 43.321L126.694 43.4586L146.821 63.7567L146.613 132.626Z" fill="white"/>
<path opacity="0.3" d="M126.694 43.4587L126.633 63.6956L146.821 63.7569L126.694 43.4587Z" fill="#007AFF"/>
<path d="M147.123 63.7385C147.121 63.7118 147.116 63.6854 147.107 63.6601C147.104 63.65 147.101 63.6405 147.097 63.6294C147.083 63.5962 147.063 63.5658 147.038 63.5397L126.911 43.2415C126.885 43.2159 126.854 43.1952 126.821 43.1803C126.812 43.176 126.803 43.1735 126.793 43.1702C126.767 43.1613 126.74 43.1558 126.713 43.1539C126.707 43.1539 126.701 43.1502 126.695 43.1502L81.4484 43.0127C81.3673 43.0127 81.2896 43.045 81.2323 43.1024C81.175 43.1599 81.1428 43.2378 81.1428 43.3191L80.8735 132.425C80.8735 132.507 80.9057 132.585 80.963 132.642C81.0204 132.699 81.0981 132.732 81.1792 132.732L146.613 132.931C146.694 132.931 146.771 132.898 146.829 132.841C146.886 132.783 146.918 132.705 146.918 132.624L147.126 63.7547C147.126 63.7511 147.123 63.7452 147.123 63.7385ZM126.997 44.1992L146.083 63.4484L126.939 63.3902L126.997 44.1992ZM81.4848 132.122L81.7522 43.6285L126.387 43.7642L126.326 63.6947C126.326 63.7759 126.358 63.8539 126.416 63.9113C126.473 63.9688 126.551 64.001 126.632 64.001L146.514 64.0623L146.308 132.319L81.4848 132.122Z" fill="#1D2024"/>
<path d="M227.041 135.241L179.056 135.095L179.254 69.7517L212.434 69.8525L227.193 84.7376L227.041 135.241Z" fill="white"/>
<path opacity="0.3" d="M212.434 69.8525L212.389 84.6926L227.193 84.7376L212.434 69.8525Z" fill="#007AFF"/>
<path d="M227.495 84.7194C227.493 84.6926 227.488 84.6661 227.48 84.6407C227.476 84.6309 227.474 84.6214 227.469 84.6116C227.455 84.5783 227.435 84.5479 227.41 84.5218L212.65 69.6367C212.624 69.6111 212.594 69.5904 212.561 69.5755C212.552 69.5712 212.542 69.5684 212.532 69.565C212.507 69.5561 212.48 69.5507 212.453 69.5491C212.447 69.5491 212.441 69.5451 212.435 69.5451L179.255 69.4443C179.173 69.4443 179.096 69.4766 179.038 69.5341C178.981 69.5915 178.949 69.6694 178.949 69.7507L178.751 135.094C178.751 135.175 178.784 135.253 178.841 135.311C178.898 135.368 178.976 135.4 179.057 135.4L227.041 135.546C227.122 135.546 227.2 135.514 227.258 135.456C227.315 135.399 227.347 135.321 227.347 135.24L227.5 84.7366C227.499 84.732 227.495 84.7261 227.495 84.7194ZM212.737 70.5935L219.55 77.4642L226.456 84.4284L212.695 84.3864L212.737 70.5935ZM179.363 134.79L179.559 70.0592L212.127 70.1582L212.083 84.6918C212.083 84.7731 212.116 84.851 212.173 84.9085C212.23 84.9659 212.308 84.9982 212.389 84.9982L226.888 85.0423L226.737 134.933L179.363 134.79Z" fill="#1D2024"/>
<path d="M97.6556 95.2481C100.185 95.2481 102.236 93.1923 102.236 90.6564C102.236 88.1205 100.185 86.0647 97.6556 86.0647C95.1258 86.0647 93.075 88.1205 93.075 90.6564C93.075 93.1923 95.1258 95.2481 97.6556 95.2481Z" fill="#2F3135"/>
<path d="M129.065 95.2481C131.595 95.2481 133.646 93.1923 133.646 90.6564C133.646 88.1205 131.595 86.0647 129.065 86.0647C126.535 86.0647 124.484 88.1205 124.484 90.6564C124.484 93.1923 126.535 95.2481 129.065 95.2481Z" fill="#2F3135"/>
<path d="M119.501 103.355H107.219C107.138 103.355 107.06 103.323 107.003 103.265C106.946 103.208 106.914 103.13 106.914 103.049C106.914 102.967 106.946 102.889 107.003 102.832C107.06 102.774 107.138 102.742 107.219 102.742H119.501C119.583 102.742 119.66 102.774 119.718 102.832C119.775 102.889 119.807 102.967 119.807 103.049C119.807 103.13 119.775 103.208 119.718 103.265C119.66 103.323 119.583 103.355 119.501 103.355Z" fill="#1D2024"/>
<path d="M92.9304 103.791C95.1871 103.791 97.0165 102.826 97.0165 101.635C97.0165 100.444 95.1871 99.4792 92.9304 99.4792C90.6737 99.4792 88.8442 100.444 88.8442 101.635C88.8442 102.826 90.6737 103.791 92.9304 103.791Z" fill="white"/>
<path d="M133.79 103.791C136.047 103.791 137.876 102.826 137.876 101.635C137.876 100.444 136.047 99.4792 133.79 99.4792C131.533 99.4792 129.704 100.444 129.704 101.635C129.704 102.826 131.533 103.791 133.79 103.791Z" fill="white"/>
<g opacity="0.4">
<path d="M92.9304 103.791C95.1871 103.791 97.0165 102.826 97.0165 101.635C97.0165 100.444 95.1871 99.4792 92.9304 99.4792C90.6737 99.4792 88.8442 100.444 88.8442 101.635C88.8442 102.826 90.6737 103.791 92.9304 103.791Z" fill="#007AFF"/>
<path d="M133.79 103.791C136.047 103.791 137.876 102.826 137.876 101.635C137.876 100.444 136.047 99.4792 133.79 99.4792C131.533 99.4792 129.704 100.444 129.704 101.635C129.704 102.826 131.533 103.791 133.79 103.791Z" fill="#007AFF"/>
</g>
<path d="M146.919 64.487C139.119 55.5105 128.082 50.0073 116.235 49.1879C104.388 48.3684 92.701 52.2999 83.7454 60.1174C68.7834 73.1797 64.1856 94.8962 72.5667 112.934C74.2495 116.548 76.4073 119.92 78.9826 122.961L79.5327 123.614L38.5208 167.243C37.7708 168.053 37.3706 169.127 37.4074 170.231C37.4441 171.335 37.915 172.38 38.7171 173.137C39.5193 173.895 40.5878 174.304 41.6895 174.275C42.7912 174.246 43.8369 173.781 44.5984 172.983L85.6002 129.361L86.2851 129.875C95.1332 136.528 106.125 139.662 117.141 138.675C128.158 137.688 138.42 132.648 145.951 124.528C153.481 116.407 157.747 105.78 157.926 94.6937C158.105 83.6078 154.185 72.8478 146.92 64.487H146.919ZM149.49 96.4795C148.855 105.697 144.758 114.331 138.025 120.64C131.292 126.95 122.423 130.467 113.206 130.482C112.355 130.482 111.501 130.451 110.644 130.39C104.661 129.983 98.8709 128.102 93.7867 124.914C88.7025 121.727 84.4816 117.331 81.4983 112.116C78.515 106.901 76.8615 101.029 76.6844 95.0208C76.5073 89.0122 77.812 83.0525 80.483 77.6705C83.154 72.2884 87.1086 67.6502 91.9962 64.1671C96.8837 60.6841 102.553 58.4639 108.502 57.7033C114.45 56.9428 120.494 57.6655 126.098 59.8073C131.701 61.9491 136.69 65.4438 140.623 69.9816C143.774 73.5922 146.18 77.7929 147.702 82.341C149.224 86.8892 149.832 91.6945 149.49 96.4795Z" fill="#007AFF"/>
</svg>
