<svg width="147" height="147" viewBox="0 0 147 147" fill="none" xmlns="http://www.w3.org/2000/svg">
<path d="M92.0186 0.459175C78.5244 2.84219 68.4469 14.1543 67.5856 27.9355C66.8391 40.2525 74.4475 52.2537 85.9031 56.8187C89.8078 58.3979 92.7076 58.9434 97.043 58.9434C103.101 58.9434 108.298 57.4217 113.064 54.2635C116.365 52.0814 118.461 50.1578 120.586 47.3441C123.4 43.6117 126.041 37.4102 126.041 34.5678C126.041 32.8451 123.945 31.8115 122.653 32.9312C122.309 33.2471 121.792 34.5391 121.332 36.0895C119.179 43.8414 113.954 49.7846 106.661 52.7992C103.359 54.1773 101.034 54.6367 97.1865 54.6367C90.2385 54.6654 84.6973 52.4547 79.7016 47.6887C76.1988 44.3295 73.8445 40.3674 72.61 35.7449C71.7199 32.4719 71.7199 26.6436 72.61 23.3992C75.5672 12.4604 84.6111 5.05293 95.751 4.39257C107.551 3.73222 118.519 11.7139 121.419 23.1121C122.021 25.4664 122.309 26.0406 123.055 26.3852C124.06 26.8445 124.433 26.7871 125.295 26.098C126.213 25.3803 126.271 24.4615 125.438 21.533C121.447 7.12011 106.776 -2.15352 92.0186 0.459175Z" fill="#4CB764"/>
<path d="M53.1152 9.84785C52.2252 10.3072 51.7658 11.5131 52.1391 12.518C52.34 13.0922 53.4598 13.8961 56.5605 15.6762C58.8574 16.9969 60.8672 18.0879 61.0682 18.0879C61.8434 18.0879 62.8482 17.3988 63.1641 16.6236C63.7957 15.1594 63.1354 14.499 58.5703 11.8576C56.3021 10.5369 54.2924 9.47461 54.1201 9.47461C53.9766 9.47461 53.5172 9.64688 53.1152 9.84785Z" fill="#4CB764"/>
<path d="M135.516 11.8576C130.951 14.499 130.319 15.1881 130.922 16.6236C131.238 17.3988 132.243 18.0879 132.989 18.0879C133.477 18.0879 140.942 13.81 141.574 13.1783C142.263 12.4893 142.291 10.8527 141.631 10.2498C140.454 9.1875 139.88 9.35977 135.516 11.8576Z" fill="#4CB764"/>
<path d="M107.953 22.452C107.551 22.5955 104.594 25.3518 101.35 28.5674L95.4639 34.4531L91.4444 30.4336C87.0229 26.0121 86.5061 25.725 85.0705 27.1605C83.7498 28.51 84.1231 29.1416 89.6643 34.6541C94.1432 39.133 94.7174 39.6211 95.6074 39.6211C96.4975 39.6211 97.1865 39.0182 103.704 32.5008C111.14 25.0646 111.341 24.7775 110.537 23.2559C110.164 22.5381 108.843 22.1361 107.953 22.452Z" fill="#4CB764"/>
<path d="M48.3779 27.6199C46.9711 28.3664 46.7127 29.601 47.6889 30.8355L48.2631 31.582H53.4024H58.5416L59.1158 30.8355C60.092 29.601 59.8623 28.3664 58.5416 27.7061C57.5367 27.1893 49.2967 27.1031 48.3779 27.6199Z" fill="#4CB764"/>
<path d="M135.659 27.6199C134.281 28.4238 134.023 29.6297 134.97 30.8355L135.544 31.582H140.684H145.823L146.397 30.8355C147.373 29.601 147.144 28.3664 145.823 27.7061C144.818 27.1605 136.549 27.1031 135.659 27.6199Z" fill="#4CB764"/>
<path d="M56.5605 43.3535C54.4359 44.6168 52.541 45.8514 52.34 46.1098C51.3926 47.4305 52.3687 49.3828 53.9478 49.3828C55.2398 49.3828 62.7334 44.9613 63.1641 43.9564C63.767 42.4922 62.7047 41.0279 61.0969 41.0854C60.7236 41.0854 58.6852 42.1189 56.5605 43.3535Z" fill="#4CB764"/>
<path d="M131.697 41.3725C130.922 41.8318 130.549 43.0377 130.922 43.9277C131.324 44.9039 138.875 49.3828 140.138 49.3828C141.258 49.3828 142.119 48.4641 142.119 47.2869C142.119 46.0811 141.947 45.9375 137.324 43.2387C133.592 41.0854 132.702 40.7982 131.697 41.3725Z" fill="#4CB764"/>
<path d="M67.7004 60.982C64.858 62.0156 64.1115 63.0779 61.1256 70.3418C59.7762 73.6723 58.2832 76.9453 57.7951 77.6344C57.2209 78.4383 55.7854 79.6441 53.8043 80.9935C50.4164 83.2904 45.9662 87.4822 43.1813 91.0137C41.8893 92.6502 41.1141 93.368 39.9082 93.9422C37.6688 95.0619 35.3145 95.6074 32.1563 95.8084L29.4287 95.9519L28.6535 94.4877C28.1654 93.5976 27.3902 92.7363 26.6438 92.2482L25.4379 91.4443L15.2455 91.3582C3.70371 91.2721 3.4166 91.3008 1.60781 93.3105C1.06231 93.9135 0.459377 94.9183 0.287111 95.5213C0.0574235 96.2965 1.68011e-06 103.015 0.0574236 118.346L0.143556 140.052L1.00488 141.315C1.49297 141.976 2.46914 142.866 3.15821 143.268L4.4502 143.985L13.7238 144.071C19.667 144.129 23.543 144.043 24.4904 143.842C26.2992 143.469 27.907 142.263 28.7109 140.655L29.2852 139.535H32.0988H34.8838L37.1807 141.258C41.1141 144.215 45.0188 145.852 49.8996 146.569C53.0291 147.057 60.9246 147.144 61.6998 146.713C61.9869 146.569 62.3889 146.081 62.5611 145.593C62.8482 144.904 62.8482 144.617 62.475 143.87C62.2166 143.382 61.7285 142.923 61.3553 142.866C61.0107 142.779 58.398 142.665 55.5557 142.607C51.4787 142.492 49.8996 142.349 48.0908 141.861C45.0475 141.057 42.2338 139.679 39.8221 137.87C36.7213 135.516 36.4342 135.401 32.7305 135.229L29.4287 135.085L29.3426 117.629L29.2852 100.201H31.2662C34.0512 100.201 37.841 99.4834 40.5686 98.4211C43.1238 97.4449 44.7316 96.0668 48.0908 91.9037C50.2154 89.2623 53.4885 86.3625 56.6754 84.2666C60.8385 81.5391 61.8721 80.0748 64.5422 73.3564C67.2984 66.4945 67.6143 65.8342 68.5904 65.3461C69.825 64.6857 70.9447 64.7719 72.0645 65.6045C74.39 67.2984 75.7682 70.6289 75.3662 73.4713C75.2801 74.1891 74.2752 78.1225 73.1555 82.1994C71.4615 88.4584 71.1457 89.8652 71.2606 91.3008C71.4041 93.4254 72.409 94.9758 74.2752 96.0955L75.6533 96.8994L89.5781 97.043C105.369 97.2152 104.623 97.1004 105.714 99.5121C106.345 100.976 106.23 102.154 105.312 103.445C104.278 104.91 104.077 104.938 94.9758 105.082C86.6496 105.226 86.4199 105.254 85.817 105.857C85.0418 106.632 84.9844 108.011 85.6734 108.786C86.1615 109.331 86.6783 109.36 94.5738 109.446C101.981 109.532 103.044 109.59 103.876 110.049C106.719 111.599 106.575 115.734 103.646 117.198C102.756 117.657 101.694 117.715 94.66 117.715C90.0949 117.715 86.4486 117.83 86.1615 118.002C85.8744 118.145 85.4725 118.634 85.3002 119.122C85.0131 119.811 85.0131 120.098 85.3863 120.816C85.616 121.275 86.0467 121.734 86.2764 121.849C86.5348 121.935 90.0088 122.021 93.9709 122.021C100.287 122.021 101.321 122.079 102.182 122.538C104.938 123.916 105.197 127.477 102.699 129.314C101.924 129.888 101.407 129.917 94.1719 130.061C86.6783 130.204 86.4199 130.233 85.817 130.836C85.0418 131.611 84.9844 132.989 85.6734 133.764C86.1615 134.281 86.6783 134.338 92.966 134.425C100.517 134.511 101.091 134.654 102.24 136.463C103.044 137.755 102.871 140.109 101.895 141.143C100.488 142.693 100.517 142.693 84.7547 142.693C70.3992 142.693 70.1121 142.693 69.3656 143.296C68.332 144.1 68.332 145.593 69.3656 146.397C70.1121 147 70.3992 147 84.9844 147C102.039 147 101.752 147.029 104.364 144.646C106.46 142.722 107.178 140.999 107.034 138.1C106.977 136.233 106.805 135.688 106.058 134.453L105.139 132.989L106.144 132.013C108.814 129.458 109.446 125.696 107.752 122.309L106.862 120.471L108.097 119.093C110.824 116.05 110.996 111.571 108.47 108.441L107.609 107.321L108.326 106.575C109.59 105.283 110.365 103.158 110.365 101.034C110.365 98.6795 109.331 96.4113 107.522 94.8035C105.197 92.765 104.967 92.7363 90.0375 92.7363C77.0889 92.7363 76.7443 92.7363 76.1414 92.1621C75.7969 91.8176 75.5098 91.2146 75.5098 90.784C75.5098 90.3533 76.3998 86.707 77.4908 82.6875C78.6106 78.668 79.5867 74.591 79.6729 73.6435C80.0748 70.0834 78.6967 66.1213 76.1414 63.5086C73.5861 60.8959 70.5141 59.9771 67.7004 60.982ZM24.5191 96.0668C24.9211 96.4687 24.9785 98.823 24.9785 117.686C24.9785 137.066 24.9498 138.932 24.4904 139.277C24.1172 139.593 22.1648 139.679 14.5852 139.679C5.54121 139.679 5.11055 139.65 4.7086 139.133C4.36406 138.645 4.30664 135.257 4.30664 117.6C4.30664 98.5072 4.33535 96.6123 4.79473 96.1242C5.22539 95.6361 5.91446 95.6074 14.6713 95.6074C22.8252 95.6074 24.1459 95.6648 24.5191 96.0668Z" fill="#4CB764"/>
</svg>
