<svg width="228" height="176" viewBox="0 0 228 176" fill="none" xmlns="http://www.w3.org/2000/svg">
<g clip-path="url(#clip0_318_1888)">
<path d="M208.673 175.461C211.216 175.461 213.732 174.947 216.07 173.95C218.408 172.953 220.52 171.493 222.278 169.659C224.035 167.825 225.403 165.655 226.297 163.279C227.192 160.903 227.595 158.371 227.482 155.835C226.863 141.85 217.959 121.807 193.691 103.705C160.018 78.5883 182.219 21.2403 138.018 15.2504C65.3662 5.40729 79.1107 69.7813 34.2499 93.2509C5.69372 108.19 0.501794 137.422 0.5 156.697C0.504676 161.677 2.49056 166.451 6.02096 169.97C9.55136 173.489 14.3372 175.464 19.3261 175.461H208.673Z" fill="#F3F5FD"/>
<path d="M164.541 3.13306H91.1819C85.5642 3.13306 81.0103 7.6792 81.0103 13.2871V162.713C81.0103 168.321 85.5642 172.867 91.1819 172.867H164.541C170.158 172.867 174.712 168.321 174.712 162.713V13.2871C174.712 7.6792 170.158 3.13306 164.541 3.13306Z" fill="white"/>
<path d="M164.541 175.5H91.1822C87.7862 175.496 84.5303 174.148 82.129 171.75C79.7276 169.353 78.3768 166.103 78.3728 162.713V13.2874C78.3768 9.89715 79.7276 6.64693 82.129 4.24969C84.5303 1.85245 87.7862 0.503949 91.1822 0.5H164.541C167.937 0.503949 171.193 1.85245 173.594 4.24969C175.996 6.64693 177.347 9.89715 177.351 13.2874V162.713C177.347 166.103 175.996 169.353 173.594 171.751C171.193 174.148 167.937 175.496 164.541 175.5ZM91.1822 5.76594C89.1851 5.76847 87.2704 6.56159 85.8582 7.97136C84.446 9.38112 83.6516 11.2925 83.649 13.2862V162.713C83.6515 164.706 84.4459 166.618 85.8582 168.028C87.2704 169.437 89.1851 170.23 91.1822 170.233H164.541C166.538 170.23 168.453 169.437 169.865 168.028C171.277 166.618 172.072 164.706 172.074 162.713V13.2874C172.072 11.2936 171.277 9.38232 169.865 7.97255C168.453 6.56278 166.538 5.76967 164.541 5.76714L91.1822 5.76594Z" fill="#DEE8F5"/>
<path d="M111.799 3.13306H143.923V9.35514C143.923 9.96677 143.803 10.5724 143.568 11.1375C143.334 11.7025 142.99 12.216 142.557 12.6485C142.124 13.081 141.609 13.424 141.043 13.6581C140.477 13.8921 139.871 14.0126 139.258 14.0126H116.464C115.227 14.0126 114.04 13.5219 113.165 12.6485C112.29 11.775 111.799 10.5904 111.799 9.35514L111.799 3.13306Z" fill="#DEE8F5"/>
<path d="M26.6848 40.3645C26.6388 35.9273 28.3956 33.1776 30.7772 31.6679C33.1275 30.1782 40.4975 28.8816 43.2916 34.2893C45.1151 37.8181 44.3953 39.0795 44.9118 44.7313C45.4284 50.3831 47.4128 50.9764 49.4258 57.8269C51.0042 63.2006 42.1616 66.0532 34.5056 65.8067C26.8495 65.5602 21.9951 63.867 21.5509 59.0066C20.912 52.0298 26.7745 49.0599 26.6848 40.3645Z" fill="#0F1011"/>
<path d="M31.2468 52.6342C31.2468 52.6342 33.5468 51.3894 32.9732 45.1107L37.7406 44.1829C37.7406 44.1829 37.2557 49.823 39.6882 51.5879L31.2468 52.6342Z" fill="#E98862"/>
<g opacity="0.15">
<path d="M38.6991 50.4174L34.7039 47.4239L37.8197 47.3643C37.9198 48.4278 38.2181 49.4633 38.6991 50.4174Z" fill="#010409"/>
</g>
<path d="M30.2409 42.6967C30.5892 44.6 31.6477 46.3971 33.3379 46.996C35.1808 47.7066 37.1698 47.9564 39.1316 47.7236C44.3558 47.2476 43.2126 35.3901 40.7093 33.1078C38.206 30.8255 30.9341 32.3519 30.0839 36.2153C29.6442 38.2144 29.9097 40.8858 30.2409 42.6967Z" fill="#E98862"/>
<path d="M37.7022 41.1607C37.9414 41.1607 38.1354 40.9671 38.1354 40.7283C38.1354 40.4895 37.9414 40.2959 37.7022 40.2959C37.463 40.2959 37.269 40.4895 37.269 40.7283C37.269 40.9671 37.463 41.1607 37.7022 41.1607Z" fill="#0F1011"/>
<path d="M41.1168 40.8494C41.356 40.8494 41.5499 40.6558 41.5499 40.417C41.5499 40.1782 41.356 39.9846 41.1168 39.9846C40.8775 39.9846 40.6836 40.1782 40.6836 40.417C40.6836 40.6558 40.8775 40.8494 41.1168 40.8494Z" fill="#0F1011"/>
<path d="M41.8568 39.4889C41.9108 39.4889 41.9625 39.4675 42.0007 39.4294C42.0389 39.3913 42.0603 39.3396 42.0603 39.2857C42.0603 39.2318 42.0389 39.1801 42.0007 39.142C41.9625 39.1039 41.9108 39.0824 41.8568 39.0824L40.7094 39.0789C40.6568 39.0809 40.6071 39.1031 40.5706 39.141C40.5341 39.1789 40.5137 39.2294 40.5137 39.2819C40.5137 39.3345 40.5341 39.385 40.5706 39.4229C40.6071 39.4607 40.6568 39.483 40.7094 39.485L41.8568 39.4889Z" fill="#0F1011"/>
<path d="M36.7581 39.953C36.7748 39.953 36.7914 39.951 36.8077 39.947L37.9365 39.665C37.9877 39.6509 38.0313 39.6174 38.0581 39.5716C38.0849 39.5257 38.0927 39.4713 38.0798 39.4198C38.0669 39.3684 38.0344 39.324 37.9892 39.2961C37.944 39.2683 37.8897 39.2592 37.8378 39.2708L36.709 39.5531C36.6608 39.565 36.6187 39.5942 36.5905 39.635C36.5624 39.6758 36.5502 39.7255 36.5562 39.7747C36.5622 39.8239 36.5861 39.8692 36.6233 39.902C36.6605 39.9349 36.7084 39.953 36.7581 39.953Z" fill="#0F1011"/>
<path d="M37.9338 44.1317C37.9338 44.1317 39.5343 44.2854 40.6515 43.884C40.6515 43.884 40.6515 44.9354 39.3879 45.0506C38.1243 45.1658 37.9338 44.1317 37.9338 44.1317Z" fill="white"/>
<path d="M33.7133 37.7262C33.5997 46.3366 32.7684 49.6813 32.7684 49.6813C32.7684 49.6813 28.6843 44.7547 28.0679 39.535C27.49 34.6435 31.0779 31.7193 33.5151 31.1517C42.7761 28.9953 43.4192 35.7387 43.4192 35.7387C42.8213 38.0393 32.7104 39.4666 32.7104 39.4666" fill="#0F1011"/>
<path d="M35.5325 42.6116C35.5745 43.0946 35.4232 43.5745 35.1116 43.9464C34.8001 44.3183 34.3536 44.5518 33.87 44.5959C33.3863 44.64 32.9049 44.491 32.531 44.1816C32.1572 43.8722 31.9213 43.4275 31.875 42.9449C31.8489 42.7044 31.8716 42.4612 31.9416 42.2296C32.0116 41.998 32.1276 41.7829 32.2827 41.597C32.4377 41.4111 32.6287 41.2583 32.8441 41.1476C33.0596 41.0369 33.2951 40.9706 33.5368 40.9527C34.8452 40.8981 35.4401 41.6035 35.5325 42.6116Z" fill="#E98862"/>
<g opacity="0.15">
<path d="M39.6457 43.1087C39.6101 43.1086 39.5757 43.0959 39.5487 43.0727C39.5217 43.0496 39.5038 43.0176 39.4984 42.9824C39.4929 42.9473 39.5001 42.9114 39.5188 42.8812C39.5375 42.8509 39.5664 42.8283 39.6003 42.8174L40.4789 42.5393L39.8511 41.1749C39.8422 41.157 39.837 41.1376 39.8358 41.1176C39.8346 41.0977 39.8375 41.0778 39.8441 41.059C39.8508 41.0402 39.8611 41.0229 39.8746 41.0081C39.8881 40.9934 39.9044 40.9815 39.9225 40.9731C39.9407 40.9648 39.9603 40.9602 39.9803 40.9595C40.0003 40.9589 40.0202 40.9623 40.0388 40.9695C40.0575 40.9767 40.0745 40.9875 40.0889 41.0014C40.1033 41.0152 40.1147 41.0318 40.1225 41.0502L40.8224 42.5679C40.8312 42.5871 40.8359 42.6079 40.8361 42.629C40.8363 42.6501 40.832 42.671 40.8235 42.6903C40.8151 42.7096 40.8026 42.7269 40.7869 42.741C40.7713 42.7552 40.7528 42.7659 40.7327 42.7724L39.693 43.1006C39.6778 43.1058 39.6618 43.1086 39.6457 43.1087Z" fill="#010409"/>
</g>
<path d="M70.5151 66.1261C70.5151 66.1261 72.2732 64.0434 74.1433 63.7133C76.0135 63.3833 75.5462 64.4573 74.4354 65.2586C73.3245 66.0598 70.8183 67.6731 70.8183 67.6731" fill="#E98862"/>
<path d="M71.802 65.4938C71.802 65.4938 75.2915 64.0772 76.7871 64.7179C76.7871 64.7179 78.0907 65.9948 76.8131 67.6722C75.5874 69.281 72.3888 69.8785 72.3888 69.8785L71.802 65.4938Z" fill="#E98862"/>
<path d="M51.6322 172.233L45.3982 171.492C45.6789 169.137 45.9961 166.308 46.0176 165.844C46.0176 165.874 46.0176 165.898 46.0176 165.917H52.2953C52.2941 166.105 52.2941 166.676 51.6322 172.233Z" fill="#E98862"/>
<path d="M26.6185 172.981L20.3408 172.961C20.3408 172.961 20.3617 166.489 20.3617 165.918H26.6394C26.6394 166.491 26.6185 172.981 26.6185 172.981Z" fill="#E98862"/>
<path d="M42.8892 170.253L53.9498 170.065C53.4901 158.438 53.4117 145.139 53.2883 133.104C53.254 130.121 53.0284 127.144 52.6127 124.19C50.8334 111.44 49.6726 98.7644 47.2773 86.0877L47.1972 86.1113L46.9637 84.5207L24.2215 83.1196L23.0377 97.9512C23.0377 97.9512 20.0753 149.264 18.7244 169.896L29.7458 170.826C31.7317 150.597 34.8047 121.122 36.6949 99.8709C38.8655 110.217 40.3419 120.93 42.2294 131.188C42.6052 144.029 42.9242 157.452 42.8892 170.253Z" fill="#262626"/>
<path d="M34.2498 175.405C34.4187 175.404 34.5855 175.369 34.74 175.301C34.8945 175.233 35.0332 175.133 35.1476 175.009C35.262 174.885 35.3495 174.739 35.4047 174.58C35.46 174.421 35.4817 174.252 35.4686 174.084C35.4504 173.851 35.3658 173.628 35.225 173.442C35.0842 173.255 34.8929 173.112 34.6737 173.031L27.3668 170.587C27.2253 170.541 27.0753 170.525 26.9271 170.542C26.7789 170.558 26.636 170.606 26.5083 170.683C25.5037 171.379 24.3021 171.734 23.0801 171.698C22.1283 171.63 21.2146 171.297 20.4435 170.736C20.3757 170.68 20.2934 170.645 20.2064 170.635C20.1194 170.624 20.0311 170.638 19.9519 170.676C19.8727 170.713 19.8058 170.772 19.759 170.847C19.7122 170.921 19.6875 171.006 19.6877 171.094V174.661C19.6877 174.766 19.7086 174.87 19.749 174.967C19.7894 175.064 19.8487 175.153 19.9234 175.227C19.9981 175.301 20.0867 175.36 20.1842 175.4C20.2817 175.44 20.3862 175.46 20.4916 175.46L34.2498 175.405Z" fill="#96C8FF"/>
<path d="M59.2808 175.405C59.4497 175.404 59.6165 175.369 59.771 175.301C59.9254 175.233 60.0642 175.133 60.1785 175.009C60.2929 174.885 60.3804 174.739 60.4356 174.58C60.4908 174.421 60.5125 174.252 60.4993 174.084C60.4812 173.851 60.3967 173.628 60.2559 173.441C60.115 173.255 59.9237 173.112 59.7044 173.031L52.3978 170.587C52.2563 170.541 52.1063 170.525 51.9581 170.542C51.8099 170.558 51.667 170.606 51.5393 170.683C50.5347 171.379 49.3331 171.734 48.1111 171.698C47.1592 171.63 46.2455 171.297 45.4742 170.736C45.4064 170.68 45.3242 170.645 45.2372 170.635C45.1502 170.624 45.062 170.638 44.9828 170.676C44.9037 170.714 44.8368 170.773 44.7901 170.847C44.7433 170.921 44.7186 171.006 44.7188 171.094V174.661C44.7187 174.766 44.7396 174.87 44.78 174.967C44.8204 175.064 44.8797 175.153 44.9544 175.227C45.0291 175.301 45.1177 175.36 45.2152 175.4C45.3127 175.44 45.4172 175.46 45.5226 175.46L59.2808 175.405Z" fill="#96C8FF"/>
<path d="M55.1384 76.4895C54.5926 76.4896 54.0563 76.3476 53.5823 76.0776C53.1083 75.8075 52.713 75.4188 52.4354 74.9497L41.6265 56.6881L47.0312 53.4998L56.5401 69.565L71.5676 64.4336L73.6004 70.363L56.1548 76.3203C55.8276 76.4324 55.4842 76.4895 55.1384 76.4895Z" fill="#007AFF"/>
<path d="M48.4384 85.5201C47.1859 88.3939 22.5744 89.5876 22.2456 84.5324C22.0364 81.3154 24.8763 78.5072 24.8763 72.2374C24.8763 65.9676 19.0978 57.9609 23.8061 53.2608C25.1722 51.897 27.5308 51.0167 30.4066 51.0137C30.6218 52.6878 40.8036 52.6938 40.8813 51.0525C41.2699 51.0584 41.5718 51.0644 41.7602 51.0734C51.6789 51.5001 47.3204 62.7685 47.2247 71.0467C47.1082 80.7332 49.7298 82.5595 48.4384 85.5201Z" fill="#007AFF"/>
<path d="M63.9667 79.3885C63.204 79.3885 62.4702 79.0975 61.9154 78.575L47.4095 64.9109C47.1218 64.6425 46.89 64.32 46.7276 63.9619C46.5651 63.6039 46.475 63.2173 46.4627 62.8244C46.4503 62.4315 46.5158 62.04 46.6554 61.6724C46.795 61.3049 47.006 60.9685 47.2762 60.6826C47.5464 60.3966 47.8706 60.1668 48.23 60.0063C48.5895 59.8458 48.9772 59.7578 49.3708 59.7473C49.7645 59.7369 50.1563 59.8041 50.5238 59.9453C50.8913 60.0864 51.2273 60.2986 51.5124 60.5697L63.8017 72.1455L89.3559 44.0342C89.6183 43.7386 89.9367 43.4979 90.2929 43.3261C90.6491 43.1543 91.0358 43.0547 91.4308 43.0332C91.8258 43.0117 92.2212 43.0687 92.5939 43.2009C92.9667 43.333 93.3095 43.5377 93.6024 43.8031C93.8954 44.0684 94.1327 44.3892 94.3005 44.7468C94.4683 45.1044 94.5634 45.4916 94.5803 45.8862C94.5971 46.2807 94.5353 46.6747 94.3985 47.0452C94.2616 47.4157 94.0525 47.7554 93.7832 48.0447L66.1806 78.4097C65.9135 78.7035 65.5904 78.9413 65.2302 79.109C64.87 79.2767 64.4799 79.371 64.0827 79.3864C64.0441 79.3876 64.0053 79.3885 63.9667 79.3885Z" fill="#27A844"/>
<path d="M40.8812 51.0525C40.8035 52.6938 39.9097 55.108 37.1505 55.2901C33.4736 55.5318 30.6217 52.6878 30.4065 51.0137H30.4155C34.0356 51.0134 38.7707 51.0193 40.8812 51.0525Z" fill="#E98862"/>
<path d="M49.2406 74.0283C49.2406 74.0283 48.5486 70.0978 51.3947 69.7728C53.1904 69.5678 57.705 67.076 58.5614 69.1586C59.3043 70.9656 54.993 73.1166 53.4496 73.5156C52.0664 73.8704 49.2406 74.0283 49.2406 74.0283Z" fill="#E98862"/>
<path d="M50.4243 70.0858C50.4243 70.0858 54.092 68.078 55.0955 68.1248C55.9839 68.1663 54.4725 69.8819 54.4725 69.8819L50.4243 70.0858Z" fill="#E98862"/>
<path d="M34.4541 80.4596C33.8247 80.4596 33.2087 80.2776 32.6807 79.9356C32.1527 79.5936 31.7352 79.1062 31.4788 78.5324L22.3459 58.1204L28.2975 55.4666L36.2543 73.2525L51.5733 68.5589L53.4864 74.7789L35.4107 80.3158C35.1008 80.4111 34.7783 80.4595 34.4541 80.4596Z" fill="#007AFF"/>
<path d="M78.5704 65.3468C78.6486 65.2339 78.686 65.0979 78.6765 64.961C78.6669 64.8241 78.6111 64.6946 78.5181 64.5935C78.0649 64.1044 77.2237 63.3288 76.6701 63.6156C75.8806 64.0241 74.3013 65.5422 74.7399 66.3312C75.1784 67.1203 76.0851 67.9863 76.671 67.7237C77.114 67.5252 78.0641 66.0821 78.5704 65.3468Z" fill="#E98862"/>
<path d="M125.25 114.604H96.3103V126.974H125.25V114.604Z" fill="#27A844"/>
<path d="M159.412 114.604H130.473V126.974H159.412V114.604Z" fill="#96C8FF"/>
<path d="M204.524 175.461H153.092C150.271 168.134 158.747 164.52 161.442 169.269C159.834 166.436 159.406 162.846 162.745 160.535C166.244 158.703 170.458 160.797 171.101 164.111C170.243 159.698 174.33 155.301 178.877 154.301C190.549 151.736 193.151 163.229 192.093 165.035C195.176 159.771 207.922 166.269 204.524 175.461Z" fill="#96C8FF"/>
<path d="M148.743 58.5429C148.75 63.9329 146.658 69.1147 142.907 72.9924C140.091 66.7106 134.409 62.4223 127.865 62.4223C121.315 62.4223 115.632 66.7166 112.816 72.9984C110.446 70.5407 108.717 67.5399 107.78 64.2593C106.842 60.9787 106.726 57.5187 107.44 54.1827C108.155 50.8467 109.679 47.7367 111.878 45.1257C114.077 42.5147 116.885 40.4823 120.054 39.207C123.224 37.9317 126.658 37.4524 130.057 37.8112C133.455 38.1699 136.713 39.3558 139.545 41.2646C142.378 43.1735 144.697 45.7471 146.301 48.7596C147.904 51.7721 148.743 55.1315 148.743 58.5429Z" fill="#96C8FF"/>
<path d="M127.861 60.6903C132.427 60.6903 136.128 56.9953 136.128 52.4374C136.128 47.8795 132.427 44.1846 127.861 44.1846C123.296 44.1846 119.594 47.8795 119.594 52.4374C119.594 56.9953 123.296 60.6903 127.861 60.6903Z" fill="#F3F5FD"/>
<path d="M142.907 72.9924C140.96 75.0141 138.623 76.6226 136.038 77.7214C133.453 78.8203 130.673 79.387 127.863 79.3876C125.053 79.3881 122.272 78.8225 119.687 77.7247C117.101 76.6268 114.765 75.0193 112.816 72.9984C115.632 66.7166 121.315 62.4224 127.865 62.4224C134.408 62.4224 140.091 66.7107 142.907 72.9924Z" fill="#F3F5FD"/>
<path d="M159.412 87.6375H96.3103V90.1529H159.412V87.6375Z" fill="#DEE8F5"/>
<path d="M159.412 94.4856H96.3103V97.001H159.412V94.4856Z" fill="#DEE8F5"/>
<path d="M125.25 101.568H96.3103V104.084H125.25V101.568Z" fill="#DEE8F5"/>
</g>
<defs>
<clipPath id="clip0_318_1888">
<rect width="227" height="175" fill="white" transform="translate(0.5 0.5)"/>
</clipPath>
</defs>
</svg>
