<svg width="144" height="122" viewBox="0 0 144 122" fill="none" xmlns="http://www.w3.org/2000/svg">
<path d="M96.2528 54.8851C86.693 54.8851 76.9619 54.502 67.859 52.0001C58.9274 49.5545 50.7268 44.8099 43.417 39.3215C38.6314 35.749 34.2798 32.909 28.0666 33.3373C21.9829 33.6659 16.1681 35.9183 11.4826 39.7611C3.5789 46.5229 4.76673 59.1789 7.93048 68.0708C12.6818 81.4593 27.1414 90.7344 39.4309 96.7975C53.6278 103.796 69.2296 107.853 84.8656 110.197C98.5713 112.248 116.183 113.747 128.062 104.912C138.969 96.7975 141.962 78.27 139.289 65.7605C138.641 62.0616 136.647 58.7234 133.681 56.3727C126.017 50.8505 114.584 54.5358 105.972 54.7273C102.774 54.795 99.5193 54.8739 96.2528 54.8851Z" fill="#E6F2FF"/>
<path d="M98.0002 8.90419C98.6184 8.90419 99.1195 8.40972 99.1195 7.79975C99.1195 7.18979 98.6184 6.69531 98.0002 6.69531C97.3821 6.69531 96.8809 7.18979 96.8809 7.79975C96.8809 8.40972 97.3821 8.90419 98.0002 8.90419Z" fill="#E6F2FF"/>
<path d="M25.3025 103.098C25.9207 103.098 26.4218 102.603 26.4218 101.993C26.4218 101.383 25.9207 100.889 25.3025 100.889C24.6844 100.889 24.1832 101.383 24.1832 101.993C24.1832 102.603 24.6844 103.098 25.3025 103.098Z" fill="#E6F2FF"/>
<path d="M41.7723 8.2621C42.3904 8.2621 42.8916 7.76763 42.8916 7.15766C42.8916 6.5477 42.3904 6.05322 41.7723 6.05322C41.1541 6.05322 40.653 6.5477 40.653 7.15766C40.653 7.76763 41.1541 8.2621 41.7723 8.2621Z" fill="#E6F2FF"/>
<path d="M130.666 49.6566C131.284 49.6566 131.785 49.1622 131.785 48.5522C131.785 47.9422 131.284 47.4478 130.666 47.4478C130.048 47.4478 129.546 47.9422 129.546 48.5522C129.546 49.1622 130.048 49.6566 130.666 49.6566Z" fill="#E6F2FF"/>
<path d="M68.5671 110.976V115.833" stroke="#E6F2FF" stroke-linecap="round" stroke-linejoin="round"/>
<path d="M66.1 113.409H71.0227" stroke="#E6F2FF" stroke-linecap="round" stroke-linejoin="round"/>
<path d="M118.365 28.5142V33.3714" stroke="#E6F2FF" stroke-linecap="round" stroke-linejoin="round"/>
<path d="M115.898 30.9487H120.82" stroke="#E6F2FF" stroke-linecap="round" stroke-linejoin="round"/>
<path d="M61.9198 21.6729V26.5301" stroke="#E6F2FF" stroke-linecap="round" stroke-linejoin="round"/>
<path d="M59.4642 24.0962H64.3754" stroke="#E6F2FF" stroke-linecap="round" stroke-linejoin="round"/>
<path d="M33.6288 58.0409C41.9615 58.0409 48.7166 51.3756 48.7166 43.1535C48.7166 34.9314 41.9615 28.2661 33.6288 28.2661C25.296 28.2661 18.541 34.9314 18.541 43.1535C18.541 51.3756 25.296 58.0409 33.6288 58.0409Z" fill="#E6F2FF" stroke="#007AFF" stroke-linecap="round" stroke-linejoin="round"/>
<path d="M33.6288 53.9951C39.697 53.9951 44.6162 49.1412 44.6162 43.1536C44.6162 37.1659 39.697 32.312 33.6288 32.312C27.5606 32.312 22.6413 37.1659 22.6413 43.1536C22.6413 49.1412 27.5606 53.9951 33.6288 53.9951Z" fill="#0055B3"/>
<path d="M33.3318 50.1403L33.2633 48.4273C32.3332 48.4593 31.4122 48.237 30.6021 47.7849L30.9676 46.6579C31.7213 47.1052 32.5898 47.3282 33.4689 47.3003C34.691 47.3003 35.4905 46.5227 35.4448 45.5535C35.3991 44.5843 34.7138 44.0659 33.4232 43.6151C31.6414 43.0065 30.5335 42.2627 30.4764 40.7864C30.4599 40.0954 30.7045 39.4231 31.1626 38.9002C31.6207 38.3774 32.2596 38.0414 32.9549 37.9576L32.8864 36.2446H33.9486L34.0171 37.89C34.8099 37.864 35.5963 38.0386 36.3014 38.3972L35.9131 39.5241C35.2449 39.1668 34.4908 38.9954 33.7316 39.0283C32.4067 39.0846 31.9384 39.8848 31.9612 40.561C31.9612 41.44 32.6579 41.857 34.177 42.4092C35.9702 43.0516 36.8953 43.8968 36.9638 45.407C36.9785 46.1338 36.7209 46.8404 36.2404 47.3914C35.7599 47.9425 35.0903 48.2993 34.3597 48.3935L34.4283 50.1628L33.3318 50.1403Z" fill="#E6F2FF"/>
<path d="M105.778 90.9373L49.733 104.822C48.622 105.096 47.4623 105.116 46.3421 104.882C45.2218 104.647 44.1704 104.164 43.2676 103.469C42.3648 102.774 41.6345 101.885 41.1319 100.869C40.6294 99.854 40.368 98.739 40.3674 97.609V37.9354L103.631 22.2704C104.284 22.1095 104.965 22.0975 105.624 22.2352C106.282 22.3729 106.9 22.6567 107.43 23.0651C107.961 23.4735 108.39 23.9957 108.686 24.5923C108.981 25.1888 109.135 25.8439 109.136 26.5079V86.7111C109.134 87.6842 108.803 88.6288 108.195 89.3946C107.586 90.1604 106.736 90.7035 105.778 90.9373Z" fill="#0055B3"/>
<path d="M40.3674 38.3301H119.484C120.064 38.3301 120.639 38.4429 121.176 38.6621C121.712 38.8813 122.199 39.2025 122.61 39.6075C123.02 40.0125 123.346 40.4933 123.568 41.0225C123.79 41.5516 123.904 42.1187 123.904 42.6915V103.165C123.904 103.738 123.79 104.305 123.568 104.834C123.346 105.363 123.02 105.844 122.61 106.249C122.199 106.654 121.712 106.975 121.176 107.195C120.639 107.414 120.064 107.527 119.484 107.527H45.6898C44.2782 107.527 42.9245 106.973 41.9263 105.988C40.9282 105.004 40.3674 103.668 40.3674 102.275V38.3301Z" fill="#E6F2FF" stroke="#007AFF" stroke-linecap="round" stroke-linejoin="round"/>
<path d="M112.768 77.7514C115.468 77.7514 117.657 75.5919 117.657 72.928C117.657 70.264 115.468 68.1045 112.768 68.1045C110.068 68.1045 107.88 70.264 107.88 72.928C107.88 75.5919 110.068 77.7514 112.768 77.7514Z" fill="#0055B3"/>
</svg>
