<svg width="51" height="50" viewBox="0 0 51 50" fill="none" xmlns="http://www.w3.org/2000/svg">
<g clip-path="url(#clip0_319_2386)">
<path d="M50.0859 24.3568C50.0859 37.8077 39.0969 48.712 25.5383 48.712C21.2356 48.712 17.1938 47.6114 13.6754 45.6843L0.0858765 50L4.51572 36.9289C2.28205 33.2605 0.995649 28.9529 0.995649 24.3552C0.99728 10.9042 11.983 0 25.5416 0C39.0985 0.00326083 50.0859 10.9059 50.0859 24.3568ZM25.5367 3.88365C14.158 3.88365 4.90213 13.0694 4.90213 24.3617C4.90213 28.8421 6.36298 32.9899 8.83306 36.3648L6.25701 43.9675L14.1841 41.4485C17.4449 43.5876 21.3465 44.8332 25.5367 44.8332C36.9154 44.8332 46.1745 35.6491 46.1745 24.3568C46.1778 13.0694 36.917 3.88365 25.5367 3.88365ZM37.9344 29.9671C37.7811 29.7209 37.38 29.5709 36.78 29.2709C36.1817 28.9709 33.2192 27.528 32.6698 27.3323C32.1154 27.1318 31.7143 27.0307 31.3133 27.629C30.9171 28.2274 29.7627 29.5709 29.4089 29.972C29.0584 30.3714 28.7078 30.422 28.1062 30.1268C27.5046 29.8236 25.5644 29.1975 23.2655 27.1644C21.4769 25.5796 20.2688 23.628 19.9199 23.0296C19.5661 22.4329 19.884 22.1101 20.1824 21.8134C20.4514 21.5443 20.784 21.1155 21.0856 20.765C21.3873 20.4177 21.4867 20.1715 21.6873 19.7721C21.8846 19.3726 21.7851 19.0253 21.6367 18.7237C21.4867 18.4237 20.2851 15.489 19.7813 14.2939C19.2808 13.1004 18.7802 13.2977 18.4281 13.2977C18.0775 13.2977 17.6764 13.2488 17.2754 13.2488C16.8743 13.2488 16.2221 13.3939 15.6727 13.9922C15.1232 14.5906 13.5678 16.0335 13.5678 18.9715C13.5678 21.9128 15.7216 24.7481 16.0232 25.1459C16.3265 25.5421 20.1873 31.7687 26.303 34.1589C32.4219 36.5474 32.4219 35.7502 33.5241 35.6491C34.6295 35.548 37.0849 34.2062 37.5838 32.8138C38.086 31.4149 38.086 30.2165 37.9344 29.9671Z" fill="#0055B3"/>
</g>
<defs>
<clipPath id="clip0_319_2386">
<rect width="50" height="50" fill="white" transform="translate(0.0858765)"/>
</clipPath>
</defs>
</svg>
