<svg width="24" height="24" viewBox="0 0 24 24" fill="none" xmlns="http://www.w3.org/2000/svg">
<path d="M3.53905 0.22963C3.48749 0.253067 3.39374 0.328068 3.32811 0.39838C3.2203 0.515568 3.21093 0.557755 3.19686 1.10619L3.17811 1.68744H2.62968C1.77186 1.68744 1.27499 1.86088 0.815613 2.31557C0.543738 2.59213 0.360925 2.91557 0.2578 3.314C0.149988 3.71713 0.149988 20.2828 0.2578 20.6859C0.468738 21.4968 1.09218 22.0968 1.89374 22.2656C2.05311 22.2984 3.89999 22.3078 7.5328 22.3031L12.9375 22.289L13.0875 22.1343C13.2187 22.0031 13.2422 21.9515 13.2422 21.7499C13.2422 21.5484 13.2187 21.4968 13.0875 21.3656L12.9375 21.2109L7.46249 21.1874L1.98749 21.164L1.79061 21.0328C1.6828 20.9624 1.53749 20.8171 1.46718 20.7093L1.33593 20.5124L1.32186 13.9124L1.31249 7.31244H11.25H21.1875L21.1969 10.1249L21.2109 12.9374L21.3656 13.0874C21.4969 13.2187 21.5484 13.2421 21.75 13.2421C21.9516 13.2421 22.0031 13.2187 22.1344 13.0874L22.2891 12.9374L22.3031 8.28275C22.3078 5.17025 22.2984 3.55307 22.2656 3.39369C22.1859 3.014 21.9609 2.59682 21.6891 2.32494C21.225 1.86088 20.7328 1.68744 19.8703 1.68744H19.3219L19.3031 1.10151L19.2891 0.515568L19.1344 0.365568C19.0031 0.234318 18.9516 0.21088 18.75 0.21088C18.5484 0.21088 18.4969 0.234318 18.3656 0.365568L18.2109 0.515568L18.1969 1.10151L18.1781 1.68744H15H11.8219L11.8031 1.10151L11.7891 0.515568L11.6344 0.365568C11.5031 0.234318 11.4516 0.21088 11.25 0.21088C11.0484 0.21088 10.9969 0.234318 10.8656 0.365568L10.7109 0.515568L10.6969 1.10151L10.6781 1.68744H7.49999H4.32186L4.30311 1.10151C4.28905 0.520256 4.28905 0.515568 4.14374 0.370255C3.98905 0.215569 3.71249 0.154631 3.53905 0.22963ZM3.19686 3.39838L3.21093 3.98432L3.36561 4.13432C3.49686 4.26557 3.54843 4.289 3.74999 4.289C3.95155 4.289 4.00311 4.26557 4.13436 4.13432L4.28905 3.98432L4.30311 3.39838L4.32186 2.81244H7.49999H10.6781L10.6969 3.39838L10.7109 3.98432L10.8656 4.13432C10.9969 4.26557 11.0484 4.289 11.25 4.289C11.4516 4.289 11.5031 4.26557 11.6344 4.13432L11.7891 3.98432L11.8031 3.39838L11.8219 2.81244H15H18.1781L18.1969 3.39838L18.2109 3.98432L18.3656 4.13432C18.4969 4.26557 18.5484 4.289 18.75 4.289C18.9516 4.289 19.0031 4.26557 19.1344 4.13432L19.2891 3.98432L19.3031 3.39838L19.3219 2.81244H19.8187C20.4516 2.81244 20.6297 2.864 20.8781 3.10775C21.1687 3.40307 21.1875 3.51557 21.1875 4.94057V6.18744H11.25H1.31249V4.93119C1.31249 4.18588 1.33124 3.60463 1.36405 3.49682C1.42499 3.2765 1.76249 2.92963 1.97811 2.86401C2.06249 2.84057 2.36718 2.81713 2.6578 2.81713L3.17811 2.81244L3.19686 3.39838Z" fill="#010409"/>
<path d="M3.53906 9.22969C3.4875 9.25313 3.39375 9.32813 3.32813 9.39844L3.21094 9.525V11.2547V12.9844L3.36563 13.1344L3.51562 13.2891H5.25H6.98438L7.13438 13.1344L7.28906 12.9844V11.25V9.51563L7.13438 9.36563L6.98438 9.21094L5.30625 9.20156C4.3875 9.19688 3.59063 9.21094 3.53906 9.22969ZM6.1875 11.25V12.1875H5.25H4.3125V11.25V10.3125H5.25H6.1875V11.25Z" fill="#010409"/>
<path d="M9.53906 9.22969C9.4875 9.25313 9.39375 9.32813 9.32813 9.39844L9.21094 9.525V11.2547V12.9844L9.36563 13.1344L9.51562 13.2891H11.25H12.9844L13.1344 13.1344L13.2891 12.9844V11.25V9.51563L13.1344 9.36563L12.9844 9.21094L11.3063 9.20156C10.3875 9.19688 9.59063 9.21094 9.53906 9.22969ZM12.1875 11.25V12.1875H11.25H10.3125V11.25V10.3125H11.25H12.1875V11.25Z" fill="#010409"/>
<path d="M18.0281 13.7345C17.3109 13.847 16.4859 14.1751 15.8953 14.5782C15.5062 14.836 15.0047 15.3188 14.7141 15.6985C14.3859 16.1298 13.9922 16.9501 13.8422 17.5079C13.7344 17.9251 13.7203 18.061 13.7203 18.7501C13.7203 19.4392 13.7344 19.5751 13.8422 19.9923C13.9922 20.5501 14.3859 21.3704 14.7141 21.8017C15.0047 22.1813 15.5062 22.6642 15.8953 22.922C16.3172 23.2126 16.9969 23.5173 17.5172 23.6579C17.925 23.7657 18.0656 23.7798 18.75 23.7798C19.4391 23.7798 19.575 23.7657 19.9922 23.6579C21.0937 23.3626 22.1109 22.6876 22.7859 21.8017C23.1141 21.3704 23.5078 20.5501 23.6578 19.9923C23.7656 19.5751 23.7797 19.4392 23.7797 18.7501C23.7797 18.061 23.7656 17.9251 23.6578 17.5079C23.5078 16.9501 23.1141 16.1298 22.7859 15.6985C22.1109 14.8079 21.0797 14.1282 19.9922 13.847C19.4672 13.7157 18.5156 13.6595 18.0281 13.7345ZM19.3594 14.8642C19.7953 14.9345 20.3156 15.1173 20.7187 15.3423C21.1922 15.6095 21.8906 16.3032 22.1578 16.7813C22.8562 18.0282 22.8562 19.472 22.1578 20.7188C21.8906 21.197 21.1922 21.8907 20.7187 22.1579C19.4672 22.8563 18.0281 22.8563 16.7812 22.1579C16.3031 21.8907 15.6094 21.1923 15.3422 20.7188C14.6437 19.4673 14.6437 18.0329 15.3422 16.7813C15.6094 16.3079 16.3031 15.6095 16.7812 15.3423C17.5781 14.897 18.5016 14.7235 19.3594 14.8642Z" fill="#010409"/>
<path d="M18.5391 15.9797C18.4875 16.0031 18.3938 16.0781 18.3281 16.1484L18.2109 16.275V17.6297V18.9844L18.3656 19.1344L18.5156 19.2891H19.5H20.4844L20.6344 19.1344C20.7656 19.0031 20.7891 18.9516 20.7891 18.75C20.7891 18.5484 20.7656 18.4969 20.6344 18.3656L20.4844 18.2109L19.8984 18.1969L19.3172 18.1781L19.3031 17.2219L19.2891 16.2656L19.1438 16.1203C18.9891 15.9656 18.7125 15.9047 18.5391 15.9797Z" fill="#010409"/>
<path d="M3.53906 15.2297C3.4875 15.2531 3.39375 15.3281 3.32813 15.3984L3.21094 15.525V17.2547V18.9844L3.36563 19.1344L3.51562 19.2891H5.25H6.98438L7.13438 19.1344L7.28906 18.9844V17.25V15.5156L7.13438 15.3656L6.98438 15.2109L5.30625 15.2016C4.3875 15.1969 3.59063 15.2109 3.53906 15.2297ZM6.1875 17.25V18.1875H5.25H4.3125V17.25V16.3125H5.25H6.1875V17.25Z" fill="#010409"/>
</svg>
