<svg width="28" height="28" viewBox="0 0 28 28" fill="none" xmlns="http://www.w3.org/2000/svg">
<path d="M9.26953 1.82656C8.87578 2.00703 8.75 2.28047 8.75 2.975V3.48359L7.80937 3.51641C6.74844 3.54922 6.33828 3.63125 5.66562 3.97031C5.17891 4.21641 5.02578 4.32578 4.59922 4.73047C4.01406 5.28281 3.56016 6.06484 3.36875 6.83594C3.21563 7.45938 3.0625 11.0578 3.0625 14.0273C3.0625 16.6086 3.21563 20.4477 3.34141 21.1914C3.63672 22.8648 5.13516 24.3633 6.80859 24.6586C7.54141 24.7844 11.4352 24.9375 14 24.9375C16.6305 24.9375 20.4477 24.7898 21.1914 24.6586C22.8375 24.3688 24.2867 22.9523 24.6313 21.2898C24.8664 20.1633 25.0031 14.432 24.8828 10.7461C24.768 7.30078 24.7023 6.7375 24.3031 5.94453C23.8984 5.14609 23.193 4.42422 22.4328 4.025C21.6727 3.63672 21.2898 3.54922 20.1961 3.51641L19.2609 3.48906L19.2391 2.89297C19.2227 2.25859 19.1734 2.13281 18.8453 1.89219C18.632 1.73359 18.118 1.73359 17.9047 1.89219C17.5766 2.13281 17.5273 2.25859 17.5109 2.90391L17.4891 3.5H14H10.5109L10.4891 2.90391C10.4727 2.25859 10.4234 2.13281 10.1062 1.89766C9.92031 1.76094 9.48828 1.72266 9.26953 1.82656ZM8.76094 5.84609C8.77187 6.34922 8.79375 6.46953 8.89219 6.59531C9.10547 6.88516 9.28047 6.97266 9.625 6.97266C9.96953 6.97266 10.1445 6.88516 10.3578 6.59531C10.4562 6.46953 10.4781 6.34922 10.4891 5.84609L10.5109 5.25H14H17.4891L17.5109 5.84609C17.5273 6.49141 17.5766 6.61719 17.9047 6.85781C18.118 7.01641 18.632 7.01641 18.8453 6.85781C19.1734 6.61719 19.2227 6.49141 19.2391 5.84609L19.2609 5.25H19.9391C21.0984 5.25 21.7109 5.46875 22.3016 6.10859C22.8047 6.65547 23.018 7.28438 23.0234 8.24141V8.75H14H4.97656V8.24141C4.97656 7.30078 5.20078 6.63906 5.6875 6.11406C6.26172 5.48516 6.87969 5.25547 8.02266 5.25547L8.73906 5.25L8.76094 5.84609ZM23.1602 11.9602C23.2258 14.2953 23.1164 19.25 22.9633 20.5898C22.8156 21.9078 21.8914 22.8266 20.5625 22.9633C18.0906 23.2258 9.81094 23.2203 7.41016 22.9633C6.10859 22.8266 5.17891 21.8969 5.03672 20.5898C4.88359 19.2391 4.77422 14.3063 4.83984 11.9602L4.87812 10.5H14H23.1219L23.1602 11.9602Z" fill="black"/>
<path d="M9.1875 13.1961C8.91954 13.2836 8.46016 13.7539 8.37813 14.0328C8.225 14.5469 8.33438 14.957 8.72266 15.3398C9.28047 15.9031 10.0516 15.8922 10.5711 15.3125C11.0633 14.7656 11.0633 14.1094 10.5711 13.5625C10.2156 13.1687 9.70704 13.032 9.1875 13.1961Z" fill="black"/>
<path d="M13.5625 13.1961C13.2945 13.2836 12.8352 13.7539 12.7531 14.0328C12.6 14.5469 12.7094 14.957 13.0977 15.3398C13.6555 15.9031 14.4266 15.8922 14.9461 15.3125C15.4383 14.7656 15.4383 14.1094 14.9461 13.5625C14.5906 13.1687 14.082 13.032 13.5625 13.1961Z" fill="black"/>
<path d="M17.9375 13.1961C17.6695 13.2836 17.2102 13.7539 17.1281 14.0328C16.975 14.5469 17.0844 14.957 17.4727 15.3398C18.0305 15.9031 18.8016 15.8922 19.3211 15.3125C19.8133 14.7656 19.8133 14.1094 19.3211 13.5625C18.9656 13.1687 18.457 13.032 17.9375 13.1961Z" fill="black"/>
<path d="M9.1875 17.5711C8.91954 17.6586 8.46016 18.1289 8.37813 18.4078C8.225 18.9219 8.33438 19.332 8.72266 19.7148C9.28047 20.2781 10.0516 20.2672 10.5711 19.6875C11.0633 19.1406 11.0633 18.4844 10.5711 17.9375C10.2156 17.5437 9.70704 17.407 9.1875 17.5711Z" fill="black"/>
<path d="M13.5625 17.5711C13.2945 17.6586 12.8352 18.1289 12.7531 18.4078C12.6 18.9219 12.7094 19.332 13.0977 19.7148C13.6555 20.2781 14.4266 20.2672 14.9461 19.6875C15.4383 19.1406 15.4383 18.4844 14.9461 17.9375C14.5906 17.5437 14.082 17.407 13.5625 17.5711Z" fill="black"/>
<path d="M17.9375 17.5711C17.6695 17.6586 17.2102 18.1289 17.1281 18.4078C16.975 18.9219 17.0844 19.332 17.4727 19.7148C18.0305 20.2781 18.8016 20.2672 19.3211 19.6875C19.8133 19.1406 19.8133 18.4844 19.3211 17.9375C18.9656 17.5437 18.457 17.407 17.9375 17.5711Z" fill="black"/>
</svg>
