<svg width="21" height="20" viewBox="0 0 21 20" fill="none" xmlns="http://www.w3.org/2000/svg">
<mask id="mask0_654_2968" style="mask-type:alpha" maskUnits="userSpaceOnUse" x="0" y="0" width="21" height="20">
<rect x="0.5" width="20" height="20" fill="#D9D9D9"/>
</mask>
<g mask="url(#mask0_654_2968)">
<path d="M17.125 17.5C15.3889 17.5 13.6736 17.1215 11.9792 16.3646C10.2847 15.6076 8.74306 14.5347 7.35417 13.1458C5.96528 11.7569 4.89236 10.2153 4.13542 8.52083C3.37847 6.82639 3 5.11111 3 3.375C3 3.125 3.08333 2.91667 3.25 2.75C3.41667 2.58333 3.625 2.5 3.875 2.5H7.25C7.44444 2.5 7.61806 2.56597 7.77083 2.69792C7.92361 2.82986 8.01389 2.98611 8.04167 3.16667L8.58333 6.08333C8.61111 6.30556 8.60417 6.49306 8.5625 6.64583C8.52083 6.79861 8.44444 6.93056 8.33333 7.04167L6.3125 9.08333C6.59028 9.59722 6.92014 10.0938 7.30208 10.5729C7.68403 11.0521 8.10417 11.5139 8.5625 11.9583C8.99306 12.3889 9.44444 12.7882 9.91667 13.1562C10.3889 13.5243 10.8889 13.8611 11.4167 14.1667L13.375 12.2083C13.5 12.0833 13.6632 11.9896 13.8646 11.9271C14.066 11.8646 14.2639 11.8472 14.4583 11.875L17.3333 12.4583C17.5278 12.5139 17.6875 12.6146 17.8125 12.7604C17.9375 12.9062 18 13.0694 18 13.25V16.625C18 16.875 17.9167 17.0833 17.75 17.25C17.5833 17.4167 17.375 17.5 17.125 17.5ZM5.52083 7.5L6.89583 6.125L6.54167 4.16667H4.6875C4.75694 4.73611 4.85417 5.29861 4.97917 5.85417C5.10417 6.40972 5.28472 6.95833 5.52083 7.5ZM12.9792 14.9583C13.5208 15.1944 14.0729 15.3819 14.6354 15.5208C15.1979 15.6597 15.7639 15.75 16.3333 15.7917V13.9583L14.375 13.5625L12.9792 14.9583Z" fill="#007AFF"/>
</g>
</svg>
