<svg width="15" height="12" viewBox="0 0 15 12" fill="none" xmlns="http://www.w3.org/2000/svg">
<path d="M8.83334 6.66699C8.27778 6.66699 7.80556 6.47255 7.41667 6.08366C7.02778 5.69477 6.83334 5.22255 6.83334 4.66699C6.83334 4.11144 7.02778 3.63921 7.41667 3.25033C7.80556 2.86144 8.27778 2.66699 8.83334 2.66699C9.38889 2.66699 9.86112 2.86144 10.25 3.25033C10.6389 3.63921 10.8333 4.11144 10.8333 4.66699C10.8333 5.22255 10.6389 5.69477 10.25 6.08366C9.86112 6.47255 9.38889 6.66699 8.83334 6.66699ZM4.16667 8.66699C3.8 8.66699 3.48623 8.53632 3.22534 8.27499C2.964 8.0141 2.83334 7.70033 2.83334 7.33366V2.00033C2.83334 1.63366 2.964 1.31988 3.22534 1.05899C3.48623 0.797659 3.8 0.666992 4.16667 0.666992H13.5C13.8667 0.666992 14.1807 0.797659 14.442 1.05899C14.7029 1.31988 14.8333 1.63366 14.8333 2.00033V7.33366C14.8333 7.70033 14.7029 8.0141 14.442 8.27499C14.1807 8.53632 13.8667 8.66699 13.5 8.66699H4.16667ZM5.5 7.33366H12.1667C12.1667 6.96699 12.2971 6.65299 12.558 6.39166C12.8193 6.13077 13.1333 6.00033 13.5 6.00033V3.33366C13.1333 3.33366 12.8193 3.20299 12.558 2.94166C12.2971 2.68077 12.1667 2.36699 12.1667 2.00033H5.5C5.5 2.36699 5.36934 2.68077 5.108 2.94166C4.84712 3.20299 4.53334 3.33366 4.16667 3.33366V6.00033C4.53334 6.00033 4.84712 6.13077 5.108 6.39166C5.36934 6.65299 5.5 6.96699 5.5 7.33366ZM12.8333 11.3337H1.50001C1.13334 11.3337 0.819561 11.2032 0.558672 10.9423C0.297338 10.681 0.166672 10.367 0.166672 10.0003V2.66699H1.50001V10.0003H12.8333V11.3337Z" fill="#27A844"/>
</svg>
