<svg width="28" height="28" viewBox="0 0 28 28" fill="none" xmlns="http://www.w3.org/2000/svg">
<path d="M13.4375 0.787302C13.3063 0.843552 12.5813 1.51855 11.6562 2.4373C10.4375 3.65605 10.025 4.0248 9.78125 4.13105C9.48125 4.2623 9.44375 4.26855 7.46875 4.2248C5.13125 4.16855 5.05 4.18105 4.61875 4.61855C4.18125 5.0498 4.16875 5.13105 4.225 7.46855C4.26875 9.44355 4.2625 9.48105 4.13125 9.78105C4.025 10.0248 3.65625 10.4373 2.4375 11.6561C1.425 12.6748 0.85 13.2998 0.7875 13.4498C0.73125 13.5811 0.6875 13.8248 0.6875 13.9998C0.6875 14.1748 0.73125 14.4186 0.7875 14.5498C0.85 14.6998 1.425 15.3248 2.4375 16.3436C3.65625 17.5623 4.025 17.9748 4.13125 18.2186C4.2625 18.5186 4.26875 18.5561 4.225 20.5311C4.16875 22.8686 4.18125 22.9498 4.61875 23.3811C5.05 23.8186 5.1375 23.8311 7.41875 23.7811C8.94375 23.7436 9.4375 23.7498 9.66875 23.8123C9.9375 23.8873 10.1313 24.0561 11.5938 25.5061C12.6375 26.5373 13.3063 27.1561 13.4563 27.2186C13.75 27.3373 14.25 27.3373 14.5437 27.2186C14.6938 27.1561 15.3625 26.5373 16.4062 25.5061C17.8687 24.0561 18.0625 23.8873 18.3313 23.8123C18.5625 23.7498 19.0562 23.7436 20.5813 23.7811C22.8625 23.8311 22.95 23.8186 23.3813 23.3811C23.8188 22.9498 23.8313 22.8623 23.7812 20.5811C23.7437 19.0561 23.75 18.5623 23.8125 18.3311C23.8875 18.0623 24.0562 17.8686 25.5063 16.4061C26.5375 15.3623 27.1562 14.6936 27.2188 14.5436C27.3375 14.2498 27.3375 13.7498 27.2188 13.4561C27.1562 13.3061 26.5375 12.6373 25.5063 11.5936C24.0562 10.1311 23.8875 9.9373 23.8125 9.66855C23.75 9.4373 23.7437 8.94355 23.7812 7.41855C23.8313 5.1373 23.8188 5.0498 23.3813 4.61855C22.95 4.18105 22.8687 4.16855 20.5312 4.2248C18.5562 4.26855 18.5188 4.2623 18.2188 4.13105C17.975 4.0248 17.5625 3.65605 16.3438 2.4373C15.325 1.4248 14.7 0.849802 14.55 0.787302C14.2563 0.662302 13.725 0.662302 13.4375 0.787302ZM18.6438 10.1998C19.1688 10.4936 19.4188 11.1248 19.25 11.7498C19.1812 12.0061 18.9062 12.3061 16.325 14.8873C14.6813 16.5373 13.3813 17.7936 13.25 17.8561C12.8688 18.0373 12.4812 18.0373 12.1062 17.8561C11.6438 17.6248 8.86875 14.8311 8.75 14.4748C8.625 14.0873 8.69375 13.5436 8.9125 13.2373C9.25625 12.7436 9.975 12.5436 10.5375 12.7811C10.6687 12.8373 11.175 13.2748 11.725 13.8248L12.6938 14.7748L14.9875 12.4811C16.725 10.7498 17.3438 10.1686 17.5312 10.0936C17.8563 9.9748 18.3062 10.0186 18.6438 10.1998Z" fill="#007AFF"/>
</svg>
