<svg width="36" height="37" viewBox="0 0 36 37" fill="none" xmlns="http://www.w3.org/2000/svg">
<g clip-path="url(#clip0_251_134)">
<path d="M16.7344 0.542187C16.6008 0.556252 16.1859 0.605469 15.8203 0.647655C13.057 0.971096 10.7156 2.21563 9.26016 4.14219C8.43047 5.24609 7.75547 6.67344 7.3125 8.2625C6.88359 9.80235 6.70781 10.9555 6.28594 14.7734C5.90625 18.2961 5.75859 19.1398 5.29453 20.3984C4.95 21.3266 4.65469 21.7906 4.00078 22.3883L3.43828 22.9086L3.87422 23.3094C4.35938 23.7453 5.43516 24.3359 6.40547 24.6945C7.06641 24.9336 8.83125 25.3977 9.61172 25.5383C9.89297 25.5805 10.1039 25.6438 10.0898 25.6719C10.0687 25.7 9.84375 25.8125 9.58359 25.925C9.31641 26.0305 8.54297 26.368 7.86094 26.6633C7.17188 26.9656 6.23672 27.3242 5.78672 27.4648C4.70391 27.8023 4.09219 28.1328 3.55078 28.6602C3.03047 29.1734 2.66484 29.8063 2.46797 30.5234C2.32734 31.0086 2.32031 31.2336 2.32031 33.7719V36.5H18H33.6797V33.7719C33.6797 31.2336 33.6727 31.0086 33.532 30.5234C33.3352 29.8063 32.9695 29.1734 32.4492 28.6602C31.9078 28.1328 31.2961 27.8023 30.2133 27.4648C29.7633 27.3242 28.8281 26.9656 28.1391 26.6633C27.457 26.368 26.6836 26.0305 26.4164 25.925C26.1562 25.8125 25.9312 25.7 25.9102 25.6719C25.8961 25.6438 26.107 25.5805 26.3883 25.5383C27.1055 25.4117 28.9055 24.9406 29.5312 24.7227C30.4523 24.3922 31.6477 23.7383 32.1258 23.3094L32.5617 22.9086L31.9992 22.3883C31.3734 21.8117 31.0641 21.3406 30.7336 20.4828C30.2695 19.2594 30.0938 18.282 29.7141 14.7734C29.3906 11.8625 29.2781 11.0117 29.0672 9.91484C27.9844 4.29688 25.2984 1.43516 20.4187 0.675781C19.7578 0.570312 17.2617 0.478909 16.7344 0.542187ZM18.9141 2.04688C20.0672 2.11719 21.143 2.30703 21.9516 2.58125L22.5 2.76406L22.0641 3.3336C18.5203 7.98125 13.9992 11.3563 9.94219 12.3758C9.43594 12.5023 8.07187 12.7414 8.03672 12.7063C8.00859 12.6781 8.30391 10.7023 8.44453 9.99219C9.30234 5.68203 11.1937 3.32656 14.5055 2.44062C15.5531 2.15937 15.9469 2.10313 17.7539 1.99063C17.8312 1.98359 18.3516 2.01172 18.9141 2.04688ZM25.0594 4.50781C25.9383 5.42891 26.5289 6.46953 27.0211 7.95312C27.3023 8.80391 27.5977 10.0484 27.5414 10.1117C27.4641 10.182 26.2969 9.92188 25.3898 9.62656C24.9117 9.46484 24.0258 9.09219 23.4211 8.78984C22.3102 8.23438 20.8125 7.31328 20.8125 7.17969C20.8125 7.14453 21.1078 6.78594 21.4664 6.39219C22.3453 5.41484 22.732 4.95078 23.3367 4.14219L23.85 3.46016L24.1805 3.70625C24.3703 3.83281 24.7641 4.19844 25.0594 4.50781ZM20.6578 8.94453C21.8883 9.76719 23.6883 10.6531 24.9187 11.0539L25.875 11.3633L25.9453 11.7148C26.2687 13.3039 26.2195 14.9492 25.8117 16.4117C24.9328 19.5336 22.4297 22.6695 19.793 23.9492C18.3516 24.6453 17.7117 24.6594 16.3336 24.0125C13.8305 22.8523 11.3062 19.85 10.343 16.8969C10.0898 16.1445 9.84375 14.8438 9.84375 14.3094V13.9438L10.357 13.8242C12.9516 13.1914 15.9398 11.525 18.5977 9.21172C18.9844 8.88125 19.3641 8.53672 19.4344 8.45234C19.5117 8.375 19.5961 8.30469 19.6313 8.30469C19.6664 8.30469 20.1234 8.59297 20.6578 8.94453ZM27.8719 11.9047C27.9281 12.2422 28.0336 13.1562 28.2656 15.3711C28.6875 19.3508 29.1375 21.1156 30.0516 22.4586C30.15 22.6063 30.2344 22.7398 30.2344 22.7609C30.2344 22.8242 29.3273 23.2039 28.6383 23.4219C27.675 23.7313 26.7117 23.9563 25.5234 24.1531C23.7445 24.4484 23.8078 24.4484 23.632 24.2094C23.5195 24.0477 23.4844 23.893 23.4844 23.5555V23.1195L23.9625 22.5852C25.9102 20.4195 27.1406 17.9937 27.5344 15.5469C27.6609 14.7875 27.675 13.0016 27.5625 12.3477C27.457 11.7289 27.4641 11.6797 27.668 11.6797C27.8086 11.6797 27.8438 11.7219 27.8719 11.9047ZM8.38828 14.8227C8.50078 16.6016 9.30234 18.7812 10.5047 20.6094C11.025 21.4039 11.2922 21.7484 12.0375 22.5852L12.5156 23.1195V23.5695C12.5156 23.9352 12.4875 24.0547 12.3539 24.2234L12.1922 24.4273L10.9617 24.2375C9.59062 24.0266 8.38828 23.7523 7.36172 23.4219C6.67266 23.2039 5.76562 22.8242 5.76562 22.7609C5.76562 22.7398 5.85 22.6063 5.94844 22.4586C6.81328 21.1859 7.3125 19.3227 7.66406 16.0109C7.86797 14.0914 7.83984 14.2109 8.11406 14.2109H8.34609L8.38828 14.8227ZM14.5758 24.7648C17.0648 26.3609 18.9422 26.3609 21.4383 24.7578C21.7547 24.5539 22.0219 24.3992 22.0359 24.4133C22.043 24.4273 22.1344 24.5891 22.2398 24.7719C22.3453 24.9477 22.5141 25.2008 22.6195 25.3273C23.1117 25.9109 24.5672 26.7898 26.0508 27.3945C26.4023 27.5352 27.1758 27.8727 27.7734 28.1328C28.3711 28.393 29.1797 28.7094 29.5664 28.8359C30.6141 29.1664 30.7969 29.2438 31.1555 29.5109C31.5141 29.7711 31.7672 30.1016 32.0062 30.6289C32.1609 30.9664 32.168 31.0648 32.1891 33.0055L32.2102 35.0234H18H3.78281L3.81094 32.9984C3.83203 31.0719 3.83906 30.9664 3.99375 30.6289C4.23281 30.1016 4.48594 29.7711 4.84453 29.5109C5.20312 29.2438 5.38594 29.1664 6.43359 28.8359C6.82031 28.7094 7.62891 28.393 8.22656 28.1328C8.82422 27.8727 9.60469 27.5352 9.94922 27.3945C11.475 26.7688 12.9094 25.8969 13.4156 25.2852C13.5352 25.1375 13.7039 24.8773 13.7953 24.7086C13.8867 24.5469 13.9711 24.4062 13.9852 24.4062C13.9992 24.4062 14.2664 24.568 14.5758 24.7648Z" fill="#007AFF"/>
</g>
<defs>
<clipPath id="clip0_251_134">
<rect width="36" height="36" fill="white" transform="translate(0 0.5)"/>
</clipPath>
</defs>
</svg>
