<svg width="30" height="31" viewBox="0 0 30 31" fill="none" xmlns="http://www.w3.org/2000/svg">
<rect width="30" height="31" rx="5" fill="#EBEBEB"/>
<path d="M17.7934 3.03177C17.1424 3.18515 16.6068 3.50675 16.1035 4.05101C15.7803 4.39735 15.6649 4.56557 15.4894 4.93666C15.3694 5.18899 15.254 5.49575 15.2262 5.60955L15.1755 5.82725H9.48714H3.79882L3.59566 5.9361C3.31402 6.08948 3.17089 6.36161 3.19397 6.68321C3.21706 6.95039 3.31864 7.13346 3.54949 7.29673L3.70186 7.41053H9.43173H15.1616L15.2632 7.77172C15.5541 8.79095 16.3759 9.70134 17.3455 10.0823C18.2828 10.4485 19.2339 10.3792 20.1389 9.87451C20.933 9.42922 21.6441 8.46935 21.8565 7.54412L21.8888 7.41053H24.0958H26.2982L26.4505 7.29673C26.6814 7.13346 26.783 6.95039 26.806 6.68321C26.8291 6.36161 26.686 6.08948 26.4044 5.9361C26.2012 5.82725 26.1873 5.82725 24.0404 5.82725H21.8842L21.8334 5.6145C21.741 5.24342 21.4317 4.62495 21.1639 4.2786C20.5129 3.43749 19.5156 2.94766 18.4767 2.9625C18.2551 2.96745 17.9457 2.99714 17.7934 3.03177ZM19.1139 4.63484C19.8249 4.87233 20.3282 5.5007 20.4575 6.31708C20.6745 7.66781 19.5248 8.9196 18.2643 8.70684C17.1008 8.51388 16.339 7.28684 16.6391 6.09938C16.7361 5.7184 16.9946 5.26815 17.2439 5.04551C17.4471 4.86244 17.8396 4.64474 18.0612 4.59031C18.3428 4.5161 18.8184 4.54083 19.1139 4.63484Z" fill="#1D2024"/>
<path d="M10.6368 12.0614C9.45483 12.3929 8.54987 13.3083 8.18511 14.5452L8.10662 14.8272L5.87654 14.8421C3.70649 14.8569 3.64646 14.8618 3.5218 14.9608C3.27709 15.1538 3.20322 15.3121 3.20322 15.6238C3.20322 15.9355 3.27709 16.0938 3.5218 16.2868C3.64646 16.3858 3.70649 16.3907 5.88116 16.4055L8.11586 16.4204L8.18973 16.6975C8.41135 17.5089 9.01158 18.3302 9.70877 18.7854C9.8519 18.8745 10.1474 19.018 10.369 19.1021C10.7153 19.2307 10.8631 19.2555 11.3432 19.2752C12.045 19.3049 12.3959 19.2258 13.0146 18.8992C13.7903 18.4935 14.4783 17.6425 14.7322 16.7766L14.8384 16.4154L20.596 16.4055C26.3259 16.3907 26.3536 16.3907 26.4782 16.2868C26.7229 16.0938 26.7968 15.9355 26.7968 15.6238C26.7968 15.3121 26.7229 15.1538 26.4782 14.9608C26.3536 14.8569 26.3259 14.8569 20.596 14.8421L14.8384 14.8322L14.7322 14.466C14.4783 13.6002 13.7811 12.7393 12.9962 12.3335C12.7653 12.2148 12.4421 12.0812 12.2759 12.0416C11.8557 11.9328 11.0477 11.9427 10.6368 12.0614ZM12.1051 13.6398C13.2409 14.0603 13.7534 15.4506 13.2039 16.6035C12.9916 17.0537 12.5945 17.4099 12.1051 17.6029C11.865 17.6969 11.7495 17.7118 11.3894 17.692C11.0293 17.6771 10.9092 17.6474 10.6461 17.5188C9.6626 17.024 9.23782 15.7475 9.70877 14.7085C9.93501 14.2236 10.2721 13.8921 10.7846 13.6645C11.1355 13.5111 11.7218 13.5012 12.1051 13.6398Z" fill="#1D2024"/>
<path d="M17.9319 20.9872C16.676 21.2494 15.6187 22.234 15.2632 23.4759L15.1616 23.8371H9.43173H3.70186L3.54949 23.946C3.31864 24.1142 3.21706 24.2972 3.19397 24.5644C3.17089 24.886 3.31402 25.1582 3.59566 25.3115L3.79882 25.4204H9.48714H15.1755L15.2262 25.6381C15.254 25.7519 15.374 26.0586 15.494 26.3159C15.8496 27.0828 16.5006 27.7062 17.304 28.0575C18.5875 28.6166 20.2543 28.1515 21.1593 26.974C21.4548 26.593 21.6995 26.1081 21.8103 25.7074L21.8842 25.4204H24.045C26.1873 25.4204 26.2012 25.4204 26.4044 25.3115C26.686 25.1582 26.8291 24.886 26.806 24.5644C26.783 24.2972 26.6814 24.1142 26.4505 23.9509L26.2982 23.8371H24.0958H21.898L21.8149 23.5501C21.6441 22.9614 21.3763 22.5062 20.933 22.0312C20.4667 21.5265 20.0281 21.2445 19.4325 21.0713C18.9846 20.9377 18.3474 20.9031 17.9319 20.9872ZM18.9708 22.5804C19.9542 22.8179 20.6237 23.8816 20.4575 24.9306C20.3605 25.5342 20.065 26.0339 19.6125 26.3555C18.7122 26.9987 17.4748 26.7266 16.893 25.7568C16.2651 24.7178 16.6252 23.2879 17.6502 22.7486C18.1166 22.5012 18.4675 22.4567 18.9708 22.5804Z" fill="#1D2024"/>
</svg>
