<svg width="24" height="24" viewBox="0 0 24 24" fill="none" xmlns="http://www.w3.org/2000/svg">
<path d="M11.2359 0.112501C11.0859 0.173439 10.8844 0.281252 10.7906 0.346876C10.6922 0.412502 8.32501 2.76094 5.52188 5.56406C1.41563 9.67969 0.407819 10.7109 0.309382 10.9078C-0.140618 11.8172 0.00938198 12.8109 0.698444 13.5047C1.12969 13.9313 1.67813 14.1563 2.30626 14.1563H2.62501V17.9063C2.62501 20.4422 2.64376 21.7313 2.67657 21.9C2.85469 22.7531 3.54376 23.5266 4.39688 23.8219C4.70626 23.9297 4.72969 23.9297 6.99376 23.9297C9.22501 23.9297 9.27657 23.9297 9.40313 23.8313C9.47344 23.7797 9.57657 23.6766 9.62813 23.6063C9.72657 23.4797 9.72657 23.4188 9.75001 20.3484L9.77344 17.2172L9.91407 16.9875C10.0922 16.7016 10.4531 16.4719 10.8 16.4297C10.9313 16.4109 11.5875 16.4063 12.2578 16.4156L13.4766 16.4297L13.725 16.5656C13.9594 16.6969 14.1094 16.8516 14.2547 17.1094C14.3063 17.2078 14.325 17.7844 14.3438 20.3531C14.3672 23.4188 14.3672 23.4797 14.4656 23.6063C14.5172 23.6766 14.6203 23.7797 14.6906 23.8313C14.8172 23.9297 14.8688 23.9297 17.1 23.9297C19.3641 23.9297 19.3875 23.9297 19.6969 23.8219C20.55 23.5266 21.2391 22.7531 21.4172 21.9C21.45 21.7313 21.4688 20.4422 21.4688 17.9063V14.1563H21.7875C22.6688 14.1563 23.4375 13.6875 23.8172 12.9141C23.9766 12.5906 23.9766 12.5813 23.9766 11.9531C23.9766 10.8844 24.5156 11.5172 18.4969 5.50313C12.5156 -0.482811 13.1156 0.032814 12.0938 0.00937653C11.5641 1.90735e-06 11.4844 0.00937653 11.2359 0.112501ZM12.3938 1.45313C12.6703 1.58438 22.4672 11.3953 22.5703 11.6344C22.6688 11.8734 22.6594 12.075 22.5422 12.3094C22.3688 12.6703 22.2234 12.7219 21.3188 12.75C20.4703 12.7734 20.4094 12.7922 20.1844 13.0969C20.0859 13.2234 20.0859 13.275 20.0625 17.475L20.0391 21.7266L19.9078 21.9469C19.8375 22.0688 19.7109 22.2234 19.6266 22.2844C19.2984 22.5375 19.2 22.5469 17.4094 22.5469H15.75V19.9219C15.75 18.2016 15.7313 17.2172 15.6984 17.0531C15.5156 16.1719 14.8078 15.4125 13.8984 15.1266C13.5891 15.0281 13.4859 15.0234 12.0469 15.0234C10.3688 15.0234 10.2844 15.0328 9.68438 15.3375C9.08907 15.6375 8.53594 16.3781 8.39532 17.0531C8.36251 17.2172 8.34376 18.2016 8.34376 19.9219V22.5469H6.68438C4.89376 22.5469 4.79532 22.5375 4.46719 22.2844C4.38282 22.2234 4.25626 22.0688 4.18594 21.9469L4.05469 21.7266L4.03126 17.475C4.00782 13.275 4.00782 13.2234 3.90938 13.0969C3.68438 12.7922 3.62344 12.7734 2.77501 12.75C1.87032 12.7219 1.72501 12.6703 1.55157 12.3094C1.43438 12.075 1.42501 11.8734 1.52344 11.6344C1.62188 11.4 11.4234 1.58906 11.6953 1.45313C11.9344 1.33594 12.1547 1.33594 12.3938 1.45313Z" fill="#007AFF"/>
</svg>
