<svg width="9" height="14" viewBox="0 0 9 14" fill="none" xmlns="http://www.w3.org/2000/svg">
<path d="M4.5 13.6663C3.32222 13.6663 2.36111 13.4803 1.61667 13.1083C0.872222 12.7359 0.5 12.2552 0.5 11.6663C0.5 11.2775 0.661111 10.9386 0.983333 10.6497C1.30556 10.3608 1.75 10.133 2.31667 9.96634L2.7 11.233C2.51111 11.2886 2.33889 11.3581 2.18333 11.4417C2.02778 11.5248 1.92222 11.5997 1.86667 11.6663C2.01111 11.8441 2.34444 11.9997 2.86667 12.133C3.38889 12.2663 3.93333 12.333 4.5 12.333C5.06667 12.333 5.614 12.2663 6.142 12.133C6.66956 11.9997 7.00556 11.8441 7.15 11.6663C7.09444 11.5997 6.98889 11.5248 6.83333 11.4417C6.67778 11.3581 6.50556 11.2886 6.31667 11.233L6.7 9.96634C7.26667 10.133 7.70844 10.3608 8.02533 10.6497C8.34178 10.9386 8.5 11.2775 8.5 11.6663C8.5 12.2552 8.12778 12.7359 7.38333 13.1083C6.63889 13.4803 5.67778 13.6663 4.5 13.6663ZM4.5 9.21634C4.7 8.84967 4.91111 8.51345 5.13333 8.20767C5.35556 7.90234 5.57222 7.61079 5.78333 7.33301C6.19444 6.79967 6.52222 6.31901 6.76667 5.89101C7.01111 5.46345 7.13333 4.93301 7.13333 4.29967C7.13333 3.56634 6.87778 2.94412 6.36667 2.43301C5.85556 1.9219 5.23333 1.66634 4.5 1.66634C3.76667 1.66634 3.14444 1.9219 2.63333 2.43301C2.12222 2.94412 1.86667 3.56634 1.86667 4.29967C1.86667 4.93301 1.98889 5.46345 2.23333 5.89101C2.47778 6.31901 2.80556 6.79967 3.21667 7.33301C3.42778 7.61079 3.64444 7.90234 3.86667 8.20767C4.08889 8.51345 4.3 8.84967 4.5 9.21634ZM4.5 11.6663C4.37778 11.6663 4.26667 11.6301 4.16667 11.5577C4.06667 11.4857 3.99444 11.3886 3.95 11.2663C3.69444 10.4775 3.37222 9.81634 2.98333 9.28301C2.59444 8.74967 2.21667 8.23856 1.85 7.74967C1.49444 7.26079 1.18622 6.75523 0.925333 6.23301C0.664 5.71079 0.533333 5.06634 0.533333 4.29967C0.533333 3.18856 0.916667 2.24967 1.68333 1.48301C2.45 0.716341 3.38889 0.333008 4.5 0.333008C5.61111 0.333008 6.55 0.716341 7.31667 1.48301C8.08333 2.24967 8.46667 3.18856 8.46667 4.29967C8.46667 5.06634 8.33889 5.71079 8.08333 6.23301C7.82778 6.75523 7.51667 7.26079 7.15 7.74967C6.79445 8.23856 6.41956 8.74967 6.02533 9.28301C5.63067 9.81634 5.30556 10.4775 5.05 11.2663C5.00556 11.3886 4.93333 11.4857 4.83333 11.5577C4.73333 11.6301 4.62222 11.6663 4.5 11.6663ZM4.5 5.71634C4.88889 5.71634 5.22222 5.57745 5.5 5.29967C5.77778 5.0219 5.91667 4.68856 5.91667 4.29967C5.91667 3.91079 5.77778 3.57745 5.5 3.29967C5.22222 3.0219 4.88889 2.88301 4.5 2.88301C4.11111 2.88301 3.77778 3.0219 3.5 3.29967C3.22222 3.57745 3.08333 3.91079 3.08333 4.29967C3.08333 4.68856 3.22222 5.0219 3.5 5.29967C3.77778 5.57745 4.11111 5.71634 4.5 5.71634Z" fill="#27A844"/>
</svg>
