<svg width="36" height="37" viewBox="0 0 36 37" fill="none" xmlns="http://www.w3.org/2000/svg">
<path d="M16.4181 1.13985C14.5899 1.35781 13.1556 2.01875 12.2626 3.06641C12.0868 3.27735 11.7634 3.54453 11.5454 3.6711C11.0532 3.94531 10.1743 4.83125 9.85791 5.36563C9.49932 5.96328 9.2251 6.69454 9.09854 7.37657C8.92979 8.26954 8.99307 11.2156 9.19697 11.9117L9.3376 12.3898L9.18994 12.7555C8.97197 13.2898 8.979 14.7594 9.20401 15.3711C9.49229 16.1656 9.93526 16.693 10.5892 17.0305C10.8353 17.15 10.8634 17.2063 11.0181 17.7406C11.3767 18.9711 11.8548 19.9273 12.5368 20.7711L12.9376 21.2773L12.9235 22.543C12.9024 23.7313 12.8954 23.8297 12.7267 24.1531C12.0517 25.475 9.85791 26.6211 6.15244 27.5984C3.97979 28.168 2.96025 28.6672 2.09541 29.5953C1.08291 30.6781 0.661035 31.9578 0.583691 34.2289L0.541504 35.375H0.956348C1.70869 35.375 1.65947 35.4523 1.70869 34.1586C1.75791 32.7664 1.8915 32.0773 2.25713 31.3039C2.4751 30.8398 2.64385 30.6078 3.0165 30.2422C3.76885 29.5109 4.64775 29.1031 6.37744 28.6672C7.43213 28.4 8.39541 28.1117 9.19697 27.8164L9.71025 27.6336L10.4696 28.3578C12.0095 29.8344 13.8095 30.7766 15.961 31.2336C16.9595 31.4445 18.8228 31.4656 19.8634 31.2688C22.0079 30.868 23.9485 29.8695 25.5235 28.3648L26.2829 27.6336L27.2251 27.957C27.7384 28.1328 28.7157 28.4281 29.3907 28.6039C31.4228 29.1313 32.2314 29.4969 32.9837 30.2422C33.9329 31.1773 34.3126 32.457 34.3126 34.7281C34.3126 35.5508 34.3196 35.6 34.4884 35.7617C34.8048 36.0852 35.297 35.9305 35.4095 35.4734C35.4376 35.368 35.4376 34.7703 35.4165 34.1516C35.3392 31.8594 34.8399 30.4602 33.7431 29.4336C32.7938 28.5406 31.9571 28.1539 29.672 27.5352C26.2126 26.607 23.9485 25.3977 23.2595 24.118C23.1118 23.8297 23.0978 23.7102 23.0767 22.557L23.0485 21.3055L23.2946 21.0102C24.0962 20.0328 24.5884 18.9992 25.0735 17.2977C25.0876 17.2414 25.2353 17.1289 25.397 17.0586C25.7837 16.8898 26.311 16.3625 26.536 15.9055C26.9579 15.0758 27.0564 13.6414 26.7399 12.8328L26.5993 12.4672L26.7399 11.8484C26.9438 10.9695 26.9579 8.15001 26.7681 7.26407C26.6063 6.54688 26.3743 5.85781 26.1282 5.36563L25.9454 5L26.1142 4.6625C26.4798 3.94531 26.5431 2.67969 26.2267 2.36329C26.0931 2.23672 25.9876 2.22266 24.9399 2.21563C23.5688 2.20156 22.8024 2.08204 21.6282 1.68828C20.3556 1.25938 19.6384 1.13282 18.211 1.09766C17.536 1.0836 16.7274 1.09766 16.4181 1.13985ZM19.9688 2.36329C20.2993 2.42656 20.8548 2.58828 21.2064 2.72188C22.2048 3.09453 23.5267 3.3125 24.7642 3.3125H25.2634L25.2142 3.64297C25.1931 3.81875 25.0595 4.16328 24.9259 4.40938C24.7923 4.64844 24.6798 4.8875 24.6798 4.94375C24.6798 4.99297 24.8345 5.35156 25.0314 5.73828C25.5728 6.80703 25.7415 7.56641 25.7837 9.08516C25.8188 10.2805 25.7274 11.4969 25.5939 11.6375C25.5165 11.7148 25.1509 11.2086 24.8415 10.5898C23.8149 8.55782 22.7532 7.73516 21.136 7.72813C20.7845 7.72813 20.1165 7.78438 19.6524 7.85469C18.4079 8.0375 17.0017 8.03047 16.2774 7.82657C15.6235 7.63672 15.061 7.34844 14.597 6.96875C14.0415 6.51172 13.7251 6.60313 13.4298 7.32032C13.1345 8.0375 12.572 9.11329 12.1993 9.67579C11.7001 10.4211 11.2712 10.8922 10.7438 11.293L10.3079 11.6234L10.2446 11.4195C10.2095 11.3141 10.1673 10.4914 10.1462 9.60547C10.104 7.7 10.1743 7.26406 10.6243 6.33594C10.9899 5.59766 11.7001 4.84532 12.347 4.52188C12.6353 4.38125 12.8321 4.2125 12.9728 4.01563C13.6196 3.0875 14.8853 2.45469 16.4884 2.26485C17.304 2.16641 19.2587 2.22266 19.9688 2.36329ZM14.8642 8.57891C16.1017 9.20469 17.7399 9.34532 19.9688 9.01485C21.1431 8.8461 21.5509 8.86016 22.0642 9.08516C22.6899 9.35235 23.0696 9.78829 23.7657 11.0258C24.3845 12.1297 24.7149 12.5234 25.2142 12.7766C25.5798 12.9664 25.636 13.0227 25.7204 13.3039C25.861 13.775 25.7978 14.7875 25.6009 15.2305C25.3618 15.7719 24.9048 16.1797 24.5462 16.1797C24.2439 16.1797 24.061 16.4609 23.8782 17.2344C23.5548 18.6125 23.0274 19.6461 22.2118 20.5039C21.7267 21.0172 21.5017 21.1789 20.4188 21.8609C19.5821 22.3813 19.2376 22.4656 17.9298 22.4656C16.4251 22.4586 16.2634 22.4023 14.5407 21.2633C14.2806 21.0875 14.0485 20.8836 14.0274 20.8133C13.9993 20.7359 13.8868 20.6164 13.7743 20.5461C13.1837 20.1875 12.4032 18.6969 11.9884 17.1359C11.8899 16.7914 11.7704 16.4609 11.7071 16.3906C11.6438 16.3203 11.447 16.2219 11.2642 16.1727C10.8493 16.0602 10.4134 15.6313 10.2446 15.1602C10.1743 14.9633 10.097 14.5203 10.0759 14.1758C10.0267 13.4094 10.1251 12.9805 10.3571 12.9172C10.6595 12.8398 11.5735 12.1789 12.0798 11.6727C12.6845 11.068 13.4368 9.97813 13.929 8.99376C14.1188 8.61407 14.2806 8.30469 14.2946 8.30469C14.3017 8.30469 14.5618 8.43126 14.8642 8.57891ZM14.829 22.6836C15.6587 23.2742 16.3267 23.4781 17.5782 23.5414C19.1884 23.6188 20.0673 23.4078 21.1993 22.6906L21.9024 22.2477L21.9446 23.1477C21.9798 24.0055 21.9939 24.0617 22.247 24.582C22.4298 24.9547 22.6618 25.2781 22.9853 25.6016C23.4353 26.0586 24.4899 26.8109 24.947 27.0008C25.0735 27.05 25.172 27.1203 25.172 27.1555C25.172 27.1836 24.954 27.4086 24.6798 27.6477C22.8657 29.2789 20.7704 30.1648 18.4571 30.2914C15.9048 30.425 13.3735 29.4898 11.3204 27.6477C11.0462 27.4086 10.8282 27.1836 10.8282 27.1555C10.8282 27.1273 10.9688 27.0359 11.1446 26.9516C12.2696 26.4031 13.3243 25.4469 13.7532 24.5891C14.0134 24.0477 14.0204 24.0125 14.0485 23.1336L14.0767 22.2336L14.2876 22.3391C14.4071 22.4023 14.6462 22.557 14.829 22.6836Z" fill="#007AFF"/>
</svg>
