<svg width="24" height="25" viewBox="0 0 24 25" fill="none" xmlns="http://www.w3.org/2000/svg">
<g clip-path="url(#clip0_258_550)">
<path d="M11.5078 0.565718C11.1141 0.664156 10.8187 0.832905 10.5187 1.13291C10.0359 1.61572 9.89062 2.04697 9.89062 3.02197V3.61728L9.525 3.75322C7.32187 4.56884 5.63906 6.37353 5.01094 8.60947C4.79062 9.37822 4.77656 9.58447 4.73437 11.797C4.69219 14.1032 4.66875 14.3985 4.40156 15.5001C4.11094 16.686 3.58125 17.8907 2.89219 18.9313C2.59219 19.386 2.32031 19.7329 1.62187 20.5392C1.34062 20.8673 1.44375 21.397 1.82812 21.5938C2.00625 21.6829 2.09531 21.6876 5.2875 21.6876H8.56875L8.59687 21.847C8.71875 22.4985 9.29062 23.3423 9.9375 23.8204C10.2234 24.0313 10.7391 24.2798 11.1094 24.3876C11.4891 24.4954 12.4125 24.5095 12.7969 24.411C13.9781 24.1157 14.9578 23.2157 15.3141 22.1048L15.4453 21.6876H18.7172C21.9 21.6876 21.9937 21.6829 22.1719 21.5938C22.2938 21.5329 22.3922 21.4345 22.4531 21.3126C22.6313 20.9657 22.5609 20.7173 22.1766 20.3048C20.9813 19.0251 20.0297 17.2579 19.5984 15.5001C19.3312 14.4126 19.3031 14.1079 19.2656 11.797C19.2234 9.57978 19.2094 9.38291 18.9891 8.60478C18.3656 6.37822 16.6031 4.49853 14.4281 3.72978L14.1094 3.61728V3.02197C14.1094 2.05165 13.9641 1.61572 13.4766 1.12822C12.9516 0.59853 12.2156 0.387592 11.5078 0.565718ZM12.3281 2.00009C12.6094 2.1454 12.7031 2.36572 12.7031 2.90009V3.33603H12H11.2969V2.89072C11.3016 2.36572 11.3719 2.18759 11.6531 2.01884C11.8781 1.88291 12.0844 1.87822 12.3281 2.00009ZM12.8438 4.78916C13.5188 4.89228 13.9359 5.02353 14.5547 5.32353C16.2094 6.13447 17.3297 7.57353 17.7422 9.40634C17.8078 9.69228 17.8312 10.161 17.8594 11.8907C17.8922 13.672 17.9109 14.122 17.9906 14.6329C18.2906 16.536 18.9234 18.1907 19.9359 19.7048C20.1187 19.9813 20.2828 20.2251 20.2875 20.2438C20.2969 20.2673 16.5656 20.2813 12 20.2813C7.43437 20.2813 3.70312 20.2673 3.7125 20.2438C3.72187 20.2251 3.88125 19.9813 4.06406 19.7048C5.07187 18.1954 5.71406 16.5173 6.00937 14.6376C6.08906 14.1267 6.10781 13.6673 6.14062 11.8907C6.16875 10.161 6.19219 9.69228 6.25781 9.40634C6.52031 8.23447 7.04531 7.27353 7.87031 6.44853C8.39062 5.93291 8.86875 5.59541 9.53437 5.27666C10.5609 4.78916 11.7281 4.61572 12.8438 4.78916ZM13.9688 21.7157C13.9688 21.8329 13.6266 22.3438 13.4297 22.522C12.6094 23.272 11.4094 23.2813 10.5891 22.5454C10.3687 22.3438 10.1156 21.9876 10.0547 21.7907L10.0266 21.6876H11.9953C13.0828 21.6876 13.9688 21.7017 13.9688 21.7157Z" fill="white"/>
<path d="M4.66876 3.02656C4.51876 3.12969 3.94689 3.74844 3.63283 4.15625C2.45626 5.68438 1.67814 7.66719 1.5047 9.59375C1.4297 10.4094 1.43908 10.6906 1.54689 10.9063C1.6547 11.1172 1.92189 11.2812 2.15626 11.2812C2.56876 11.2812 2.85939 10.9344 2.85939 10.4422C2.85939 10.025 2.94376 9.25156 3.05158 8.72656C3.34689 7.26406 4.12033 5.70313 5.09064 4.61094C5.69064 3.94063 5.71876 3.89375 5.71876 3.62188C5.71876 3.35469 5.62033 3.16719 5.40939 3.02656C5.22658 2.90469 4.85158 2.90938 4.66876 3.02656Z" fill="white"/>
<path d="M18.5906 3.02656C18.3797 3.16719 18.2812 3.35469 18.2812 3.62656C18.2812 3.89375 18.2906 3.90781 18.9281 4.63437C19.8938 5.73125 20.6578 7.27812 20.9484 8.72656C21.0563 9.25156 21.1406 10.025 21.1406 10.4422C21.1406 10.9344 21.4313 11.2812 21.8438 11.2812C22.0781 11.2812 22.3453 11.1172 22.4531 10.9062C22.5609 10.6953 22.5703 10.4047 22.5 9.61719C22.3172 7.64844 21.5156 5.61875 20.325 4.10937C19.9547 3.64062 19.5141 3.15781 19.35 3.04062C19.1531 2.90469 18.7875 2.9 18.5906 3.02656Z" fill="white"/>
</g>
<defs>
<clipPath id="clip0_258_550">
<rect width="24" height="24" fill="white" transform="translate(0 0.5)"/>
</clipPath>
</defs>
</svg>
