<svg width="32" height="32" viewBox="0 0 32 32" fill="none" xmlns="http://www.w3.org/2000/svg">
<path d="M15.0063 1.6877C13.975 1.90645 12.85 2.53145 12.1188 3.29395C10.6813 4.79395 10.025 6.75645 10.2 9.03145L10.2562 9.75645L9.85 10.4877C9.625 10.8939 9.4 11.3877 9.34375 11.5939C9.025 12.8377 9.55 14.0564 10.6562 14.6127C10.7938 14.6814 11.2688 14.8689 11.7125 15.0252C12.7375 15.4002 12.75 15.4064 12.75 15.6252C12.75 15.8627 12.55 16.0002 12.2 16.0002C11.9625 16.0002 11.8938 16.0314 11.725 16.2189C11.6188 16.3377 11.4062 16.6564 11.2625 16.9314C10.9313 17.5439 10.7063 17.7439 10.0062 18.0064C9.7125 18.1127 8.79375 18.4877 7.96875 18.8252C5.80625 19.7252 4.85 20.2377 4.225 20.8502C3.68125 21.3877 3.5625 21.8064 3.5625 23.1564V24.0564L3.74375 24.2689C4.0875 24.6627 5.00625 25.0064 6.5 25.3127C7.41875 25.5002 8.85625 25.7064 9.7875 25.7814L10.3 25.8252L10.325 25.2127C10.3438 24.6752 10.375 24.5502 10.5312 24.2564C10.9313 23.5252 11.5625 23.1877 12.525 23.1877H13.1125L13.1313 22.5127C13.1562 21.9377 13.1813 21.7939 13.3313 21.4877C13.5375 21.0689 13.8938 20.7314 14.35 20.5189C14.6813 20.3689 14.7125 20.3689 16.075 20.3877C17.3875 20.4064 17.4812 20.4127 17.7375 20.5502C18.15 20.7689 18.4812 21.1002 18.6687 21.4877C18.8188 21.7939 18.8438 21.9377 18.8688 22.5127L18.8875 23.1877H19.475C20.4375 23.1877 21.0688 23.5252 21.4688 24.2564C21.625 24.5439 21.6562 24.6814 21.675 25.1814L21.7063 25.7689L22.2437 25.7252C22.925 25.6752 24.725 25.4127 25.5438 25.2502C26.9125 24.9752 28 24.5752 28.2875 24.2314C28.4312 24.0627 28.4375 24.0189 28.4375 23.1564C28.4375 21.8002 28.3188 21.3877 27.7688 20.8502C27.3938 20.4752 26.8188 20.0939 26.0813 19.7252C25.4625 19.4189 23.1438 18.4377 22.1875 18.0752C21.5688 17.8439 21.225 17.6564 21.0562 17.4627C21 17.3939 20.8438 17.1377 20.7125 16.8877C20.5813 16.6314 20.3813 16.3314 20.275 16.2127C20.1063 16.0314 20.0375 16.0002 19.8 16.0002C19.45 16.0002 19.25 15.8627 19.25 15.6189C19.25 15.4002 19.2875 15.3814 20.5188 14.9377C20.925 14.7939 21.4188 14.5689 21.6125 14.4377C22.3875 13.9377 22.8125 13.0689 22.7313 12.1314C22.6875 11.6127 22.55 11.2377 22.075 10.3814C21.7125 9.73145 21.7063 9.7002 21.7563 9.4002C21.8375 8.89395 21.8188 7.6127 21.7188 7.04395C21.3875 5.13145 20.375 3.4877 18.9187 2.50645C18.5188 2.2377 17.8 1.9002 17.3438 1.7752C16.9062 1.65645 15.4313 1.6002 15.0063 1.6877Z" fill="#007AFF"/>
<path d="M14.9063 21.7437C14.8375 21.775 14.725 21.8625 14.6563 21.9375C14.5438 22.0625 14.5313 22.1875 14.5 23.3063L14.4688 24.5312L13.2438 24.55L12.0188 24.5625L11.8375 24.7562C11.6563 24.9437 11.6563 24.9562 11.6313 25.7937C11.6063 26.875 11.65 27.1562 11.875 27.3875L12.05 27.5625H13.275H14.5V28.7875V30.0125L14.6813 30.1937L14.8625 30.375H16H17.1375L17.3188 30.1937L17.5 30.0125V28.7875V27.5625H18.725H19.95L20.125 27.3875C20.35 27.1562 20.3938 26.875 20.3688 25.7937C20.3438 24.9562 20.3438 24.9437 20.1625 24.7562L19.9813 24.5625L18.7563 24.55L17.5313 24.5312L17.5 23.3L17.4688 22.0625L17.2938 21.8938L17.125 21.7188L16.075 21.7063C15.5 21.7 14.975 21.7125 14.9063 21.7437Z" fill="#007AFF"/>
</svg>
