<svg width="20" height="20" viewBox="0 0 20 20" fill="none" xmlns="http://www.w3.org/2000/svg">
<path d="M12.4057 0.0221157C14.9656 0.311331 17.1894 1.6636 18.6199 3.81318C20.1129 6.05654 20.4177 8.98778 19.4211 11.5086C18.9912 12.5951 18.3893 13.5136 17.5646 14.3461C16.1889 15.7335 14.5904 16.5386 12.6832 16.8083C12.1008 16.8904 10.9752 16.8904 10.4124 16.8083C8.94291 16.5933 7.59846 16.0345 6.48459 15.1824L6.12111 14.905L3.63543 17.3906C1.90405 19.122 1.10675 19.892 1.00514 19.935C0.641666 20.0835 0.243019 19.9154 0.0710526 19.5441C-0.0188389 19.3526 -0.022747 19.1767 0.0554199 18.9852C0.0984116 18.8836 0.868347 18.0863 2.59973 16.3549L5.08541 13.8693L4.80792 13.5058C3.95591 12.3919 3.39702 11.0475 3.18207 9.57793C3.09999 9.01513 3.09999 7.88954 3.18207 7.3072C3.45174 5.39995 4.25685 3.80145 5.6443 2.42573C6.9145 1.16725 8.52082 0.354321 10.2756 0.08074C10.7603 0.00648117 11.964 -0.0247841 12.4057 0.0221157ZM10.432 1.55808C8.41529 1.90592 6.69564 3.05887 5.62476 4.78244C4.9369 5.8963 4.60469 7.0688 4.60078 8.40544C4.59687 9.10893 4.64377 9.49195 4.80792 10.1446C5.42153 12.6069 7.3835 14.5688 9.84573 15.1824C10.4984 15.3466 10.8814 15.3935 11.5849 15.3896C12.9216 15.3857 14.0941 15.0535 15.2079 14.3656C16.9589 13.2791 18.1157 11.5282 18.4479 9.46068C18.5261 8.99559 18.5144 7.79183 18.4323 7.29939C18.1861 5.86504 17.5099 4.55575 16.4742 3.51614C15.3017 2.34756 13.9612 1.71441 12.1907 1.49164C11.925 1.46037 10.7603 1.50336 10.432 1.55808Z" fill="#C0C0C2"/>
<path d="M15.2978 4.39537C15.6027 4.53216 16.1264 5.18876 16.4508 5.83754C16.8299 6.59575 16.9706 7.21326 16.9745 8.11217C16.9784 8.65152 16.9706 8.73359 16.8963 8.87039C16.6657 9.31593 16.1068 9.42146 15.7316 9.09316C15.5597 8.94074 15.5128 8.76486 15.5128 8.24115C15.5128 7.20935 15.2275 6.4316 14.5904 5.70075C14.2582 5.32164 14.1918 5.08323 14.3364 4.77057C14.5123 4.38755 14.9265 4.22731 15.2978 4.39537Z" fill="#C0C0C2"/>
</svg>
