<svg width="24" height="24" viewBox="0 0 24 24" fill="none" xmlns="http://www.w3.org/2000/svg">
<path d="M10.6922 0.0749989C10.3172 0.173437 9.99375 0.365623 9.69844 0.65625C9.25313 1.09219 9.04688 1.62187 9.04688 2.29688V2.70469L8.63906 2.85938C8.40938 2.94375 8.07188 3.08437 7.87969 3.17344L7.52813 3.33281L7.27031 3.075C6.61406 2.4375 5.84063 2.20781 5.03906 2.41406C4.56094 2.54062 4.28906 2.7375 3.51094 3.51094C2.7375 4.28906 2.54063 4.56094 2.41406 5.03906C2.20781 5.84062 2.4375 6.61406 3.075 7.26562L3.32813 7.52812L3.12188 7.99219C3.00938 8.25 2.86875 8.59219 2.8125 8.75156L2.70469 9.04687H2.29688C1.62188 9.04687 1.09688 9.25312 0.651563 9.69844C0.107813 10.2469 0 10.6219 0 12C0 13.3828 0.103125 13.7391 0.65625 14.3016C1.09219 14.7469 1.62188 14.9531 2.29688 14.9531H2.70469L2.85938 15.3609C2.94375 15.5906 3.08438 15.9281 3.17344 16.1203L3.33281 16.4719L3.075 16.7297C2.93438 16.875 2.75625 17.0953 2.67656 17.2266C2.25469 17.9016 2.23594 18.7922 2.63438 19.4953C2.83125 19.8469 4.15313 21.1687 4.50469 21.3656C5.17031 21.7406 6 21.75 6.675 21.3844C6.80625 21.3141 7.05 21.1266 7.22344 20.9672L7.53281 20.6719L7.99688 20.8734C8.25469 20.9859 8.59219 21.1266 8.75625 21.1875L9.04688 21.2906V21.6984C9.04688 22.3781 9.25313 22.9078 9.69844 23.3438C10.2609 23.8969 10.6172 24 12 24C13.3781 24 13.7531 23.8922 14.3016 23.3484C14.7469 22.9031 14.9531 22.3781 14.9531 21.6984V21.2906L15.2484 21.1875C15.4078 21.1266 15.7453 20.9859 16.0031 20.8734L16.4672 20.6719L16.7766 20.9672C16.95 21.1266 17.1938 21.3141 17.325 21.3844C17.9859 21.7406 18.8063 21.7406 19.4719 21.3844C19.7859 21.2156 21.1594 19.8469 21.3609 19.5C21.7406 18.8484 21.75 18.0047 21.3844 17.325C21.3141 17.1937 21.1266 16.95 20.9672 16.7766L20.6719 16.4672L20.8734 16.0031C20.9859 15.7453 21.1266 15.4078 21.1875 15.2437L21.2906 14.9531H21.6984C22.3922 14.9531 22.8984 14.7516 23.3438 14.3016C23.8969 13.7391 24 13.3828 24 12C24 10.6172 23.8969 10.2609 23.3438 9.69844C22.8984 9.24844 22.3922 9.04687 21.6984 9.04687H21.2906L21.1875 8.75156C21.1266 8.59219 20.9859 8.25469 20.8734 7.99687L20.6719 7.53281L20.9672 7.22344C21.1266 7.05 21.3141 6.80625 21.3844 6.675C21.75 6 21.7406 5.17031 21.3656 4.50469C21.1688 4.15781 19.8 2.78906 19.4719 2.61562C18.7688 2.23594 17.8875 2.25937 17.2266 2.67656C17.1 2.75625 16.875 2.93437 16.7297 3.075L16.4719 3.33281L16.1203 3.17344C15.9281 3.08437 15.5906 2.94375 15.3656 2.85938L14.9531 2.70469V2.29688C14.9531 1.62187 14.7469 1.09687 14.3016 0.651562C14.0063 0.356249 13.6875 0.178123 13.2797 0.0703125C12.9094 -0.0281258 11.0578 -0.0234394 10.6922 0.0749989ZM13.1109 1.50469C13.2469 1.57031 13.3547 1.66875 13.4297 1.8C13.5375 1.9875 13.5469 2.04375 13.5469 2.6625C13.5469 3.40312 13.6031 3.64219 13.8234 3.7875C13.8891 3.83437 14.2219 3.96094 14.5547 4.07344C14.8922 4.18125 15.4594 4.42031 15.8203 4.59844C16.1813 4.77656 16.5234 4.92188 16.5844 4.92188C16.8094 4.92188 17.0484 4.7625 17.5031 4.3125C17.9906 3.83437 18.1266 3.75 18.3984 3.75C18.6797 3.75 18.8109 3.83906 19.4719 4.49062C20.1328 5.14687 20.25 5.31094 20.25 5.59687C20.25 5.87344 20.1656 6.00937 19.6875 6.49687C19.2328 6.95625 19.0781 7.19062 19.0781 7.42031C19.0781 7.48125 19.2234 7.82812 19.4062 8.18906C19.5844 8.55469 19.8188 9.12187 19.9266 9.45C20.0391 9.78281 20.1656 10.1109 20.2125 10.1766C20.3578 10.3969 20.5969 10.4531 21.3375 10.4531C21.9563 10.4531 22.0125 10.4625 22.2 10.5703C22.5516 10.7766 22.5938 10.9359 22.5938 12C22.5938 13.0641 22.5516 13.2234 22.2 13.4297C22.0125 13.5375 21.9563 13.5469 21.3375 13.5469C20.5969 13.5469 20.3578 13.6031 20.2125 13.8234C20.1656 13.8891 20.0391 14.2172 19.9266 14.55C19.8188 14.8781 19.5844 15.4453 19.4062 15.8109C19.2234 16.1719 19.0781 16.5187 19.0781 16.5797C19.0781 16.8094 19.2328 17.0437 19.6875 17.5031C20.1656 17.9906 20.25 18.1266 20.25 18.3984C20.25 18.6797 20.1609 18.8062 19.5141 19.4625C18.8484 20.1328 18.6844 20.25 18.4078 20.25C18.1266 20.25 17.9953 20.1656 17.5031 19.6875C17.0438 19.2328 16.8094 19.0781 16.575 19.0781C16.5141 19.0781 16.1672 19.2234 15.8109 19.4016C15.4547 19.5797 14.8922 19.8187 14.5547 19.9266C14.2219 20.0391 13.8891 20.1656 13.8234 20.2125C13.6031 20.3578 13.5469 20.5969 13.5469 21.3375C13.5469 21.9562 13.5375 22.0125 13.4297 22.2C13.2234 22.5516 13.0641 22.5938 12 22.5938C10.9359 22.5938 10.7766 22.5516 10.5703 22.2C10.4625 22.0125 10.4531 21.9562 10.4531 21.3375C10.4531 20.5969 10.3969 20.3578 10.1766 20.2125C10.1109 20.1656 9.78281 20.0344 9.44531 19.9266C9.1125 19.8141 8.54063 19.5797 8.18438 19.4016C7.82344 19.2234 7.48125 19.0781 7.42031 19.0781C7.19063 19.0781 6.95625 19.2328 6.49688 19.6875C6.00938 20.1656 5.87344 20.25 5.59688 20.25C5.31094 20.25 5.14688 20.1328 4.49063 19.4719C3.83906 18.8109 3.75 18.6797 3.75 18.3984C3.75 18.1266 3.83438 17.9906 4.3125 17.5031C4.76719 17.0437 4.92188 16.8094 4.92188 16.5797C4.92188 16.5187 4.77656 16.1719 4.59375 15.8109C4.41563 15.4453 4.18125 14.8781 4.07344 14.55C3.96094 14.2172 3.83438 13.8891 3.7875 13.8234C3.64219 13.6031 3.40313 13.5469 2.6625 13.5469C2.04375 13.5469 1.9875 13.5375 1.8 13.4297C1.44844 13.2234 1.40625 13.0641 1.40625 12C1.40625 10.9359 1.44844 10.7766 1.8 10.5703C1.9875 10.4625 2.04375 10.4531 2.6625 10.4531C3.40313 10.4531 3.64219 10.3969 3.7875 10.1766C3.83438 10.1109 3.96563 9.77812 4.07344 9.44531C4.18125 9.10781 4.42031 8.54062 4.59844 8.18437C4.77656 7.82344 4.92188 7.48125 4.92188 7.42031C4.92188 7.19062 4.76719 6.95625 4.3125 6.49687C3.83438 6.00937 3.75 5.87344 3.75 5.59687C3.75 5.31094 3.86719 5.14687 4.52813 4.49062C5.18906 3.83906 5.32031 3.75 5.60156 3.75C5.87344 3.75 6.00938 3.83437 6.49688 4.3125C6.95625 4.76719 7.19063 4.92188 7.42031 4.92188C7.48125 4.92188 7.82813 4.77656 8.18906 4.59375C8.55469 4.41562 9.12188 4.18125 9.45 4.07344C9.78281 3.96094 10.1109 3.83437 10.1766 3.7875C10.3969 3.64219 10.4531 3.40312 10.4531 2.6625C10.4531 2.04375 10.4625 1.9875 10.5703 1.80469C10.6453 1.67344 10.7531 1.57031 10.8844 1.50469C11.0672 1.41562 11.1656 1.40625 11.9953 1.40625C12.825 1.40625 12.9281 1.41562 13.1109 1.50469Z" fill="#010409"/>
<path d="M10.9453 6.89043C8.99531 7.31231 7.46719 8.75605 6.94688 10.6779C6.83438 11.0904 6.825 11.2123 6.825 11.9998C6.825 12.7873 6.83438 12.9092 6.94688 13.3217C7.43906 15.1357 8.86406 16.5607 10.6781 17.0529C11.0906 17.1654 11.2125 17.1748 12 17.1748C12.7875 17.1748 12.9094 17.1654 13.3219 17.0529C15.1359 16.5607 16.5609 15.1357 17.0531 13.3217C17.1656 12.9092 17.175 12.7873 17.175 11.9998C17.175 11.2123 17.1656 11.0904 17.0531 10.6779C16.5609 8.86387 15.1266 7.42481 13.3359 6.95606C12.6844 6.78262 11.5734 6.75449 10.9453 6.89043ZM12.8766 8.29668C14.6109 8.71387 15.7969 10.2139 15.7969 11.9998C15.7969 14.1279 14.1281 15.7967 12 15.7967C10.95 15.7967 10.0547 15.4264 9.30938 14.6904C8.03906 13.4295 7.82813 11.4186 8.8125 9.92324C9.35156 9.09824 10.2375 8.47949 11.175 8.27324C11.6203 8.17949 12.4219 8.18887 12.8766 8.29668Z" fill="#010409"/>
</svg>
