<svg width="32" height="32" viewBox="0 0 32 32" fill="none" xmlns="http://www.w3.org/2000/svg">
<path d="M13.25 1.81839C7.70623 2.38714 3.15623 6.48089 2.03123 11.9246C1.38123 15.0371 1.94998 18.3746 3.58748 21.0559C5.72498 24.5684 9.25623 26.7746 13.3687 27.1871C14.2875 27.2746 15.025 27.2684 15.2812 27.1621C15.7687 26.9559 15.8812 26.3559 15.5062 25.9746L15.3125 25.7809L14.2625 25.7434C13.6875 25.7184 13.025 25.6684 12.7812 25.6309C8.16248 24.8746 4.50623 21.4309 3.49998 16.8809C3.21873 15.5871 3.18123 13.8559 3.40623 12.5621C3.96248 9.41839 5.88123 6.60589 8.63123 4.90589C12.3187 2.62464 17.0937 2.70589 20.7062 5.11839C24 7.32464 25.875 10.9809 25.7312 14.9059C25.7 15.7121 25.5562 16.8559 25.4687 16.9996C25.4562 17.0246 25.2937 17.0059 25.1125 16.9559C24.9312 16.9121 24.4937 16.8371 24.1437 16.7996C23.7687 16.7559 23.5 16.6996 23.5 16.6621C23.5 16.6246 23.5437 16.3684 23.6 16.0934C23.75 15.3684 23.75 13.6621 23.6 12.8746C22.8687 9.06839 20.0062 6.17464 16.2375 5.42464C15.3125 5.24339 13.7625 5.23089 12.875 5.39964C9.03748 6.13714 6.13748 9.03714 5.39998 12.8746C5.24998 13.6871 5.24373 15.3121 5.39998 16.0934C5.78748 18.1059 6.63123 19.6934 8.03748 21.0746C9.38748 22.4059 10.9937 23.2371 12.875 23.5934C13.65 23.7371 14.9062 23.7809 15.2125 23.6809C15.5437 23.5621 15.7187 23.3121 15.7187 22.9559C15.7187 22.7121 15.6875 22.6496 15.4875 22.4621L15.25 22.2496H14.5375C12.925 22.2496 11.325 21.7434 9.99998 20.8059C9.56248 20.4996 8.37498 19.3684 8.37498 19.2559C8.37498 19.1434 9.31248 18.2121 9.79998 17.8434C11.1062 16.8621 12.5437 16.3434 14.1687 16.2684C16 16.1809 17.7125 16.7059 19.1375 17.7934L19.5 18.0684L19.1375 18.3684C17.55 19.7059 16.625 21.8684 16.775 23.8996C17.0125 27.0496 19.15 29.4684 22.2812 30.1309C22.8125 30.2434 24.3 30.2309 24.8562 30.1059C27.5437 29.4996 29.4937 27.5496 30.1062 24.8559C30.2437 24.2434 30.2437 22.7559 30.1062 22.1434C29.7062 20.3809 28.675 18.8434 27.2687 17.9184C27.05 17.7746 26.875 17.6309 26.875 17.5934C26.875 17.5621 26.9312 17.2621 27 16.9371C27.2062 15.9371 27.2875 14.5809 27.2 13.5434C26.9312 10.4184 25.6812 7.69339 23.5062 5.50589C20.8187 2.81214 17 1.43714 13.25 1.81839ZM15.7562 6.84964C19.4875 7.47464 22.25 10.7309 22.25 14.4996C22.25 15.1996 22.1187 16.1371 21.9437 16.6496C21.8437 16.9559 21.8375 16.9621 21.4062 17.1059C21.1687 17.1809 20.9312 17.2496 20.8875 17.2496C20.8437 17.2496 20.625 17.0934 20.3937 16.8996C19.6687 16.2809 18.5625 15.6496 17.6437 15.3121L17.25 15.1684L17.4937 14.8809C17.8875 14.4121 18.1187 13.9996 18.2937 13.4684C18.4312 13.0434 18.4625 12.8559 18.4625 12.2496C18.4625 11.6371 18.4312 11.4559 18.2937 11.0246C17.8937 9.81214 16.9375 8.85589 15.725 8.45589C15.025 8.22464 14.0562 8.21214 13.375 8.42464C12.1125 8.81839 11.1187 9.78714 10.7062 11.0246C10.5687 11.4559 10.5375 11.6371 10.5375 12.2496C10.5375 12.8559 10.5687 13.0434 10.7062 13.4684C10.8812 13.9996 11.1125 14.4121 11.5062 14.8809L11.75 15.1684L11.3562 15.3121C10.1875 15.7309 8.98123 16.4934 8.06873 17.3809C7.67498 17.7621 7.53123 17.8684 7.49373 17.8059C7.36248 17.5996 7.04373 16.6871 6.93123 16.1934C6.74998 15.4184 6.70623 14.0809 6.83748 13.2809C7.09998 11.6809 7.84998 10.2246 8.99998 9.06214C10.1437 7.89964 11.6 7.14339 13.2187 6.84964C13.8937 6.73089 15.0375 6.73089 15.7562 6.84964ZM15.2562 9.87464C16.2625 10.1871 17 11.1934 17 12.2496C17 13.5996 15.85 14.7496 14.5 14.7496C13.4437 14.7496 12.4375 14.0121 12.125 13.0059C11.5187 11.0746 13.325 9.26839 15.2562 9.87464ZM24.9 18.4309C25.7875 18.6934 26.4437 19.0746 27.1187 19.7121C27.8062 20.3684 28.2187 21.0309 28.5375 21.9996C28.7 22.4871 28.7125 22.6059 28.7125 23.4996C28.7125 24.3934 28.7 24.5121 28.5375 24.9996C28.2187 25.9684 27.8062 26.6309 27.1187 27.2871C26.45 27.9184 25.9187 28.2309 25 28.5371C24.5125 28.6996 24.3937 28.7121 23.5 28.7121C22.6062 28.7121 22.4875 28.6996 22 28.5371C21.0812 28.2309 20.55 27.9184 19.8812 27.2871C19.3812 26.8121 18.9937 26.2684 18.725 25.6746C18.3562 24.8621 18.2875 24.5059 18.2875 23.4996C18.2875 22.4934 18.3562 22.1371 18.725 21.3246C19.1 20.4996 19.8187 19.6496 20.5812 19.1309C20.975 18.8621 21.6937 18.5371 22.0937 18.4434C22.2687 18.3996 22.5187 18.3434 22.6562 18.3121C23.075 18.2121 24.4125 18.2871 24.9 18.4309Z" fill="#FF3B30"/>
<path d="M20.6437 20.3746C20.3062 20.5746 20.1687 20.9683 20.3187 21.2683C20.3562 21.3433 20.8562 21.8746 21.4249 22.4496L22.4687 23.4996L21.3937 24.5746C20.3124 25.6683 20.1937 25.8308 20.2749 26.1621C20.3312 26.3746 20.6249 26.6683 20.8374 26.7246C21.1687 26.8058 21.3312 26.6871 22.4249 25.6058L23.4999 24.5371L24.5812 25.6058C25.6687 26.6871 25.8312 26.8058 26.1624 26.7246C26.3749 26.6683 26.6687 26.3746 26.7249 26.1621C26.8062 25.8308 26.6874 25.6683 25.6062 24.5746L24.5374 23.4996L25.6062 22.4183C26.6874 21.3308 26.8062 21.1683 26.7249 20.8371C26.6687 20.6246 26.3749 20.3308 26.1624 20.2746C25.8312 20.1933 25.6687 20.3121 24.5749 21.3933L23.4999 22.4683L22.4499 21.4246C21.8749 20.8558 21.3437 20.3558 21.2687 20.3183C21.0687 20.2183 20.8687 20.2371 20.6437 20.3746Z" fill="#FF3B30"/>
</svg>
