<svg width="20" height="20" viewBox="0 0 20 20" fill="none" xmlns="http://www.w3.org/2000/svg">
<mask id="mask0_497_1140" style="mask-type:alpha" maskUnits="userSpaceOnUse" x="0" y="0" width="20" height="20">
<rect width="20" height="20" fill="#D9D9D9"/>
</mask>
<g mask="url(#mask0_497_1140)">
<path d="M12.5 16.6663C10.6389 16.6663 9.0625 16.0205 7.77084 14.7288C6.47917 13.4372 5.83334 11.8608 5.83334 9.99967C5.83334 8.15245 6.47917 6.57954 7.77084 5.28092C9.0625 3.98231 10.6389 3.33301 12.5 3.33301C14.3472 3.33301 15.9201 3.98231 17.2188 5.28092C18.5174 6.57954 19.1667 8.15245 19.1667 9.99967C19.1667 11.8608 18.5174 13.4372 17.2188 14.7288C15.9201 16.0205 14.3472 16.6663 12.5 16.6663ZM12.5 14.9997C13.8889 14.9997 15.0694 14.5136 16.0417 13.5413C17.0139 12.5691 17.5 11.3886 17.5 9.99967C17.5 8.61079 17.0139 7.43023 16.0417 6.45801C15.0694 5.48579 13.8889 4.99967 12.5 4.99967C11.1111 4.99967 9.93056 5.48579 8.95834 6.45801C7.98611 7.43023 7.5 8.61079 7.5 9.99967C7.5 11.3886 7.98611 12.5691 8.95834 13.5413C9.93056 14.5136 11.1111 14.9997 12.5 14.9997ZM13.3333 9.66634V7.49967C13.3333 7.26356 13.2535 7.06565 13.0938 6.90592C12.934 6.7462 12.7361 6.66634 12.5 6.66634C12.2639 6.66634 12.066 6.7462 11.9063 6.90592C11.7465 7.06565 11.6667 7.26356 11.6667 7.49967V10.0205C11.6667 10.1316 11.691 10.2393 11.7396 10.3434C11.7882 10.4476 11.8472 10.5344 11.9167 10.6038L13.8125 12.4997C13.9792 12.6663 14.1771 12.7497 14.4063 12.7497C14.6354 12.7497 14.8333 12.6663 15 12.4997C15.1667 12.333 15.25 12.1351 15.25 11.9059C15.25 11.6768 15.1667 11.4788 15 11.3122L13.3333 9.66634ZM2.5 7.49967C2.26389 7.49967 2.06597 7.41981 1.90625 7.26009C1.74653 7.10037 1.66667 6.90245 1.66667 6.66634C1.66667 6.43023 1.74653 6.23231 1.90625 6.07259C2.06597 5.91287 2.26389 5.83301 2.5 5.83301H4.16667C4.40278 5.83301 4.6007 5.91287 4.76042 6.07259C4.92014 6.23231 5 6.43023 5 6.66634C5 6.90245 4.92014 7.10037 4.76042 7.26009C4.6007 7.41981 4.40278 7.49967 4.16667 7.49967H2.5ZM1.66667 10.833C1.43056 10.833 1.23264 10.7531 1.07292 10.5934C0.913197 10.4337 0.833336 10.2358 0.833336 9.99967C0.833336 9.76356 0.913197 9.56565 1.07292 9.40592C1.23264 9.2462 1.43056 9.16634 1.66667 9.16634H4.16667C4.40278 9.16634 4.6007 9.2462 4.76042 9.40592C4.92014 9.56565 5 9.76356 5 9.99967C5 10.2358 4.92014 10.4337 4.76042 10.5934C4.6007 10.7531 4.40278 10.833 4.16667 10.833H1.66667ZM2.5 14.1663C2.26389 14.1663 2.06597 14.0865 1.90625 13.9268C1.74653 13.767 1.66667 13.5691 1.66667 13.333C1.66667 13.0969 1.74653 12.899 1.90625 12.7393C2.06597 12.5795 2.26389 12.4997 2.5 12.4997H4.16667C4.40278 12.4997 4.6007 12.5795 4.76042 12.7393C4.92014 12.899 5 13.0969 5 13.333C5 13.5691 4.92014 13.767 4.76042 13.9268C4.6007 14.0865 4.40278 14.1663 4.16667 14.1663H2.5Z" fill="#007AFF"/>
</g>
</svg>
